<?xml version="1.0" encoding="iso-8859-1"?>
<!-- Generator: Adobe Illustrator 19.0.0, SVG Export Plug-In . SVG Version: 6.00 Build 0)  -->
<svg xmlns="http://www.w3.org/2000/svg" xmlns:xlink="http://www.w3.org/1999/xlink" version="1.1" id="Layer_1" x="0px" y="0px" viewBox="0 0 512 512" style="enable-background:new 0 0 512 512;" xml:space="preserve">
<path style="fill:#68727E;" d="M397.094,503.983H63.599c-9.446,0-17.102-7.656-17.102-17.102V25.119  c0-9.446,7.656-17.102,17.102-17.102h333.495c9.446,0,17.102,7.656,17.102,17.102v461.762  C414.196,496.327,406.54,503.983,397.094,503.983z"/>
<path style="fill:#FFC44F;" d="M63.599,8.017c-9.446,0-17.102,7.658-17.102,17.102v461.762c0,9.445,7.656,17.102,17.102,17.102  h42.756V8.017H63.599z"/>
<path style="fill:#F7AB49;" d="M67.875,486.881V25.119c0-9.445,7.656-17.102,17.102-17.102H63.599  c-9.446,0-17.102,7.658-17.102,17.102v461.762c0,9.445,7.656,17.102,17.102,17.102h21.378  C75.531,503.983,67.875,496.326,67.875,486.881z"/>
<path style="fill:#FF8C78;" d="M448.401,187.591h-34.205v-85.511h34.205c9.446,0,17.102,7.656,17.102,17.102v51.307  C465.503,179.934,457.847,187.591,448.401,187.591z"/>
<path style="fill:#509FE8;" d="M448.401,298.756h-34.205v-85.511h34.205c9.446,0,17.102,7.656,17.102,17.102v51.307  C465.503,291.099,457.847,298.756,448.401,298.756z"/>
<path style="fill:#C4DF64;" d="M448.401,409.921h-34.205v-85.512h34.205c9.446,0,17.102,7.656,17.102,17.102v51.307  C465.503,402.264,457.847,409.921,448.401,409.921z"/>
<rect x="414.196" y="102.079" style="fill:#DF7A6E;" width="21.912" height="85.511"/>
<rect x="414.196" y="213.244" style="fill:#4D8CCF;" width="21.912" height="85.511"/>
<rect x="414.196" y="324.409" style="fill:#A6C451;" width="21.912" height="85.511"/>
<g>
	<circle style="fill:#D9DCDF;" cx="260.276" cy="179.04" r="51.307"/>
	<path style="fill:#D9DCDF;" d="M337.236,375.716H183.315v-94.063c0-18.891,15.314-34.205,34.205-34.205h85.511   c18.891,0,34.205,15.314,34.205,34.205V375.716z"/>
</g>
<path d="M448.401,195.608c13.851,0,25.119-11.268,25.119-25.119v-51.307c0-13.851-11.268-25.119-25.119-25.119h-26.188V25.119  C422.213,11.268,410.945,0,397.094,0H63.599C49.748,0,38.48,11.268,38.48,25.119v333.5c0,4.428,3.588,8.017,8.017,8.017  s8.017-3.588,8.017-8.017v-333.5c0-5.01,4.076-9.086,9.086-9.086h34.739v479.933H63.599c-5.01,0-9.086-4.076-9.086-9.086v-85.508  c0-4.428-3.588-8.017-8.017-8.017s-8.017,3.588-8.017,8.017v85.508C38.48,500.732,49.748,512,63.599,512h333.495  c13.851,0,25.119-11.268,25.119-25.119v-68.944h26.188c13.851,0,25.119-11.268,25.119-25.119v-51.307  c0-13.851-11.268-25.119-25.119-25.119h-26.188v-9.62h26.188c13.851,0,25.119-11.268,25.119-25.119v-51.307  c0-13.851-11.268-25.119-25.119-25.119h-26.188v-9.62H448.401z M448.401,110.096c5.01,0,9.086,4.076,9.086,9.086v51.307  c0,5.01-4.076,9.086-9.086,9.086h-26.188v-69.478H448.401z M406.18,486.881c0,5.01-4.076,9.086-9.086,9.086H114.372V16.033h282.722  c5.01,0,9.086,4.076,9.086,9.086V486.881z M448.401,332.426c5.01,0,9.086,4.076,9.086,9.086v51.307c0,5.01-4.076,9.086-9.086,9.086  h-26.188v-69.478H448.401z M448.401,221.261c5.01,0,9.086,4.076,9.086,9.086v51.307c0,5.01-4.076,9.086-9.086,9.086h-26.188v-69.478  H448.401z"/>
<path d="M260.276,238.363c32.711,0,59.324-26.612,59.324-59.324s-26.612-59.324-59.324-59.324s-59.324,26.612-59.324,59.324  S227.564,238.363,260.276,238.363z M260.276,135.749c23.871,0,43.29,19.42,43.29,43.29s-19.42,43.29-43.29,43.29  s-43.29-19.42-43.29-43.29S236.405,135.749,260.276,135.749z"/>
<path d="M303.031,239.432H217.52c-23.281,0-42.221,18.941-42.221,42.221v94.063c0,4.428,3.588,8.017,8.017,8.017h153.921  c4.428,0,8.017-3.588,8.017-8.017v-42.757c0-4.428-3.588-8.017-8.017-8.017c-4.428,0-8.017,3.588-8.017,8.017v34.74H191.332v-86.046  c0-14.441,11.747-26.188,26.188-26.188h85.511c14.441,0,26.188,11.747,26.188,26.188v17.102c0,4.428,3.588,8.017,8.017,8.017  c4.428,0,8.017-3.588,8.017-8.017v-17.102C345.253,258.373,326.312,239.432,303.031,239.432z"/>
<g>
</g>
<g>
</g>
<g>
</g>
<g>
</g>
<g>
</g>
<g>
</g>
<g>
</g>
<g>
</g>
<g>
</g>
<g>
</g>
<g>
</g>
<g>
</g>
<g>
</g>
<g>
</g>
<g>
</g>
</svg>
