<?xml version="1.0" encoding="iso-8859-1"?>
<!-- Generator: Adobe Illustrator 19.0.0, SVG Export Plug-In . SVG Version: 6.00 Build 0)  -->
<svg xmlns="http://www.w3.org/2000/svg" xmlns:xlink="http://www.w3.org/1999/xlink" version="1.1" id="Layer_1" x="0px" y="0px" viewBox="0 0 512.001 512.001" style="enable-background:new 0 0 512.001 512.001;" xml:space="preserve">
<path style="fill:#F6F6F7;" d="M367.165,196.17c0-27.683-6.915-53.826-19.177-76.96H187.591c-18.891,0-34.205,15.314-34.205,34.205  V364.08c11.075,2.034,22.507,3.113,34.205,3.113C286.767,367.193,367.165,290.624,367.165,196.17z"/>
<g>
	<path style="fill:#D9DCDF;" d="M469.779,119.21H347.988c12.261,23.134,19.177,49.277,19.177,76.96   c0,94.454-80.398,171.023-179.574,171.023c-11.698,0-23.13-1.077-34.205-3.113v20.215c0,18.891,15.314,34.205,34.205,34.205   h153.921l85.512,76.96V418.5h42.756c18.891,0,34.205-15.314,34.205-34.205V153.414C503.983,134.524,488.669,119.21,469.779,119.21z   "/>
	<path style="fill:#D9DCDF;" d="M187.591,25.147c-99.176,0-179.574,76.569-179.574,171.023c0,45.447,18.617,86.747,48.98,117.373   l-40.429,79.303l89.404-44.314c14.743,7.177,30.663,12.472,47.414,15.548V153.414c0-18.891,15.314-34.205,34.205-34.205h160.397   C318.415,63.414,257.698,25.147,187.591,25.147z"/>
</g>
<circle style="fill:#FFC44F;" cx="256" cy="213.277" r="59.858"/>
<path style="fill:#F7AB49;" d="M281.653,256.028c-33.059,0-59.858-26.799-59.858-59.858c0-15.179,5.661-29.028,14.972-39.58  c-23.62,8.012-40.625,30.354-40.625,56.682c0,33.059,26.799,59.858,59.858,59.858c17.879,0,33.918-7.849,44.886-20.278  C294.848,254.9,288.384,256.028,281.653,256.028z"/>
<path style="fill:#8E959F;" d="M262.413,315.886h-12.827c-10.626,0-19.24-8.614-19.24-19.24V273.13h51.307v23.516  C281.653,307.272,273.039,315.886,262.413,315.886z"/>
<path style="fill:#68727E;" d="M256,296.646V273.13h-25.653v23.516c0,10.626,8.614,19.24,19.24,19.24h12.827  c2.252,0,4.405-0.407,6.413-1.118C261.359,312.123,256,305.02,256,296.646z"/>
<circle style="fill:#FFEBC8;" cx="268.827" cy="183.348" r="12.827"/>
<path d="M503.983,264.044c4.428,0,8.017-3.588,8.017-8.017V153.414c0-23.281-18.941-42.221-42.221-42.221H352.717  c-15.429-27.264-38.017-50.303-65.61-66.817c-29.783-17.825-64.195-27.246-99.516-27.246c-55.02,0-107.068,22.935-142.797,62.924  c-2.95,3.302-2.665,8.369,0.637,11.32c3.301,2.95,8.369,2.665,11.32-0.637c32.691-36.588,80.381-57.573,130.841-57.573  c60.457,0,115.358,29.576,146.436,78.029H187.591c-23.281,0-42.221,18.941-42.221,42.221V354.19  c-12.417-2.986-24.452-7.298-35.889-12.865c-2.233-1.088-4.844-1.08-7.069,0.025l-67.699,33.556l29.427-57.721  c1.572-3.084,0.988-6.828-1.448-9.285c-30.088-30.346-46.657-70.025-46.657-111.728c0-24.262,5.474-47.603,16.267-69.375  c1.967-3.967,0.345-8.777-3.621-10.743c-3.967-1.966-8.776-0.344-10.743,3.622C6.035,143.679,0,169.415,0,196.17  c0,44.052,16.742,86.02,47.264,118.812L9.425,389.204c-1.475,2.894-1.027,6.481,1.114,8.923c2.37,2.703,6.364,3.501,9.589,1.901  l85.923-42.589c12.561,5.793,25.746,10.211,39.319,13.191v13.664c0,23.28,18.941,42.221,42.221,42.221h150.844l83.224,74.902  c5.065,4.559,13.38,0.821,13.38-5.958v-68.944h34.739c23.281,0,42.221-18.941,42.221-42.221v-85.513  c0-4.428-3.588-8.017-8.017-8.017s-8.017,3.588-8.017,8.017v85.513c0,14.441-11.747,26.188-26.188,26.188h-42.756  c-4.428,0-8.017,3.588-8.017,8.017v58.96l-72.131-64.918c-1.473-1.325-3.383-2.059-5.364-2.059H187.592  c-14.44,0-26.188-11.747-26.188-26.188v-10.83c8.676,1.15,17.436,1.744,26.188,1.744c103.438,0,187.591-80.318,187.591-179.04  c0-18.398-2.92-36.787-8.747-54.242c-1.663-4.981-3.555-9.894-5.665-14.702h109.008c14.441,0,26.188,11.747,26.188,26.188v102.613  C495.967,260.455,499.555,264.044,503.983,264.044z M187.591,359.176c-8.759,0-17.521-0.651-26.188-1.91V153.414  c0-14.441,11.748-26.188,26.188-26.188h155.493c8.038,16.775,13.374,34.531,15.257,53.07c0.536,5.272,0.807,10.575,0.807,15.874  C359.148,286.052,282.188,359.176,187.591,359.176z"/>
<path d="M256,145.397c-37.426,0-67.875,30.449-67.875,67.875c0,25.178,13.791,47.181,34.205,58.897v0.961v23.516  c0,15.03,12.227,27.257,27.257,27.257h12.827c15.03,0,27.257-12.227,27.257-27.257V273.13v-0.961  c20.414-11.716,34.205-33.719,34.205-58.897C323.875,175.846,293.426,145.397,256,145.397z M273.637,262.02  c-11.314,4.107-23.959,4.107-35.273,0V219.7l13.19,8.794c2.694,1.796,6.201,1.796,8.893,0l13.19-8.794V262.02z M273.637,296.646  c0,6.189-5.034,11.223-11.223,11.223h-12.827c-6.189,0-11.223-5.034-11.223-11.223v-15.499h35.273V296.646z M289.67,252.643v-47.922  c0-6.27-7.229-10.162-12.463-6.67L256,212.189l-21.207-14.138c-5.231-3.491-12.463,0.395-12.463,6.67v47.922  c-11.11-9.515-18.171-23.629-18.171-39.371c0-28.585,23.256-51.841,51.841-51.841s51.841,23.256,51.841,51.841  C307.841,229.014,300.78,243.127,289.67,252.643z"/>
<path d="M375.716,58.817c2.051,0,4.103-0.782,5.669-2.347l17.102-17.102c3.131-3.132,3.131-8.207,0-11.338  c-3.132-3.13-8.207-3.13-11.338,0l-17.102,17.102c-3.131,3.132-3.131,8.207,0,11.338C371.613,58.035,373.665,58.817,375.716,58.817z  "/>
<path d="M376.251,85.005c0,4.428,3.588,8.017,8.017,8.017h25.653c4.428,0,8.017-3.588,8.017-8.017s-3.588-8.017-8.017-8.017h-25.653  C379.839,76.988,376.251,80.576,376.251,85.005z"/>
<path d="M341.511,50.266c4.428,0,8.017-3.588,8.017-8.017V16.596c0-4.428-3.588-8.017-8.017-8.017c-4.428,0-8.017,3.588-8.017,8.017  v25.653C333.495,46.678,337.083,50.266,341.511,50.266z"/>
<g>
</g>
<g>
</g>
<g>
</g>
<g>
</g>
<g>
</g>
<g>
</g>
<g>
</g>
<g>
</g>
<g>
</g>
<g>
</g>
<g>
</g>
<g>
</g>
<g>
</g>
<g>
</g>
<g>
</g>
</svg>
