<?xml version="1.0" encoding="iso-8859-1"?>
<!-- Generator: Adobe Illustrator 19.0.0, SVG Export Plug-In . SVG Version: 6.00 Build 0)  -->
<svg xmlns="http://www.w3.org/2000/svg" xmlns:xlink="http://www.w3.org/1999/xlink" version="1.1" id="Layer_1" x="0px" y="0px" viewBox="0 0 512 512" style="enable-background:new 0 0 512 512;" xml:space="preserve">
<rect x="196.142" y="42.221" style="fill:#D9DCDF;" width="307.841" height="417.937"/>
<g>
	<path style="fill:#509FE8;" d="M196.142,444.125v25.653c0,18.891,15.314,34.205,34.205,34.205h239.432   c18.891,0,34.205-15.314,34.205-34.205v-25.653H196.142z"/>
	<path style="fill:#509FE8;" d="M503.983,42.221c0-18.891-15.314-34.205-34.205-34.205H230.347   c-18.891,0-34.205,15.314-34.205,34.205v17.637h307.841V42.221z"/>
</g>
<path style="fill:#D9DCDF;" d="M230.347,469.779V42.221c0-18.891,15.314-34.205,34.205-34.205h-34.205  c-18.891,0-34.205,15.314-34.205,34.205v427.557c0,18.891,15.314,34.205,34.205,34.205h34.205  C245.661,503.983,230.347,488.669,230.347,469.779z"/>
<g>
	<path style="fill:#4D8CCF;" d="M230.347,469.779v-25.653h-34.205v25.653c0,18.891,15.314,34.205,34.205,34.205h34.205   C245.661,503.983,230.347,488.669,230.347,469.779z"/>
	<path style="fill:#4D8CCF;" d="M264.551,8.017h-34.205c-18.891,0-34.205,15.314-34.205,34.205v17.637h34.205V42.221   C230.347,23.331,245.661,8.017,264.551,8.017z"/>
</g>
<path style="fill:#FFC44F;" d="M307.307,93.528H42.221c-18.891,0-34.205,15.314-34.205,34.205v188.125  c0,18.891,15.314,34.205,34.205,34.205h171.023l68.409,51.307v-51.307h25.653c18.891,0,34.205-15.314,34.205-34.205V127.733  C341.511,108.842,326.197,93.528,307.307,93.528z"/>
<path d="M469.779,0H230.347c-23.281,0-42.221,18.941-42.221,42.221v43.29h-68.588c-4.427,0-8.017,3.588-8.017,8.017  c0,4.428,3.589,8.017,8.017,8.017h187.769c14.44,0,26.188,11.747,26.188,26.188v20.813L223.175,206.61  c-2.664-7.545-6.824-14.295-12.343-19.814c-10.171-10.172-24.498-15.773-40.344-15.773c-21.184,0-42.534,9.339-54.631,27.46  l-99.824-49.705v-21.045c0-14.441,11.748-26.188,26.188-26.188H76.07c4.427,0,8.017-3.588,8.017-8.017  c0-4.428-3.589-8.017-8.017-8.017H42.221C18.941,85.511,0,104.452,0,127.733v188.125c0,23.281,18.941,42.221,42.221,42.221h145.904  v111.699c0,23.28,18.941,42.221,42.221,42.221h239.432c23.28,0,42.221-18.941,42.221-42.221V230.697  c0-4.428-3.589-8.017-8.017-8.017c-4.427,0-8.017,3.588-8.017,8.017v205.411H204.159v-78.029h6.413l66.271,49.704  c5.192,3.893,12.827,0.049,12.827-6.413v-43.29h17.637c23.281,0,42.221-18.941,42.221-42.221V127.733  c0-23.281-18.941-42.221-42.221-42.221H204.159V67.875h291.808v122.208c0,4.428,3.589,8.017,8.017,8.017  c4.427,0,8.017-3.588,8.017-8.017V42.221C512,18.941,493.059,0,469.779,0z M495.967,452.142v17.637  c0,14.441-11.748,26.188-26.188,26.188H230.347c-14.44,0-26.188-11.747-26.188-26.188v-17.637H495.967z M307.307,342.046h-25.653  c-4.427,0-8.017,3.588-8.017,8.017v35.273l-55.582-41.687c-1.387-1.041-3.075-1.603-4.81-1.603H42.221  c-14.44,0-26.188-11.747-26.188-26.188V166.69l92.883,46.248c-1.99,6.207-3.096,13.078-3.096,20.616  c0,42.229,33.522,61.461,64.668,61.461c4.427,0,8.017-3.588,8.017-8.017s-3.589-8.017-8.017-8.017  c-24.208,0-48.635-14.047-48.635-45.428c0-31.947,25.211-46.497,48.635-46.497c23.975,0,40.084,16.108,40.084,40.084  c0,14.027-2.31,21.057-8.238,25.074c-4.304,2.916-10.361,4.044-15.278,4.388v-51.909c0-4.428-3.589-8.017-8.017-8.017  s-8.017,3.588-8.017,8.017v2.532c-2.82-1.285-5.882-1.998-9.086-1.998c-13.851,0-25.119,13.187-25.119,29.395  s11.268,29.395,25.119,29.395c3.203,0,6.266-0.713,9.086-1.998v2.532c0,4.099,3.092,7.538,7.169,7.972  c2.012,0.214,20.04,1.836,33.136-7.035c13.463-9.121,15.278-24.503,15.278-38.348c0-1.395-0.059-2.772-0.145-4.141l107.035-56.335  v149.194C333.495,330.299,321.747,342.046,307.307,342.046z M171.023,234.622c0,7.242-4.161,13.361-9.086,13.361  c-4.924,0-9.086-6.119-9.086-13.361s4.161-13.361,9.086-13.361C166.862,221.261,171.023,227.38,171.023,234.622z M204.159,51.841  v-9.62c0-14.441,11.748-26.188,26.188-26.188h239.432c14.44,0,26.188,11.747,26.188,26.188v9.62H204.159z"/>
<path d="M341.511,477.795h17.102c4.427,0,8.017-3.588,8.017-8.017s-3.589-8.017-8.017-8.017h-17.102  c-4.427,0-8.017,3.588-8.017,8.017S337.084,477.795,341.511,477.795z"/>
<path d="M401.37,102.614c-4.427,0-8.017,3.588-8.017,8.017v17.637h-9.086c-4.427,0-8.017,3.588-8.017,8.017  c0,4.428,3.589,8.017,8.017,8.017h85.511c4.427,0,8.017-3.588,8.017-8.017c0-4.428-3.589-8.017-8.017-8.017h-9.086V93.528  c0-4.428-3.589-8.017-8.017-8.017c-4.427,0-8.017,3.588-8.017,8.017v34.739h-9.647c0.012-0.177,0.027-0.354,0.027-0.534v-25.653  c0-4.428-3.589-8.017-8.017-8.017c-4.427,0-8.017,3.588-8.017,8.017v25.653c0,0.181,0.015,0.357,0.027,0.534h-9.647V110.63  C409.386,106.202,405.797,102.614,401.37,102.614z"/>
<g>
</g>
<g>
</g>
<g>
</g>
<g>
</g>
<g>
</g>
<g>
</g>
<g>
</g>
<g>
</g>
<g>
</g>
<g>
</g>
<g>
</g>
<g>
</g>
<g>
</g>
<g>
</g>
<g>
</g>
</svg>
