<?xml version="1.0" encoding="iso-8859-1"?>
<!-- Generator: Adobe Illustrator 19.0.0, SVG Export Plug-In . SVG Version: 6.00 Build 0)  -->
<svg xmlns="http://www.w3.org/2000/svg" xmlns:xlink="http://www.w3.org/1999/xlink" version="1.1" id="Layer_1" x="0px" y="0px" viewBox="0 0 512 512" style="enable-background:new 0 0 512 512;" xml:space="preserve">
<circle style="fill:#FF8C78;" cx="213.244" cy="298.724" r="205.228"/>
<circle style="fill:#ECEDEF;" cx="213.244" cy="298.724" r="162.472"/>
<circle style="fill:#FF8C78;" cx="213.244" cy="298.724" r="111.165"/>
<circle style="fill:#ECEDEF;" cx="213.244" cy="298.724" r="68.409"/>
<g>
	<circle style="fill:#FF8C78;" cx="213.244" cy="298.724" r="25.653"/>
	<circle style="fill:#FF8C78;" cx="213.244" cy="298.724" r="205.228"/>
</g>
<circle style="fill:#ECEDEF;" cx="213.244" cy="298.724" r="162.472"/>
<circle style="fill:#FF8C78;" cx="213.244" cy="298.724" r="111.165"/>
<circle style="fill:#ECEDEF;" cx="213.244" cy="298.724" r="68.409"/>
<circle style="fill:#FF8C78;" cx="213.244" cy="298.724" r="25.653"/>
<polygon style="fill:#C4DF64;" points="431.425,7.986 431.425,80.544 383.052,128.917 383.052,56.358 "/>
<polygon style="fill:#FFC44F;" points="503.983,80.544 431.425,80.544 383.052,128.917 455.611,128.917 "/>
<path style="fill:#DF7A6E;" d="M364.64,437.271l-30.272-30.272c-4.042,4.518-8.331,8.808-12.849,12.849l30.272,30.272  C356.26,446.028,360.547,441.74,364.64,437.271z"/>
<path style="fill:#D9DCDF;" d="M285.158,383.488l36.361,36.361c4.518-4.042,8.808-8.331,12.849-12.849l-36.361-36.361  C294.08,375.263,289.782,379.561,285.158,383.488z"/>
<path style="fill:#DF7A6E;" d="M298.008,370.639l-30.401-30.401c-3.695,4.831-8.018,9.154-12.849,12.849l30.401,30.401  C289.782,379.561,294.08,375.263,298.008,370.639z"/>
<path style="fill:#D9DCDF;" d="M223.782,322.112l30.974,30.974c4.831-3.695,9.154-8.018,12.849-12.849l-30.974-30.974  C234.062,314.957,229.476,319.542,223.782,322.112z"/>
<path style="fill:#DF7A6E;" d="M236.632,309.263L219.668,292.3c-3.547-3.547-9.299-3.544-12.848,0.001  c-3.549,3.548-3.548,9.303,0.001,12.85l16.96,16.96C229.476,319.542,234.062,314.957,236.632,309.263z"/>
<path d="M511.39,77.477c-1.241-2.996-4.164-4.949-7.406-4.949h-64.542V7.986c0-6.987-8.737-10.615-13.685-5.669l-48.373,48.373  c-1.504,1.504-2.348,3.542-2.348,5.669v69.238l-16.86,16.86c-38.071-35.333-89.017-56.975-144.931-56.975  c-46.834,0-91.279,14.896-128.531,43.075c-36.037,27.26-62.966,65.992-75.826,109.063c-1.267,4.242,1.146,8.707,5.388,9.975  c4.241,1.268,8.708-1.145,9.976-5.388c24.733-82.837,102.451-140.692,188.993-140.692c51.493,0,98.432,19.846,133.592,52.281  l-18.857,18.857c-19.483-17.785-43.23-31.202-69.874-38.45c-4.273-1.162-8.678,1.359-9.84,5.632  c-1.162,4.272,1.359,8.677,5.631,9.84c23.881,6.497,45.192,18.466,62.734,34.326l-25.013,25.013  c-20.967-18.34-48.393-29.47-78.372-29.47c-65.717,0-119.182,53.465-119.182,119.182s53.465,119.182,119.182,119.182  s119.181-53.465,119.181-119.182c0-29.979-11.13-57.406-29.472-78.373l25.001-25.001c24.915,27.707,39.744,64.235,39.744,103.375  c0,85.167-69.288,154.455-154.455,154.455S58.789,383.892,58.789,298.725S128.077,144.27,213.244,144.27  c4.427,0,8.017-3.588,8.017-8.017s-3.589-8.017-8.017-8.017c-94.008,0-170.489,76.481-170.489,170.489  s76.48,170.489,170.489,170.489s170.489-76.481,170.489-170.489c0-43.491-16.596-84.06-44.435-114.716l18.877-18.877  c32.434,35.16,52.281,82.1,52.281,133.592c0,108.742-88.468,197.211-197.211,197.211S16.033,407.466,16.033,298.725  c0-5.481,0.227-11.013,0.676-16.441c0.364-4.412-2.917-8.285-7.329-8.649c-4.421-0.377-8.285,2.917-8.649,7.329  C0.245,286.829,0,292.805,0,298.725c0,117.584,95.661,213.244,213.244,213.244s213.244-95.661,213.244-213.244  c0-55.914-21.642-106.86-56.976-144.931l16.86-16.86h69.238c2.126,0,4.165-0.844,5.668-2.347l48.373-48.373  C511.944,83.92,512.631,80.472,511.39,77.477z M423.408,27.339v49.883l-32.339,32.339V59.678L423.408,27.339z M316.392,298.725  c0,56.876-46.272,103.148-103.148,103.148S110.096,355.6,110.096,298.725s46.272-103.148,103.148-103.148  c25.558,0,48.972,9.349,67.011,24.799l-18.97,18.97c-13.137-10.648-29.853-17.046-48.041-17.046  c-42.141,0-76.426,34.285-76.426,76.426s34.285,76.426,76.426,76.426s76.426-34.285,76.426-76.426  c0-18.189-6.397-34.906-17.047-48.042l18.97-18.97C307.044,249.752,316.392,273.166,316.392,298.725z M230.881,298.725  c0,9.725-7.912,17.637-17.637,17.637s-17.637-7.912-17.637-17.637c0-9.725,7.912-17.637,17.637-17.637  c1.896,0,3.72,0.309,5.433,0.866l-11.102,11.102c-2.919,2.919-3.113,7.74-0.426,10.878c2.997,3.501,8.503,3.72,11.763,0.46  l11.103-11.103C230.572,295.004,230.881,296.828,230.881,298.725z M230.693,269.938c-5.092-3.098-11.065-4.884-17.449-4.884  c-18.566,0-33.67,15.105-33.67,33.67c0,18.566,15.105,33.67,33.67,33.67s33.67-15.105,33.67-33.67  c0-6.383-1.785-12.357-4.884-17.449l19.182-19.183c7.785,10.169,12.424,22.866,12.424,36.632c0,33.3-27.092,60.392-60.392,60.392  s-60.392-27.092-60.392-60.392s27.092-60.392,60.392-60.392c13.766,0,26.463,4.639,36.632,12.423L230.693,269.938z M452.291,120.9  h-49.884l32.339-32.339h49.884L452.291,120.9z"/>
<g>
</g>
<g>
</g>
<g>
</g>
<g>
</g>
<g>
</g>
<g>
</g>
<g>
</g>
<g>
</g>
<g>
</g>
<g>
</g>
<g>
</g>
<g>
</g>
<g>
</g>
<g>
</g>
<g>
</g>
</svg>
