<?xml version="1.0" encoding="iso-8859-1"?>
<!-- Generator: Adobe Illustrator 19.0.0, SVG Export Plug-In . SVG Version: 6.00 Build 0)  -->
<svg xmlns="http://www.w3.org/2000/svg" xmlns:xlink="http://www.w3.org/1999/xlink" version="1.1" id="Layer_1" x="0px" y="0px" viewBox="0 0 512 512" style="enable-background:new 0 0 512 512;" xml:space="preserve">
<polygon style="fill:#D9DCDF;" points="110.63,187.591 12.292,285.929 12.292,503.983 439.85,503.983 439.85,187.591 "/>
<polygon style="fill:#F6F6F7;" points="110.63,285.929 110.63,187.591 12.292,285.929 "/>
<rect x="80.701" y="358.614" style="fill:#FF8C78;" width="290.739" height="42.756"/>
<rect x="114.906" y="401.37" style="fill:#F6F6F7;" width="222.33" height="42.756"/>
<path style="fill:#68727E;" d="M251.724,238.898c0-51.307,51.307-85.511,51.307-153.921c0-42.505-34.456-76.96-76.96-76.96  s-76.96,34.456-76.96,76.96c0,68.409,51.307,102.614,51.307,153.921H251.724z"/>
<path style="fill:#FF8C78;" d="M251.724,238.898h-51.307c0,48.813-79.098,119.716-102.614,119.716c37.055,0,128.267,0,128.267,0  c37.055,0,91.212,0,128.267,0C330.823,358.614,251.724,287.711,251.724,238.898z"/>
<path style="fill:#DF7A6E;" d="M131.405,341.156c-13.849,10.73-26.361,17.458-33.602,17.458c37.055,0,128.267,0,128.267,0  c37.055,0,91.212,0,128.267,0c-7.241,0-19.753-6.729-33.602-17.458H131.405z"/>
<path style="fill:#55606E;" d="M238.898,9.102c-4.173-0.701-8.454-1.085-12.827-1.085c-42.505,0-76.96,34.456-76.96,76.96  c0,68.409,51.307,102.614,51.307,153.921h25.653c0-51.307-51.307-85.511-51.307-153.921C174.764,46.845,202.502,15.21,238.898,9.102  z"/>
<path style="fill:#DF7A6E;" d="M226.071,238.898h-25.653c0,48.813-79.098,119.716-102.614,119.716c6.961,0,15.834,0,25.653,0  C146.973,358.614,226.071,287.711,226.071,238.898z"/>
<path style="fill:#FF8C78;" d="M379.992,161.937c0-33.059,59.858-145.37,59.858-145.37s59.858,112.311,59.858,145.37  s-26.799,59.858-59.858,59.858S379.992,194.996,379.992,161.937z"/>
<path style="fill:#DF7A6E;" d="M465.503,196.142c-33.059,0-59.858-26.799-59.858-59.858c0-20.538,23.101-71.659,40.601-107.439  c-3.93-7.651-6.396-12.277-6.396-12.277s-59.858,112.311-59.858,145.37s26.799,59.858,59.858,59.858  c23.138,0,43.196-13.138,53.159-32.352C484.771,193.715,475.424,196.142,465.503,196.142z"/>
<circle style="fill:#FFD6C4;" cx="456.952" cy="170.489" r="17.102"/>
<circle style="fill:#D9DCDF;" cx="247.449" cy="63.599" r="21.378"/>
<rect x="80.701" y="358.614" style="fill:#DF7A6E;" width="34.205" height="42.756"/>
<rect x="243.173" y="358.614" style="fill:#FFC5BB;" width="42.756" height="42.756"/>
<rect x="114.906" y="401.37" style="fill:#ECEDEF;" width="222.33" height="17.102"/>
<path d="M507.724,161.937c0-6.922-2.057-16.504-6.286-29.296c-1.391-4.204-5.923-6.481-10.129-5.095  c-4.204,1.391-6.484,5.925-5.095,10.129c4.527,13.686,5.477,20.748,5.477,24.263c0,28.585-23.256,51.841-51.841,51.841  c-28.585,0-51.841-23.256-51.841-51.841c0-22.341,32.728-90.79,51.826-128.017c7.806,15.243,20.729,41.148,31.701,66.338  c1.769,4.061,6.496,5.918,10.551,4.148c4.06-1.768,5.916-6.492,4.148-10.551c-17.207-39.499-39.093-80.646-39.311-81.057  c-2.961-5.554-11.189-5.554-14.15,0c-6.222,11.676-60.8,115.062-60.8,149.14c0,6.1,0.822,12.009,2.338,17.637h-93.944  c0.425-0.776,0.848-1.548,1.278-2.331c13.781-25.1,29.401-53.549,29.401-92.266C311.048,38.12,272.928,0,226.071,0  s-84.977,38.12-84.977,84.977c0,8.979,0.856,17.964,2.546,26.703c0.839,4.347,5.046,7.196,9.391,6.349  c4.347-0.839,7.19-5.045,6.349-9.391c-1.517-7.849-2.253-15.588-2.253-23.661c0-38.015,30.928-68.944,68.944-68.944  s68.944,30.928,68.944,68.944c0,34.604-13.94,59.995-27.421,84.551c-10.99,20.018-21.437,39.04-23.512,61.353h-36.019  c-2.076-22.312-12.521-41.335-23.511-61.351c-4.626-8.427-9.411-17.14-13.608-26.243c-1.855-4.021-6.616-5.775-10.637-3.923  c-4.021,1.853-5.776,6.616-3.923,10.637c4.433,9.614,9.355,18.577,14.114,27.245c0.43,0.782,0.852,1.554,1.277,2.329H110.63  c-2.1,0-4.184,0.863-5.669,2.347L6.623,280.26c-1.485,1.487-2.347,3.568-2.347,5.669v218.054c0,4.428,3.588,8.017,8.017,8.017  h94.419c4.428,0,8.017-3.588,8.017-8.017s-3.588-8.017-8.017-8.017H20.309V293.946h90.322c4.428,0,8.017-3.588,8.017-8.017v-90.322  h61.614c7.09,14.251,12.139,27.961,12.139,43.29c0,19.024-15.056,46.176-40.275,72.631c-24.299,25.491-47.162,39.068-54.322,39.068  H80.701c-4.428,0-8.017,3.588-8.017,8.017v42.756c0,4.428,3.588,8.017,8.017,8.017h26.188v34.739c0,4.428,3.588,8.017,8.017,8.017  h222.33c4.428,0,8.017-3.588,8.017-8.017v-34.739h26.188c4.428,0,8.017-3.588,8.017-8.017v-42.756c0-4.428-3.588-8.017-8.017-8.017  h-17.102c-7.161,0-30.023-13.577-54.322-39.068c-25.218-26.455-40.275-53.607-40.275-72.631c0-15.329,5.049-29.04,12.139-43.29  h109.072c10.454,18.214,29.098,31.139,50.88,33.715v266.644H147.329c-4.428,0-8.017,3.588-8.017,8.017S142.9,512,147.329,512H439.85  c4.428,0,8.017-3.588,8.017-8.017V229.323C481.526,225.341,507.724,196.65,507.724,161.937z M102.614,277.912H31.646l70.968-70.968  V277.912z M329.219,436.109H122.923v-26.722h206.296V436.109z M363.424,393.353H88.718V366.63h274.706V393.353z M288.41,322.592  c9.532,9.998,20.647,20.042,31.484,28.005H132.248c10.838-7.963,21.952-18.007,31.484-28.005  c12.366-12.973,39.817-44.803,44.127-75.678h36.424C248.593,277.789,276.044,309.619,288.41,322.592z"/>
<g>
</g>
<g>
</g>
<g>
</g>
<g>
</g>
<g>
</g>
<g>
</g>
<g>
</g>
<g>
</g>
<g>
</g>
<g>
</g>
<g>
</g>
<g>
</g>
<g>
</g>
<g>
</g>
<g>
</g>
</svg>
