<?xml version="1.0" encoding="iso-8859-1"?>
<!-- Generator: Adobe Illustrator 19.0.0, SVG Export Plug-In . SVG Version: 6.00 Build 0)  -->
<svg xmlns="http://www.w3.org/2000/svg" xmlns:xlink="http://www.w3.org/1999/xlink" version="1.1" id="Layer_1" x="0px" y="0px" viewBox="0 0 512 512" style="enable-background:new 0 0 512 512;" xml:space="preserve">
<path style="fill:#FFD791;" d="M332.96,67.875c-94.453,0-171.023,76.569-171.023,171.023s76.57,171.023,171.023,171.023  s171.023-76.569,171.023-171.023S427.413,67.875,332.96,67.875z M332.96,324.409c-47.227,0-85.511-38.285-85.511-85.511  s38.285-85.511,85.511-85.511s85.512,38.285,85.512,85.511S380.187,324.409,332.96,324.409z"/>
<path style="fill:#FF8C78;" d="M333.354,187.592c-61.576-0.214-111.558,49.638-111.558,111.164c0,42.505-34.456,76.96-76.96,76.96  c-34.155,0-63.114-22.249-73.172-53.045c-4.625-14.16-17.588-23.915-32.484-23.915h-14.06c-9.446,0-17.102,7.656-17.102,17.102  v111.165c0,9.446,7.656,17.102,17.102,17.102h196.676h59.858h145.37c9.446,0,17.102-7.656,17.102-17.102v-127.06  C444.125,238.524,394.792,187.804,333.354,187.592z"/>
<g>
	<path style="fill:#DF7A6E;" d="M33.67,427.023V315.858c0-7.76,5.172-14.304,12.256-16.395c-2.189-0.448-4.44-0.708-6.746-0.708   H25.119c-9.446,0-17.102,7.658-17.102,17.102v111.165c0,9.445,7.656,17.102,17.102,17.102h25.653   C41.327,444.125,33.67,436.468,33.67,427.023z"/>
	<circle style="fill:#DF7A6E;" cx="332.96" cy="281.653" r="51.307"/>
</g>
<circle style="fill:#ECEDEF;" cx="332.96" cy="281.653" r="34.205"/>
<path d="M512,238.898c0-60.358-30.117-116.265-80.563-149.547c-3.697-2.44-8.67-1.421-11.107,2.277  c-2.438,3.695-1.419,8.668,2.276,11.106c45.937,30.307,73.36,81.21,73.36,136.164c0,41.532-15.786,81.142-43.825,111.185v-50.12  c0-27.651-9.549-54.54-26.893-76.012c-7.235-44.955-46.49-78.581-92.288-78.581c-22.646,0-44.495,8.201-61.523,23.091  c-16.277,14.234-27.092,33.63-30.663,54.812c-17.409,21.246-26.995,47.948-26.995,75.483c0,13.511-3.971,26.629-11.313,37.806  c-21.026-28.083-32.511-62.387-32.511-97.664c0-89.882,73.124-163.006,163.006-163.006c19.636,0,38.829,3.451,57.046,10.258  c4.147,1.548,8.766-0.557,10.315-4.703c1.55-4.147-0.557-8.766-4.703-10.315C375.6,63.65,354.519,59.858,332.96,59.858  c-87.89,0-161.191,63.659-176.219,147.288c-0.366,0.312-0.712,0.656-1.026,1.043c-0.261,0.321-26.326,32.271-49.894,49.948  c-29.656,22.243-62.157,31.204-67.618,32.601H25.119C11.268,290.739,0,302.007,0,315.858v111.165  c0,13.851,11.268,25.119,25.119,25.119h51.307c4.427,0,8.017-3.588,8.017-8.017s-3.589-8.017-8.017-8.017H25.119  c-5.01,0-9.086-4.076-9.086-9.086V315.858c0-5.01,4.076-9.086,9.086-9.086h14.029c0.009,0,0.016,0.002,0.025,0.002  s0.016-0.001,0.025-0.001c11.271,0.007,21.255,7.395,24.845,18.388c11.444,35.033,43.911,58.571,80.792,58.571  c24.383,0,47.627-10.513,63.772-28.843c0.002-0.002,0.004-0.004,0.006-0.006c13.67-15.525,21.198-35.456,21.198-56.128  c0-24.497,8.744-48.247,24.62-66.872c19.663-23.068,48.271-36.277,78.537-36.277c0.119,0,0.238,0.001,0.357,0.001  c30.115,0.105,58.619,13.54,78.205,36.859c15.85,18.872,24.578,42.842,24.578,67.496v127.06c0,5.01-4.076,9.086-9.086,9.086H119.182  c-4.427,0-8.017,3.588-8.017,8.017s3.589,8.017,8.017,8.017h307.841c13.851,0,25.119-11.268,25.119-25.119v-54.544  C490.224,338.483,512,290.018,512,238.898z M79.283,320.183c-2.837-8.686-8.198-15.962-15.087-21.111  c14.201-5.52,33.059-14.469,51.245-28.108c13.972-10.478,28.329-25.126,38.535-36.324c-0.033,1.415-0.055,2.834-0.055,4.257  c0,39.984,13.433,78.834,37.956,110.211c-12.718,11.879-29.513,18.59-47.042,18.59C114.91,367.699,88.566,348.604,79.283,320.183z   M332.969,179.573c-24.223,0-47.526,7.329-67.114,20.689c13.538-23.329,38.864-38.86,67.105-38.86  c28.508,0,53.952,15.728,67.395,39.337c-19.538-13.579-42.801-21.082-66.974-21.166  C333.243,179.574,333.108,179.573,332.969,179.573z"/>
<path d="M375.182,281.653c0-23.28-18.941-42.221-42.221-42.221c-23.28,0-42.221,18.941-42.221,42.221  c0,23.281,18.941,42.221,42.221,42.221C356.241,323.875,375.182,304.934,375.182,281.653z M306.772,281.653  c0-14.441,11.747-26.188,26.188-26.188c14.441,0,26.188,11.747,26.188,26.188c0,14.441-11.747,26.188-26.188,26.188  C318.52,307.841,306.772,296.094,306.772,281.653z"/>
<path d="M332.96,102.614c-38.716,0-75.74,16.557-101.579,45.426c-2.681,2.995-2.696,7.669-0.019,10.673  c3.139,3.525,8.817,3.539,11.966,0.02c22.802-25.475,55.47-40.086,89.632-40.086c13.758,0,27.245,2.301,40.087,6.841  c4.178,1.474,8.753-0.714,10.23-4.886c1.476-4.174-0.712-8.754-4.886-10.23C363.829,105.224,348.544,102.614,332.96,102.614z"/>
<path d="M461.228,246.914c4.428,0,8.017-3.588,8.017-8.017c0-29.765-9.424-58.044-27.256-81.781  c-2.659-3.54-7.683-4.256-11.224-1.594c-3.54,2.658-4.253,7.683-1.594,11.224c15.728,20.937,24.04,45.887,24.04,72.15  C453.211,243.326,456.799,246.914,461.228,246.914z"/>
<path d="M211.438,196.966c-4.268-1.178-8.683,1.326-9.861,5.595c-3.253,11.778-4.901,24.005-4.901,36.337  c0,6.072,0.404,12.181,1.2,18.158c0.584,4.387,4.779,7.536,9.154,6.866c4.261-0.653,7.309-4.705,6.738-8.983  c-0.703-5.277-1.059-10.674-1.059-16.041c0-10.89,1.454-21.681,4.322-32.072C218.21,202.559,215.705,198.143,211.438,196.966z"/>
<g>
</g>
<g>
</g>
<g>
</g>
<g>
</g>
<g>
</g>
<g>
</g>
<g>
</g>
<g>
</g>
<g>
</g>
<g>
</g>
<g>
</g>
<g>
</g>
<g>
</g>
<g>
</g>
<g>
</g>
</svg>
