<?xml version="1.0" encoding="iso-8859-1"?>
<!-- Generator: Adobe Illustrator 19.0.0, SVG Export Plug-In . SVG Version: 6.00 Build 0)  -->
<svg xmlns="http://www.w3.org/2000/svg" xmlns:xlink="http://www.w3.org/1999/xlink" version="1.1" id="Layer_1" x="0px" y="0px" viewBox="0 0 504.2 504.2" style="enable-background:new 0 0 504.2 504.2;" xml:space="preserve">
<polygon style="fill:#F0B551;" points="34.182,373 254.182,501 254.182,261.4 34.182,133 "/>
<polygon style="fill:#EDC654;" points="254.182,501 474.182,373 474.182,133 254.182,261.4 "/>
<polygon style="fill:#EFDC81;" points="474.182,133 255.782,5 35.382,133 255.782,261.4 "/>
<polygon style="fill:#F4EFEF;" points="164.182,57.8 382.182,182.2 382.182,422.6 342.182,445.8 342.182,207.4 123.782,79.8 "/>
<path d="M252.182,504.2c-0.8,0-1.2,0-2-0.4l-220-128c-1.2-0.8-2-2-2-3.6v-240c0-1.6,0.8-2.8,2-3.6c1.2-0.8,2.8-0.8,4,0l220,128  c1.2,0.8,2,2,2,3.6v240c0,1.6-0.8,2.8-2,3.6C253.382,503.8,252.982,504.2,252.182,504.2z M36.182,369.8l212,123.6V263l-212-123.6  V369.8z"/>
<path d="M252.582,504.2c-1.2,0-2.8-0.8-3.6-2c-1.2-2-0.4-4.4,1.6-5.6l217.6-126.8V139.4l-212.4,124.4c-2,1.2-4.4,0.4-5.6-1.6  c-1.2-2-0.4-4.4,1.6-5.6l218.4-128c1.2-0.8,2.8-0.8,4,0s2,2,2,3.6v240c0,1.6-0.8,2.8-2,3.6l-219.6,128  C254.182,503.8,253.382,504.2,252.582,504.2z"/>
<path d="M32.182,136.2c-1.2,0-2.8-0.8-3.6-2c-1.2-2-0.4-4.4,1.6-5.6l223.6-128c1.2-0.8,2.8-0.8,4,0l216.4,128c2,1.2,2.4,3.6,1.6,5.6  c-1.2,2-3.6,2.4-5.6,1.6L255.782,9l-221.6,126.8C33.382,136.2,32.982,136.2,32.182,136.2z"/>
<path d="M322.982,197.8c-0.8,0-1.2,0-2-0.4l-196.4-114c-2-1.2-2.4-3.6-1.6-5.6s3.6-2.4,5.6-1.6l196.4,114c2,1.2,2.4,3.6,1.6,5.6  C325.782,197,324.582,197.8,322.982,197.8z"/>
<path d="M380.982,187.8c-0.8,0-1.2,0-2-0.4l-215.2-126c-2-1.2-2.4-3.6-1.6-5.6c1.2-2,3.6-2.4,5.6-1.6l215.2,126  c2,1.2,2.4,3.6,1.6,5.6C383.782,187,382.582,187.8,380.982,187.8z"/>
<path d="M340.182,448.6c-2.4,0-4-1.6-4-4v-232c0-2.4,1.6-4,4-4s4,1.6,4,4v232C344.182,447,342.582,448.6,340.182,448.6z"/>
<path d="M380.182,408.6c-2.4,0-4-1.6-4-4v-220c0-2.4,1.6-4,4-4s4,1.6,4,4v220C384.182,407,382.582,408.6,380.182,408.6z"/>
<g>
</g>
<g>
</g>
<g>
</g>
<g>
</g>
<g>
</g>
<g>
</g>
<g>
</g>
<g>
</g>
<g>
</g>
<g>
</g>
<g>
</g>
<g>
</g>
<g>
</g>
<g>
</g>
<g>
</g>
</svg>
