<?xml version="1.0" encoding="iso-8859-1"?>
<!-- Generator: Adobe Illustrator 19.0.0, SVG Export Plug-In . SVG Version: 6.00 Build 0)  -->
<svg xmlns="http://www.w3.org/2000/svg" xmlns:xlink="http://www.w3.org/1999/xlink" version="1.1" id="Layer_1" x="0px" y="0px" viewBox="0 0 512 512" style="enable-background:new 0 0 512 512;" xml:space="preserve">
<g>
	<path style="fill:#FF8C78;" d="M292.785,477.726l-48.568-97.809l85.498-86.843C337.259,317.209,354.336,416.175,292.785,477.726z"/>
	<path style="fill:#FF8C78;" d="M34.274,219.214l97.809,48.568l86.843-85.498C194.79,174.741,95.824,157.663,34.274,219.214z"/>
</g>
<path style="fill:#ECEDEF;" d="M489.747,22.253c-116.946-43.085-196.962,24.62-221.582,49.24  c-35.643,35.643-104.63,141.686-136.084,196.29l56.067,56.067l56.067,56.067c54.603-31.454,160.647-100.441,196.29-136.084  C465.127,219.214,532.833,139.198,489.747,22.253z"/>
<path style="fill:#FF8C78;" d="M489.747,22.253c-73.963-27.25-133.144-10.181-172.891,12.273l160.617,160.617  C499.928,155.395,516.996,96.214,489.747,22.253z"/>
<circle style="fill:#B3B9BF;" cx="372.805" cy="139.196" r="78.341"/>
<circle style="fill:#F7AB49;" cx="372.805" cy="139.196" r="52.227"/>
<circle style="fill:#FFC44F;" cx="372.805" cy="139.196" r="33.872"/>
<polygon style="fill:#68727E;" points="212.769,397.711 114.289,299.23 151.22,286.919 225.08,360.781 "/>
<polygon style="fill:#424F5E;" points="225.08,360.78 151.22,286.92 133.123,292.951 219.048,378.877 "/>
<path style="fill:#FF8C78;" d="M218.991,133.11c-6.657,9.332-13.439,19.107-20.189,29.051l151.037,151.037  c9.945-6.749,19.719-13.532,29.051-20.189L218.991,133.11z"/>
<path style="fill:#D9DCDF;" d="M491.946,28.496c0.532,12.968,0.677,25.913-2.859,37.94c-16.321,48.963-32.642,97.926-67.46,137.097  C368.311,261.2,307.379,310.164,233.391,338.453c-8.09,2.942-16.179,4.395-24.268,6.37l35.096,35.095  c54.603-31.454,160.647-100.441,196.29-136.083C464.686,219.655,530.412,142.043,491.946,28.496z"/>
<g>
	<path style="fill:#DF7A6E;" d="M491.945,28.481c0.533,12.973,0.679,25.924-2.859,37.955   c-11.443,34.329-22.895,68.653-40.713,99.607l29.1,29.1C499.294,156.517,516.023,99.539,491.945,28.481z"/>
	<path style="fill:#DF7A6E;" d="M349.839,313.197c9.946-6.749,19.719-13.532,29.051-20.189l-25.237-25.237   c-9.122,7.384-18.471,14.455-28.061,21.179L349.839,313.197z"/>
</g>
<path style="fill:#F7AB49;" d="M125.106,473.065C101.31,496.86,8.16,503.84,8.16,503.84s6.98-93.151,30.775-116.946  c23.795-23.795,62.376-23.795,86.171,0C148.901,410.689,148.901,449.269,125.106,473.065z"/>
<path style="fill:#FFD791;" d="M112.795,436.134c-10.198,10.198-61.551,24.62-61.551,24.62s14.422-51.353,24.62-61.551  c10.198-10.198,26.733-10.198,36.93,0C122.994,409.402,122.994,425.936,112.795,436.134z"/>
<path d="M497.405,19.431c-0.826-2.243-2.594-4.011-4.836-4.835C374.476-28.912,292.261,35.857,262.395,65.722  c-19.512,19.513-48.979,59.843-77.143,101.901c-18.618-2.004-45.268-2.854-73.492,2.871c-33.554,6.807-61.566,21.257-83.258,42.949  c-3.882,3.883-2.769,10.641,2.141,13.08l96.612,47.974l8.856,8.856l-24.404,8.134c-5.648,1.883-7.406,9.294-3.19,13.513  l98.481,98.481c4.217,4.217,11.63,2.453,13.512-3.19l8.134-24.404l8.857,8.857l47.974,96.612c2.438,4.91,9.195,6.022,13.08,2.141  c49.205-49.206,49.878-119.139,45.824-156.752c42.058-28.163,82.386-57.629,101.898-77.14  C476.143,219.738,540.912,137.525,497.405,19.431z M483.369,28.631c22.236,63.358,10.806,115.352-7.916,152.952L456.13,162.26  c7.983-29.038,0.61-61.453-22.164-84.228c-22.776-22.774-55.189-30.146-84.229-22.163l-19.322-19.322  C368.017,17.825,420.011,6.395,483.369,28.631z M422.426,89.573c27.363,27.363,27.363,71.887,0,99.25  c-13.684,13.684-31.651,20.524-49.625,20.522c-17.969-0.001-35.945-6.842-49.625-20.522c-27.363-27.363-27.363-71.887,0-99.25  S395.063,62.209,422.426,89.573z M350.809,302.626l-47.052-47.052c-3.187-3.186-8.354-3.186-11.54,0  c-3.187,3.188-3.187,8.354,0,11.541l44.84,44.84c-31.985,21.485-65.384,42.487-91.507,57.754l-103.259-103.26  c15.266-26.121,36.269-59.521,57.754-91.507l65.242,65.242c3.187,3.186,8.354,3.186,11.54,0c3.187-3.188,3.187-8.354,0-11.541  l-67.453-67.453c3.588-5.236,7.168-10.395,10.716-15.443L366.253,291.91C361.205,295.458,356.044,299.038,350.809,302.626z   M175.015,183.074c-17.366,26.477-33.673,52.712-46.146,74.001L48.55,217.192C88.461,183.727,140.476,180.496,175.015,183.074z   M209.204,382.603l-79.808-79.808l19.619-6.539l66.727,66.728L209.204,382.603z M294.804,463.445l-39.88-80.313  c21.288-12.473,47.519-28.778,73.993-46.143C331.381,370.534,328.461,423.238,294.804,463.445z M379.733,282.309L229.69,132.267  c17.01-23.555,32.716-43.474,44.245-55.004c8.954-8.954,22.991-21.298,41.589-32.529l17.602,17.603  c-7.743,3.99-15.01,9.213-21.492,15.694c-33.727,33.728-33.727,88.606,0,122.334c16.864,16.863,39.014,25.294,61.166,25.294  c22.152,0,44.302-8.431,61.166-25.294c6.482-6.482,11.704-13.749,15.694-21.492l17.603,17.603  c-11.231,18.597-23.574,32.633-32.528,41.587C423.207,249.593,403.288,265.299,379.733,282.309z"/>
<path d="M330.1,181.9c11.774,11.773,27.234,17.659,42.7,17.658c15.461-0.002,30.929-5.888,42.7-17.658  c11.406-11.405,17.688-26.571,17.688-42.701s-6.281-31.296-17.688-42.701c-3.187-3.186-8.354-3.186-11.54,0  c-3.187,3.188-3.187,8.354,0,11.541c8.323,8.323,12.907,19.388,12.907,31.16s-4.584,22.836-12.907,31.16  s-19.389,12.907-31.16,12.907s-22.836-4.584-31.16-12.907c-17.182-17.182-17.182-45.137,0-62.319  c8.722-8.723,20.817-13.384,33.125-12.864c4.502,0.222,8.314-3.289,8.514-7.791c0.199-4.504-3.289-8.315-7.792-8.513  c-16.893-0.75-33.436,5.675-45.388,17.627C306.556,120.042,306.556,158.354,330.1,181.9z"/>
<circle cx="391.27" cy="139.196" r="13.057"/>
<path d="M33.165,381.123c-3.187,3.188-3.187,8.354,0,11.541c3.186,3.186,8.353,3.186,11.54,0c20.576-20.575,54.054-20.575,74.631,0  c9.967,9.967,15.456,23.219,15.456,37.314c0,14.096-5.489,27.349-15.456,37.315c-15.812,15.812-72.279,24.503-102.141,27.543  c1.673-16.107,5.852-49.278,13.898-74.773c1.357-4.298-1.028-8.882-5.326-10.239c-4.298-1.358-8.882,1.028-10.239,5.326  C3.982,451.738,0.178,501.145,0.022,503.23c-0.368,4.908,3.845,9.106,8.748,8.748c9.843-0.739,96.898-7.934,122.106-33.143  c13.05-13.05,20.237-30.401,20.237-48.857c0-18.455-7.187-35.805-20.237-48.855C103.936,354.185,60.103,354.185,33.165,381.123z"/>
<path d="M53.452,468.612c8.919-2.505,53.972-15.564,65.114-26.707c6.474-6.473,10.039-15.081,10.039-24.236  c0-9.155-3.565-17.762-10.039-24.236c-13.364-13.363-35.108-13.362-48.47,0.001c-11.143,11.143-24.202,56.196-26.707,65.114  C41.7,464.566,47.43,470.299,53.452,468.612z M81.635,404.975c5.309-5.309,13.636-6.744,20.417-3.514  c6.767,3.222,10.86,10.5,10.148,17.949c-0.395,4.127-2.246,8.025-5.176,10.955v0.001c-4.7,4.699-25.139,12.362-43.613,18.223  C69.27,430.115,76.932,409.678,81.635,404.975z"/>
<g>
</g>
<g>
</g>
<g>
</g>
<g>
</g>
<g>
</g>
<g>
</g>
<g>
</g>
<g>
</g>
<g>
</g>
<g>
</g>
<g>
</g>
<g>
</g>
<g>
</g>
<g>
</g>
<g>
</g>
</svg>
