<?xml version="1.0" encoding="iso-8859-1"?>
<!-- Generator: Adobe Illustrator 19.0.0, SVG Export Plug-In . SVG Version: 6.00 Build 0)  -->
<svg xmlns="http://www.w3.org/2000/svg" xmlns:xlink="http://www.w3.org/1999/xlink" version="1.1" id="Layer_1" x="0px" y="0px" viewBox="0 0 512 512" style="enable-background:new 0 0 512 512;" xml:space="preserve">
<path style="fill:#C4DF64;" d="M486.881,461.228H25.119c-9.446,0-17.102-7.656-17.102-17.102V196.142  c0-9.446,7.656-17.102,17.102-17.102h461.762c9.446,0,17.102,7.656,17.102,17.102v247.983  C503.983,453.571,496.327,461.228,486.881,461.228z"/>
<path style="fill:#A6C451;" d="M25.119,435.574V179.04c-9.445,0-17.102,7.658-17.102,17.102v247.983  c0,9.445,7.658,17.102,17.102,17.102h461.762c9.445,0,17.102-7.658,17.102-17.102H33.67  C28.948,444.125,25.119,440.296,25.119,435.574z"/>
<path style="fill:#8E959F;" d="M379.992,132.008c-7.084,0-12.827-5.743-12.827-12.827V50.772c0-7.084,5.743-12.827,12.827-12.827  c7.084,0,12.827,5.743,12.827,12.827v68.409C392.818,126.265,387.075,132.008,379.992,132.008z"/>
<rect x="307.307" y="179.04" style="fill:#A6C451;" width="171.023" height="282.188"/>
<path style="fill:#FF8C78;" d="M444.125,503.983H341.511c-9.446,0-17.102-7.656-17.102-17.102V144.835  c0-9.446,7.656-17.102,17.102-17.102h102.614c9.446,0,17.102,7.656,17.102,17.102v342.046  C461.228,496.327,453.571,503.983,444.125,503.983z"/>
<path style="fill:#DF7A6E;" d="M358.614,478.33c-4.722,0-8.551-3.829-8.551-8.551V127.733h-8.551  c-9.445,0-17.102,7.658-17.102,17.102v342.046c0,9.445,7.658,17.102,17.102,17.102h102.614c9.445,0,17.102-7.658,17.102-17.102  v-8.551H358.614z"/>
<rect x="84.977" y="213.244" style="fill:#D9DCDF;" width="162.472" height="34.205"/>
<g>
	<rect x="84.977" y="281.653" style="fill:#FF8C78;" width="25.653" height="25.653"/>
	<rect x="153.386" y="281.653" style="fill:#FF8C78;" width="25.653" height="25.653"/>
	<rect x="221.795" y="281.653" style="fill:#FF8C78;" width="25.653" height="25.653"/>
	<rect x="84.977" y="341.511" style="fill:#FF8C78;" width="25.653" height="25.653"/>
	<rect x="153.386" y="341.511" style="fill:#FF8C78;" width="25.653" height="25.653"/>
	<rect x="221.795" y="341.511" style="fill:#FF8C78;" width="25.653" height="25.653"/>
	<rect x="84.977" y="401.37" style="fill:#FF8C78;" width="25.653" height="25.653"/>
	<rect x="153.386" y="401.37" style="fill:#FF8C78;" width="25.653" height="25.653"/>
	<rect x="221.795" y="401.37" style="fill:#FF8C78;" width="25.653" height="25.653"/>
</g>
<path style="fill:#D9DCDF;" d="M273.102,8.017c-14.168,0-25.653,11.485-25.653,25.653v34.205h51.307V33.67  C298.756,19.502,287.27,8.017,273.102,8.017z"/>
<path style="fill:#F6F6F7;" d="M273.102,8.017H110.63c-14.168,0-25.653,11.485-25.653,25.653v145.37h162.472V33.67  C247.449,19.502,258.934,8.017,273.102,8.017z"/>
<path d="M486.881,171.023h-17.637v-26.188c0-13.851-11.268-25.119-25.119-25.119h-43.317c0.012-0.177,0.027-0.354,0.027-0.534  V50.772c0-11.493-9.351-20.843-20.843-20.843c-11.493,0-20.843,9.351-20.843,20.843v68.409c0,0.181,0.015,0.357,0.027,0.534h-17.663  c-13.851,0-25.119,11.268-25.119,25.119v26.188h-60.927V75.891h43.29c4.428,0,8.017-3.588,8.017-8.017V33.67  c0-18.566-15.105-33.67-33.67-33.67H110.63C92.065,0,76.96,15.105,76.96,33.67v25.653c0,4.428,3.588,8.017,8.017,8.017  c4.428,0,8.017-3.588,8.017-8.017V33.67c0-9.725,7.912-17.637,17.637-17.637h133.8c-3.269,5.249-4.998,11.459-4.998,17.637v34.205  v103.148H92.994v-68.944c0-4.428-3.588-8.017-8.017-8.017c-4.428,0-8.017,3.588-8.017,8.017v68.944H25.119  C11.268,171.023,0,182.291,0,196.142v247.983c0,13.851,11.268,25.119,25.119,25.119h85.511c4.428,0,8.017-3.588,8.017-8.017  s-3.588-8.017-8.017-8.017H25.119c-5.01,0-9.086-4.076-9.086-9.086V196.142c0-5.01,4.076-9.086,9.086-9.086h291.273v266.155H153.386  c-4.428,0-8.017,3.588-8.017,8.017s3.588,8.017,8.017,8.017h163.006v17.637c0,13.851,11.268,25.119,25.119,25.119h102.614  c13.851,0,25.119-11.268,25.119-25.119v-17.637h17.637c13.851,0,25.119-11.268,25.119-25.119V196.142  C512,182.291,500.732,171.023,486.881,171.023z M290.739,33.67v26.188h-35.273V33.67c0-9.725,7.912-17.637,17.637-17.637  C282.827,16.033,290.739,23.945,290.739,33.67z M375.182,119.182V50.772c0-2.652,2.158-4.81,4.81-4.81c2.652,0,4.81,2.158,4.81,4.81  v68.409c0,0.181,0.015,0.357,0.027,0.534h-9.673C375.167,119.539,375.182,119.362,375.182,119.182z M495.967,444.125  c0,5.01-4.076,9.086-9.086,9.086h-17.637V401.37c0-4.428-3.588-8.017-8.017-8.017s-8.017,3.588-8.017,8.017v85.511  c0,5.01-4.076,9.086-9.086,9.086H341.511c-5.01,0-9.086-4.076-9.086-9.086V144.835c0-5.01,4.076-9.086,9.086-9.086h102.614  c5.01,0,9.086,4.076,9.086,9.086v213.779c0,4.428,3.588,8.017,8.017,8.017s8.017-3.588,8.017-8.017V187.056h17.637  c5.01,0,9.086,4.076,9.086,9.086V444.125z"/>
<path d="M255.466,213.244c0-4.428-3.588-8.017-8.017-8.017H84.977c-4.428,0-8.017,3.588-8.017,8.017v34.205  c0,4.428,3.588,8.017,8.017,8.017h162.472c4.428,0,8.017-3.588,8.017-8.017V213.244z M239.432,239.432H92.994v-18.171h146.438  V239.432z"/>
<path d="M110.63,273.637H84.977c-4.428,0-8.017,3.588-8.017,8.017v25.653c0,4.428,3.588,8.017,8.017,8.017h25.653  c4.428,0,8.017-3.588,8.017-8.017v-25.653C118.647,277.225,115.059,273.637,110.63,273.637z M102.614,299.29h-9.62v-9.62h9.62  V299.29z"/>
<path d="M187.056,281.653c0-4.428-3.588-8.017-8.017-8.017h-25.653c-4.428,0-8.017,3.588-8.017,8.017v25.653  c0,4.428,3.588,8.017,8.017,8.017h25.653c4.428,0,8.017-3.588,8.017-8.017V281.653z M171.023,299.29h-9.62v-9.62h9.62V299.29z"/>
<path d="M255.466,281.653c0-4.428-3.588-8.017-8.017-8.017h-25.653c-4.428,0-8.017,3.588-8.017,8.017v25.653  c0,4.428,3.588,8.017,8.017,8.017h25.653c4.428,0,8.017-3.588,8.017-8.017V281.653z M239.432,299.29h-9.62v-9.62h9.62V299.29z"/>
<path d="M110.63,333.495H84.977c-4.428,0-8.017,3.588-8.017,8.017v25.653c0,4.428,3.588,8.017,8.017,8.017h25.653  c4.428,0,8.017-3.588,8.017-8.017v-25.653C118.647,337.083,115.059,333.495,110.63,333.495z M102.614,359.148h-9.62v-9.62h9.62  V359.148z"/>
<path d="M187.056,341.511c0-4.428-3.588-8.017-8.017-8.017h-25.653c-4.428,0-8.017,3.588-8.017,8.017v25.653  c0,4.428,3.588,8.017,8.017,8.017h25.653c4.428,0,8.017-3.588,8.017-8.017V341.511z M171.023,359.148h-9.62v-9.62h9.62V359.148z"/>
<path d="M255.466,341.511c0-4.428-3.588-8.017-8.017-8.017h-25.653c-4.428,0-8.017,3.588-8.017,8.017v25.653  c0,4.428,3.588,8.017,8.017,8.017h25.653c4.428,0,8.017-3.588,8.017-8.017V341.511z M239.432,359.148h-9.62v-9.62h9.62V359.148z"/>
<path d="M110.63,393.353H84.977c-4.428,0-8.017,3.588-8.017,8.017v25.653c0,4.428,3.588,8.017,8.017,8.017h25.653  c4.428,0,8.017-3.588,8.017-8.017V401.37C118.647,396.941,115.059,393.353,110.63,393.353z M102.614,419.006h-9.62v-9.62h9.62  V419.006z"/>
<path d="M179.04,393.353h-25.653c-4.428,0-8.017,3.588-8.017,8.017v25.653c0,4.428,3.588,8.017,8.017,8.017h25.653  c4.428,0,8.017-3.588,8.017-8.017V401.37C187.056,396.941,183.468,393.353,179.04,393.353z M171.023,419.006h-9.62v-9.62h9.62  V419.006z"/>
<path d="M247.449,393.353h-25.653c-4.428,0-8.017,3.588-8.017,8.017v25.653c0,4.428,3.588,8.017,8.017,8.017h25.653  c4.428,0,8.017-3.588,8.017-8.017V401.37C255.466,396.941,251.877,393.353,247.449,393.353z M239.432,419.006h-9.62v-9.62h9.62  V419.006z"/>
<path d="M127.733,75.891h76.96c4.428,0,8.017-3.588,8.017-8.017s-3.588-8.017-8.017-8.017h-76.96c-4.428,0-8.017,3.588-8.017,8.017  S123.304,75.891,127.733,75.891z"/>
<path d="M127.733,110.096h76.96c4.428,0,8.017-3.588,8.017-8.017c0-4.428-3.588-8.017-8.017-8.017h-76.96  c-4.428,0-8.017,3.588-8.017,8.017C119.716,106.508,123.304,110.096,127.733,110.096z"/>
<path d="M127.733,144.301h76.96c4.428,0,8.017-3.588,8.017-8.017c0-4.428-3.588-8.017-8.017-8.017h-76.96  c-4.428,0-8.017,3.588-8.017,8.017C119.716,140.712,123.304,144.301,127.733,144.301z"/>
<g>
</g>
<g>
</g>
<g>
</g>
<g>
</g>
<g>
</g>
<g>
</g>
<g>
</g>
<g>
</g>
<g>
</g>
<g>
</g>
<g>
</g>
<g>
</g>
<g>
</g>
<g>
</g>
<g>
</g>
</svg>
