<?xml version="1.0" encoding="iso-8859-1"?>
<!-- Generator: Adobe Illustrator 19.0.0, SVG Export Plug-In . SVG Version: 6.00 Build 0)  -->
<svg xmlns="http://www.w3.org/2000/svg" xmlns:xlink="http://www.w3.org/1999/xlink" version="1.1" id="Layer_1" x="0px" y="0px" viewBox="0 0 512 512" style="enable-background:new 0 0 512 512;" xml:space="preserve">
<path style="fill:#509FE8;" d="M332.96,503.983H179.04c-18.891,0-34.205-15.314-34.205-34.205V161.937h222.33v307.841  C367.165,488.669,351.851,503.983,332.96,503.983z"/>
<path style="fill:#4D8CCF;" d="M161.937,469.779V161.937h-17.102v307.841c0,18.891,15.314,34.205,34.205,34.205h17.102  C177.251,503.983,161.937,488.669,161.937,469.779z"/>
<rect x="187.591" y="204.693" style="fill:#B3B9BF;" width="136.818" height="239.432"/>
<rect x="170.489" y="127.733" style="fill:#8E959F;" width="171.023" height="34.205"/>
<g>
	<rect x="187.591" y="8.017" style="fill:#D9DCDF;" width="136.818" height="119.716"/>
	<rect x="213.244" y="33.67" style="fill:#D9DCDF;" width="25.653" height="25.653"/>
	<rect x="273.102" y="33.67" style="fill:#D9DCDF;" width="25.653" height="25.653"/>
</g>
<rect x="204.693" y="221.795" style="fill:#ECEDEF;" width="102.614" height="205.228"/>
<circle style="fill:#8E959F;" cx="256" cy="392.818" r="17.102"/>
<rect x="170.489" y="144.835" style="fill:#68727E;" width="171.023" height="17.102"/>
<path d="M367.165,153.921h-17.637v-26.188c0-4.428-3.588-8.017-8.017-8.017h-9.086V8.017c0-4.428-3.588-8.017-8.017-8.017H187.591  c-4.428,0-8.017,3.588-8.017,8.017v111.699h-9.086c-4.428,0-8.017,3.588-8.017,8.017v26.188h-17.637  c-4.428,0-8.017,3.588-8.017,8.017v222.33c0,4.428,3.588,8.017,8.017,8.017c4.428,0,8.017-3.588,8.017-8.017V169.954h206.296  v299.825c0,14.441-11.747,26.188-26.188,26.188H179.04c-14.441,0-26.188-11.747-26.188-26.188v-42.756  c0-4.428-3.588-8.017-8.017-8.017c-4.428,0-8.017,3.588-8.017,8.017v42.756c0,23.28,18.941,42.221,42.221,42.221H332.96  c23.281,0,42.221-18.941,42.221-42.221V161.937C375.182,157.509,371.593,153.921,367.165,153.921z M195.608,16.033h120.785v103.683  H195.608V16.033z M178.505,153.921v-18.171h9.086h136.818h9.086v18.171H178.505z"/>
<path d="M247.449,196.676h-59.858c-4.428,0-8.017,3.588-8.017,8.017v239.432c0,4.428,3.588,8.017,8.017,8.017h136.818  c4.428,0,8.017-3.588,8.017-8.017V204.693c0-4.428-3.588-8.017-8.017-8.017h-34.205c-4.428,0-8.017,3.588-8.017,8.017  s3.588,8.017,8.017,8.017h26.188v223.399H195.608V212.71h51.841c4.428,0,8.017-3.588,8.017-8.017S251.877,196.676,247.449,196.676z"/>
<path d="M238.898,25.653h-25.653c-4.428,0-8.017,3.588-8.017,8.017v25.653c0,4.428,3.588,8.017,8.017,8.017h25.653  c4.428,0,8.017-3.588,8.017-8.017V33.67C246.914,29.242,243.326,25.653,238.898,25.653z M230.881,51.307h-9.62v-9.62h9.62V51.307z"/>
<path d="M298.756,25.653h-25.653c-4.428,0-8.017,3.588-8.017,8.017v25.653c0,4.428,3.588,8.017,8.017,8.017h25.653  c4.428,0,8.017-3.588,8.017-8.017V33.67C306.772,29.242,303.184,25.653,298.756,25.653z M290.739,51.307h-9.62v-9.62h9.62V51.307z"/>
<path d="M256,230.881c-4.428,0-8.017,3.588-8.017,8.017v63.782c-4.303-2.743-8.313-5.938-11.967-9.593  c-6.625-6.624-11.792-14.374-15.358-23.037c-1.686-4.093-6.37-6.045-10.466-4.361c-4.094,1.686-6.046,6.372-4.361,10.466  c4.377,10.629,10.718,20.141,18.847,28.27c6.841,6.84,14.668,12.395,23.306,16.597v47.997c-9.93,3.354-17.102,12.752-17.102,23.8  c0,13.851,11.268,25.119,25.119,25.119c13.851,0,25.119-11.268,25.119-25.119c0-11.047-7.172-20.445-17.102-23.8V346.81  c8.848-4.099,16.899-9.867,23.495-16.93c12.484-13.365,17.294-28.171,19.129-38.236c0.795-4.356-2.092-8.531-6.447-9.326  c-4.361-0.791-8.531,2.092-9.326,6.447c-1.452,7.956-5.245,19.648-15.076,30.173c-3.462,3.707-7.446,6.949-11.778,9.67v-89.709  C264.017,234.469,260.428,230.881,256,230.881z M256,401.904c-5.01,0-9.086-4.076-9.086-9.086s4.076-9.086,9.086-9.086  c5.01,0,9.086,4.076,9.086,9.086S261.01,401.904,256,401.904z"/>
<g>
</g>
<g>
</g>
<g>
</g>
<g>
</g>
<g>
</g>
<g>
</g>
<g>
</g>
<g>
</g>
<g>
</g>
<g>
</g>
<g>
</g>
<g>
</g>
<g>
</g>
<g>
</g>
<g>
</g>
</svg>
