<?xml version="1.0" encoding="iso-8859-1"?>
<!-- Generator: Adobe Illustrator 19.0.0, SVG Export Plug-In . SVG Version: 6.00 Build 0)  -->
<svg xmlns="http://www.w3.org/2000/svg" xmlns:xlink="http://www.w3.org/1999/xlink" version="1.1" id="Layer_1" x="0px" y="0px" viewBox="0 0 512 512" style="enable-background:new 0 0 512 512;" xml:space="preserve">
<path style="fill:#ECEDEF;" d="M461.228,503.983H50.772c-9.446,0-17.102-7.656-17.102-17.102V247.449  c0-9.446,7.656-17.102,17.102-17.102h410.455c9.446,0,17.102,7.656,17.102,17.102v239.432  C478.33,496.327,470.673,503.983,461.228,503.983z"/>
<path style="fill:#B3B9BF;" d="M478.33,247.449c0-9.445-7.656-17.102-17.102-17.102H50.772c-9.446,0-17.102,7.658-17.102,17.102  v34.205h444.66V247.449z"/>
<path style="fill:#ECEDEF;" d="M33.67,281.653v205.228c0,9.445,7.656,17.102,17.102,17.102h410.455  c9.446,0,17.102-7.658,17.102-17.102V281.653H33.67z"/>
<path style="fill:#F6F6F7;" d="M461.228,281.653v205.228c0,9.445-7.656,17.102-17.102,17.102h17.102  c9.446,0,17.102-7.658,17.102-17.102V281.653H461.228z"/>
<path style="fill:#8E959F;" d="M67.875,230.347H50.772c-9.446,0-17.102,7.658-17.102,17.102v34.205h17.102v-34.205  C50.772,238.004,58.429,230.347,67.875,230.347z"/>
<path style="fill:#D9DCDF;" d="M50.772,486.881V281.653H33.67v205.228c0,9.445,7.656,17.102,17.102,17.102h17.102  C58.429,503.983,50.772,496.326,50.772,486.881z"/>
<g>
	<rect x="67.875" y="307.307" style="fill:#FF8C78;" width="34.205" height="34.205"/>
	<rect x="136.284" y="307.307" style="fill:#FF8C78;" width="34.205" height="34.205"/>
	<rect x="204.693" y="307.307" style="fill:#FF8C78;" width="34.205" height="34.205"/>
	<rect x="273.102" y="307.307" style="fill:#FF8C78;" width="34.205" height="34.205"/>
	<rect x="341.511" y="307.307" style="fill:#FF8C78;" width="34.205" height="34.205"/>
	<rect x="67.875" y="375.716" style="fill:#FF8C78;" width="34.205" height="34.205"/>
	<rect x="136.284" y="444.125" style="fill:#FF8C78;" width="34.205" height="34.205"/>
	<rect x="341.511" y="444.125" style="fill:#FF8C78;" width="34.205" height="34.205"/>
	<rect x="136.284" y="375.716" style="fill:#FF8C78;" width="34.205" height="34.205"/>
	<rect x="204.693" y="375.716" style="fill:#FF8C78;" width="34.205" height="34.205"/>
	<rect x="273.102" y="375.716" style="fill:#FF8C78;" width="34.205" height="34.205"/>
	<polygon style="fill:#FF8C78;" points="409.921,307.307 409.921,375.716 341.511,375.716 341.511,409.921 444.125,409.921    444.125,307.307  "/>
	<rect x="204.693" y="444.125" style="fill:#FF8C78;" width="102.614" height="34.205"/>
</g>
<path d="M461.228,222.33H264.017v-17.637c0-14.441,11.747-26.188,26.188-26.188h68.409c23.28,0,42.221-18.941,42.221-42.221  s-18.941-42.221-42.221-42.221H221.795c-14.44,0-26.188-11.747-26.188-26.188V8.017c0-4.428-3.589-8.017-8.017-8.017  s-8.017,3.588-8.017,8.017v59.858c0,23.281,18.941,42.221,42.221,42.221h136.818c14.441,0,26.188,11.747,26.188,26.188  c0,14.441-11.747,26.188-26.188,26.188h-68.409c-23.28,0-42.221,18.941-42.221,42.221v17.637H50.772  c-13.851,0-25.119,11.268-25.119,25.119v171.023c0,4.428,3.589,8.017,8.017,8.017s8.017-3.588,8.017-8.017V289.67h342.58  c4.428,0,8.017-3.588,8.017-8.017s-3.588-8.017-8.017-8.017H41.687v-26.188c0-5.01,4.076-9.086,9.086-9.086h410.455  c5.01,0,9.086,4.076,9.086,9.086v26.188h-43.29c-4.428,0-8.017,3.588-8.017,8.017s3.588,8.017,8.017,8.017h43.29v197.211  c0,5.01-4.076,9.086-9.086,9.086H50.772c-5.01,0-9.086-4.076-9.086-9.086v-25.653c0-4.428-3.589-8.017-8.017-8.017  s-8.017,3.588-8.017,8.017v25.653c0,13.851,11.268,25.119,25.119,25.119h410.455c13.851,0,25.119-11.268,25.119-25.119V247.449  C486.347,233.598,475.078,222.33,461.228,222.33z"/>
<path d="M67.875,349.528h34.205c4.427,0,8.017-3.588,8.017-8.017v-34.205c0-4.428-3.589-8.017-8.017-8.017H67.875  c-4.427,0-8.017,3.588-8.017,8.017v34.205C59.858,345.94,63.447,349.528,67.875,349.528z M75.891,315.324h18.171v18.171H75.891  V315.324z"/>
<path d="M136.284,349.528h34.205c4.427,0,8.017-3.588,8.017-8.017v-34.205c0-4.428-3.589-8.017-8.017-8.017h-34.205  c-4.427,0-8.017,3.588-8.017,8.017v34.205C128.267,345.94,131.857,349.528,136.284,349.528z M144.301,315.324h18.171v18.171h-18.171  V315.324z"/>
<path d="M204.693,349.528h34.205c4.427,0,8.017-3.588,8.017-8.017v-34.205c0-4.428-3.589-8.017-8.017-8.017h-34.205  c-4.427,0-8.017,3.588-8.017,8.017v34.205C196.676,345.94,200.266,349.528,204.693,349.528z M212.71,315.324h18.171v18.171H212.71  V315.324z"/>
<path d="M273.102,349.528h34.205c4.428,0,8.017-3.588,8.017-8.017v-34.205c0-4.428-3.588-8.017-8.017-8.017h-34.205  c-4.428,0-8.017,3.588-8.017,8.017v34.205C265.086,345.94,268.674,349.528,273.102,349.528z M281.119,315.324h18.171v18.171h-18.171  V315.324z"/>
<path d="M341.511,349.528h34.205c4.428,0,8.017-3.588,8.017-8.017v-34.205c0-4.428-3.588-8.017-8.017-8.017h-34.205  c-4.428,0-8.017,3.588-8.017,8.017v34.205C333.495,345.94,337.083,349.528,341.511,349.528z M349.528,315.324h18.171v18.171h-18.171  V315.324z"/>
<path d="M59.858,409.921c0,4.428,3.589,8.017,8.017,8.017h34.205c4.427,0,8.017-3.588,8.017-8.017v-34.205  c0-4.428-3.589-8.017-8.017-8.017H67.875c-4.427,0-8.017,3.588-8.017,8.017V409.921z M75.891,383.733h18.171v18.171H75.891V383.733z  "/>
<path d="M128.267,478.33c0,4.428,3.589,8.017,8.017,8.017h34.205c4.427,0,8.017-3.588,8.017-8.017v-34.205  c0-4.428-3.589-8.017-8.017-8.017h-34.205c-4.427,0-8.017,3.588-8.017,8.017V478.33z M144.301,452.142h18.171v18.171h-18.171  V452.142z"/>
<path d="M333.495,478.33c0,4.428,3.588,8.017,8.017,8.017h34.205c4.428,0,8.017-3.588,8.017-8.017v-34.205  c0-4.428-3.588-8.017-8.017-8.017h-34.205c-4.428,0-8.017,3.588-8.017,8.017V478.33z M349.528,452.142h18.171v18.171h-18.171  V452.142z"/>
<path d="M128.267,409.921c0,4.428,3.589,8.017,8.017,8.017h34.205c4.427,0,8.017-3.588,8.017-8.017v-34.205  c0-4.428-3.589-8.017-8.017-8.017h-34.205c-4.427,0-8.017,3.588-8.017,8.017V409.921z M144.301,383.733h18.171v18.171h-18.171  V383.733z"/>
<path d="M196.676,409.921c0,4.428,3.589,8.017,8.017,8.017h34.205c4.427,0,8.017-3.588,8.017-8.017v-34.205  c0-4.428-3.589-8.017-8.017-8.017h-34.205c-4.427,0-8.017,3.588-8.017,8.017V409.921z M212.71,383.733h18.171v18.171H212.71V383.733  z"/>
<path d="M265.086,409.921c0,4.428,3.588,8.017,8.017,8.017h34.205c4.428,0,8.017-3.588,8.017-8.017v-34.205  c0-4.428-3.588-8.017-8.017-8.017h-34.205c-4.428,0-8.017,3.588-8.017,8.017V409.921z M281.119,383.733h18.171v18.171h-18.171  V383.733z"/>
<path d="M333.495,409.921c0,4.428,3.588,8.017,8.017,8.017h102.614c4.428,0,8.017-3.588,8.017-8.017V307.307  c0-4.428-3.588-8.017-8.017-8.017h-34.205c-4.428,0-8.017,3.588-8.017,8.017v60.392h-60.392c-4.428,0-8.017,3.588-8.017,8.017  V409.921z M349.528,383.733h60.392c4.428,0,8.017-3.588,8.017-8.017v-60.392h18.171v86.58h-86.58V383.733z"/>
<path d="M196.676,478.33c0,4.428,3.589,8.017,8.017,8.017h102.614c4.428,0,8.017-3.588,8.017-8.017v-34.205  c0-4.428-3.588-8.017-8.017-8.017H204.693c-4.427,0-8.017,3.588-8.017,8.017V478.33z M212.71,452.142h86.58v18.171h-86.58V452.142z"/>
<path d="M170.489,247.983c-4.427,0-8.017,3.588-8.017,8.017c0,4.428,3.589,8.017,8.017,8.017h17.102  c4.427,0,8.017-3.588,8.017-8.017c0-4.428-3.589-8.017-8.017-8.017H170.489z"/>
<path d="M221.795,247.983c-4.427,0-8.017,3.588-8.017,8.017c0,4.428,3.589,8.017,8.017,8.017h17.102  c4.427,0,8.017-3.588,8.017-8.017c0-4.428-3.589-8.017-8.017-8.017H221.795z"/>
<path d="M273.102,247.983c-4.428,0-8.017,3.588-8.017,8.017c0,4.428,3.588,8.017,8.017,8.017h17.102  c4.428,0,8.017-3.588,8.017-8.017c0-4.428-3.588-8.017-8.017-8.017H273.102z"/>
<path d="M324.409,247.983c-4.428,0-8.017,3.588-8.017,8.017c0,4.428,3.588,8.017,8.017,8.017h17.102  c4.428,0,8.017-3.588,8.017-8.017c0-4.428-3.588-8.017-8.017-8.017H324.409z"/>
<g>
</g>
<g>
</g>
<g>
</g>
<g>
</g>
<g>
</g>
<g>
</g>
<g>
</g>
<g>
</g>
<g>
</g>
<g>
</g>
<g>
</g>
<g>
</g>
<g>
</g>
<g>
</g>
<g>
</g>
</svg>
