<?xml version="1.0" encoding="iso-8859-1"?>
<!-- Generator: Adobe Illustrator 19.0.0, SVG Export Plug-In . SVG Version: 6.00 Build 0)  -->
<svg xmlns="http://www.w3.org/2000/svg" xmlns:xlink="http://www.w3.org/1999/xlink" version="1.1" id="Layer_1" x="0px" y="0px" viewBox="0 0 512 512" style="enable-background:new 0 0 512 512;" xml:space="preserve">
<path style="fill:#FF8C78;" d="M332.96,503.983H230.347c-37.781,0-68.409-30.628-68.409-68.409V264.551  c0-56.672,45.942-102.614,102.614-102.614h34.205c56.672,0,102.614,45.942,102.614,102.614v171.023  C401.37,473.355,370.741,503.983,332.96,503.983z"/>
<path style="fill:#DF7A6E;" d="M204.693,435.574V264.551c0-55.239,43.65-100.276,98.338-102.519  c-1.418-0.059-2.842-0.095-4.276-0.095h-34.205c-56.672,0-102.614,45.942-102.614,102.614v171.023  c0,37.781,30.628,68.409,68.409,68.409h42.756C235.321,503.983,204.693,473.355,204.693,435.574z"/>
<path style="fill:#FFC44F;" d="M281.653,264.551L281.653,264.551c-9.446,0-17.102-7.656-17.102-17.102v-34.205  c0-9.446,7.656-17.102,17.102-17.102l0,0c9.446,0,17.102,7.656,17.102,17.102v34.205  C298.756,256.895,291.099,264.551,281.653,264.551z"/>
<path d="M298.756,153.921h-9.086v-26.188c0-14.441,11.748-26.188,26.188-26.188h34.205c23.28,0,42.221-18.941,42.221-42.221V8.017  c0-4.428-3.589-8.017-8.017-8.017c-4.427,0-8.017,3.588-8.017,8.017v51.307c0,14.441-11.748,26.188-26.188,26.188h-34.205  c-23.28,0-42.221,18.941-42.221,42.221v26.188h-9.086c-61.002,0-110.63,49.629-110.63,110.63v94.063  c0,4.428,3.589,8.017,8.017,8.017s8.017-3.588,8.017-8.017v-51.841h154.455c4.427,0,8.017-3.588,8.017-8.017  s-3.589-8.017-8.017-8.017H289.67v-19.49c9.93-3.354,17.102-12.752,17.102-23.8v-34.205c0-11.048-7.172-20.446-17.102-23.8v-19.49  h9.086c52.161,0,94.597,42.436,94.597,94.597v26.188h-26.188c-4.427,0-8.017,3.588-8.017,8.017s3.589,8.017,8.017,8.017h26.188  v128.802c0,33.3-27.092,60.392-60.392,60.392H230.347c-33.3,0-60.392-27.092-60.392-60.392V401.37c0-4.428-3.589-8.017-8.017-8.017  s-8.017,3.588-8.017,8.017v34.205c0,42.141,34.285,76.426,76.426,76.426H332.96c42.141,0,76.426-34.285,76.426-76.426V264.551  C409.386,203.549,359.758,153.921,298.756,153.921z M290.739,247.449c0,5.01-4.076,9.086-9.086,9.086s-9.086-4.076-9.086-9.086  v-34.205c0-5.01,4.076-9.086,9.086-9.086s9.086,4.076,9.086,9.086V247.449z M273.637,189.444c-9.93,3.354-17.102,12.752-17.102,23.8  v34.205c0,11.048,7.172,20.446,17.102,23.8v19.49H169.954v-26.188c0-52.161,42.436-94.597,94.597-94.597h9.086V189.444z"/>
<path d="M133.401,113.512c-3.131-3.13-8.207-3.13-11.337,0c-3.131,3.132-3.131,8.207,0,11.338l17.102,17.102  c3.26,3.259,8.766,3.041,11.763-0.461c2.687-3.138,2.493-7.959-0.426-10.878L133.401,113.512z"/>
<path d="M179.04,135.749c4.427,0,8.017-3.588,8.017-8.017v-25.653c0-4.428-3.589-8.017-8.017-8.017s-8.017,3.588-8.017,8.017v25.653  C171.023,132.161,174.612,135.749,179.04,135.749z"/>
<path d="M136.284,162.472H110.63c-4.427,0-8.017,3.588-8.017,8.017c0,4.428,3.589,8.017,8.017,8.017h25.653  c4.427,0,8.017-3.588,8.017-8.017C144.301,166.06,140.711,162.472,136.284,162.472z"/>
<g>
</g>
<g>
</g>
<g>
</g>
<g>
</g>
<g>
</g>
<g>
</g>
<g>
</g>
<g>
</g>
<g>
</g>
<g>
</g>
<g>
</g>
<g>
</g>
<g>
</g>
<g>
</g>
<g>
</g>
</svg>
