<?xml version="1.0" encoding="iso-8859-1"?>
<!-- Generator: Adobe Illustrator 19.0.0, SVG Export Plug-In . SVG Version: 6.00 Build 0)  -->
<svg xmlns="http://www.w3.org/2000/svg" xmlns:xlink="http://www.w3.org/1999/xlink" version="1.1" id="Layer_1" x="0px" y="0px" viewBox="0 0 512 512" style="enable-background:new 0 0 512 512;" xml:space="preserve">
<polygon style="fill:#DF7A6E;" points="127.467,12.8 127.467,174.933 127.467,337.067 127.467,499.2 374.933,499.2 374.933,337.067   374.933,174.933 374.933,12.8 "/>
<rect x="374.933" y="12.8" style="fill:#FF8C78;" width="129.067" height="486.4"/>
<g>
	<rect x="153.067" y="38.4" style="fill:#FFC44F;" width="196.267" height="110.933"/>
	<rect x="153.067" y="200.533" style="fill:#FFC44F;" width="196.267" height="110.933"/>
</g>
<g>
	<rect x="153.067" y="200.533" style="fill:#F7AB49;" width="17.067" height="110.933"/>
	<rect x="153.067" y="38.4" style="fill:#F7AB49;" width="17.067" height="110.933"/>
</g>
<rect x="42.133" y="285.867" style="fill:#F6F6F7;" width="187.733" height="119.467"/>
<polygon style="fill:#D9DCDF;" points="275.378,234.667 178.667,234.667 178.667,396.8 323.733,396.8 323.733,283.022 "/>
<polygon style="fill:#F6F6F7;" points="275.378,283.022 323.733,283.022 275.378,234.667 "/>
<path style="fill:#ECEDEF;" d="M75.733,311.467c-4.418,0-8,3.582-8,8v68.8h110.933v-76.8H75.733z"/>
<path style="fill:#B3B9BF;" d="M264,319.467c0-4.418-3.582-8-8-8h-77.333v76.8H264V319.467z"/>
<rect x="84.8" y="328.533" style="fill:#F6F6F7;" width="196.267" height="76.8"/>
<rect x="221.333" y="64" style="fill:#D9DCDF;" width="59.733" height="34.133"/>
<rect x="153.067" y="388.267" style="fill:#68727E;" width="196.267" height="85.333"/>
<rect x="204.267" y="388.267" style="fill:#55606E;" width="34.133" height="85.333"/>
<rect x="8" y="362.667" style="fill:#FFC44F;" width="196.267" height="110.933"/>
<rect x="8" y="362.667" style="fill:#F7AB49;" width="17.067" height="110.933"/>
<rect x="76.267" y="388.267" style="fill:#D9DCDF;" width="59.733" height="34.133"/>
<path d="M504,4.8H127.467c-4.418,0-8,3.581-8,8v68.267c0,4.419,3.582,8,8,8s8-3.581,8-8V20.8h231.467v146.133H135.467v-43.2  c0-4.419-3.582-8-8-8s-8,3.581-8,8v154.133H42.133c-4.418,0-8,3.581-8,8v68.8H8c-4.418,0-8,3.581-8,8V473.6c0,4.419,3.582,8,8,8  h111.467v17.6c0,4.419,3.582,8,8,8H504c4.418,0,8-3.581,8-8V12.8C512,8.381,508.418,4.8,504,4.8z M135.467,182.933h231.467v146.133  h-35.2v-9.6h17.6c4.418,0,8-3.581,8-8V200.533c0-4.419-3.582-8-8-8H153.067c-4.418,0-8,3.581-8,8v77.333h-9.6V182.933z   M283.378,253.98l21.042,21.042h-21.042V253.98z M331.719,282.753c-0.069-2.01-0.905-3.964-2.33-5.389l-48.355-48.355  c-1.483-1.483-3.561-2.342-5.657-2.342h-96.711c-4.418,0-8,3.581-8,8v43.2h-9.6v-69.333h180.267v94.933h-9.6v-20.445  C331.733,282.932,331.723,282.843,331.719,282.753z M273.067,336.533v43.733h-60.8v-17.6c0-4.419-3.582-8-8-8H92.8v-18.133H273.067z   M212.267,396.267h129.067V465.6H212.267V396.267z M289.067,380.267v-51.733c0-4.419-3.582-8-8-8h-94.4v-77.867h80.711v40.355  c0,4.419,3.582,8,8,8h40.355v89.245H289.067z M50.133,293.867h120.533v26.667H84.8c-4.418,0-8,3.581-8,8v26.133H50.133V293.867z   M16,370.667h180.267V465.6H16V370.667z M496,491.2H382.933v-68.8c0-4.419-3.582-8-8-8s-8,3.581-8,8v68.8H135.467v-9.6h213.867  c4.418,0,8-3.581,8-8v-85.333c0-4.419-3.582-8-8-8h-17.6v-35.2h35.2v34.667c0,4.419,3.582,8,8,8s8-3.581,8-8V20.8H496V491.2z"/>
<path d="M349.333,157.333c4.418,0,8-3.581,8-8V38.4c0-4.419-3.582-8-8-8H153.067c-4.418,0-8,3.581-8,8v110.933c0,4.419,3.582,8,8,8  H349.333z M161.067,46.4h180.267v94.933H161.067V46.4z"/>
<path d="M76.267,430.4H136c4.418,0,8-3.581,8-8v-34.133c0-4.419-3.582-8-8-8H76.267c-4.418,0-8,3.581-8,8V422.4  C68.267,426.819,71.849,430.4,76.267,430.4z M84.267,396.267H128V414.4H84.267V396.267z"/>
<path d="M281.067,56h-59.733c-4.418,0-8,3.581-8,8v34.133c0,4.419,3.582,8,8,8h59.733c4.418,0,8-3.581,8-8V64  C289.067,59.581,285.485,56,281.067,56z M273.067,90.133h-43.733V72h43.733V90.133z"/>
<path d="M246.4,268.8c0-4.419-3.582-8-8-8h-25.6c-4.418,0-8,3.581-8,8c0,4.419,3.582,8,8,8h25.6  C242.818,276.8,246.4,273.219,246.4,268.8z"/>
<path d="M255.467,286.4h-25.6c-4.418,0-8,3.581-8,8c0,4.419,3.582,8,8,8h25.6c4.418,0,8-3.581,8-8  C263.467,289.981,259.885,286.4,255.467,286.4z"/>
<path d="M272.533,115.733h-42.667c-4.418,0-8,3.581-8,8c0,4.419,3.582,8,8,8h42.667c4.418,0,8-3.581,8-8  C280.533,119.314,276.951,115.733,272.533,115.733z"/>
<path d="M144,448c0-4.419-3.582-8-8-8H76.267c-4.418,0-8,3.581-8,8c0,4.419,3.582,8,8,8H136C140.418,456,144,452.419,144,448z"/>
<g>
</g>
<g>
</g>
<g>
</g>
<g>
</g>
<g>
</g>
<g>
</g>
<g>
</g>
<g>
</g>
<g>
</g>
<g>
</g>
<g>
</g>
<g>
</g>
<g>
</g>
<g>
</g>
<g>
</g>
</svg>
