<?xml version="1.0" encoding="iso-8859-1"?>
<!-- Generator: Adobe Illustrator 19.0.0, SVG Export Plug-In . SVG Version: 6.00 Build 0)  -->
<svg xmlns="http://www.w3.org/2000/svg" xmlns:xlink="http://www.w3.org/1999/xlink" version="1.1" id="Layer_1" x="0px" y="0px" viewBox="0 0 512 512" style="enable-background:new 0 0 512 512;" xml:space="preserve">
<path style="fill:#C4DF64;" d="M136.284,170.489C136.284,76.035,169.42,8.017,256,8.017c83.374,0,119.716,68.018,119.716,162.472  S290.205,315.858,256,315.858S136.284,264.942,136.284,170.489z"/>
<path style="fill:#A6C451;" d="M298.577,273.281c-34.205,0-119.716-50.916-119.716-145.37c0-42.621,6.75-79.855,22.11-107.891  c-45.991,23.497-64.687,79.525-64.687,150.468c0,94.453,85.511,145.37,119.716,145.37c22.314,0,66.461-21.676,94.459-62.969  C330.763,266.354,311.185,273.281,298.577,273.281z"/>
<path style="fill:#FFC44F;" d="M302.475,495.432h-92.951c-17.374,0-31.988-13.024-33.979-30.284l-22.159-192.046h205.228  l-22.159,192.046C334.463,482.408,319.849,495.432,302.475,495.432z"/>
<path style="fill:#F7AB49;" d="M196.142,341.511c0-24.224,4.006-47.323,11.253-68.409h-54.009l22.159,192.046  c1.991,17.259,16.605,30.284,33.979,30.284h59.152C225.214,464.011,196.142,406.837,196.142,341.511z"/>
<path style="fill:#FFC44F;" d="M375.716,332.96H136.284c-9.446,0-17.102-7.656-17.102-17.102v-51.307  c0-9.446,7.656-17.102,17.102-17.102h239.432c9.446,0,17.102,7.656,17.102,17.102v51.307  C392.818,325.304,385.162,332.96,375.716,332.96z"/>
<path style="fill:#F7AB49;" d="M136.284,247.449c-9.445,0-17.102,7.658-17.102,17.102v51.307c0,9.445,7.658,17.102,17.102,17.102  h34.472v-85.511H136.284z"/>
<rect x="256.267" y="247.449" style="fill:#FFD791;" width="59.591" height="85.511"/>
<path style="fill:#FFC44F;" d="M350.063,503.983H161.937c-14.168,0-25.653-11.485-25.653-25.653l0,0h239.432l0,0  C375.716,492.498,364.231,503.983,350.063,503.983z"/>
<path d="M375.716,239.432h-8.115c6.408-12.786,10.92-26.211,13.508-40.182l8.125,4.062c4.175,2.09,9.364,0.066,11.058-4.267  c1.487-3.805-0.236-8.248-3.886-10.073l-13.122-6.561c0.291-3.939,0.45-7.911,0.45-11.922c0-18.682-1.385-35.989-4.093-51.841  h13.178c4.428,0,8.017-3.588,8.017-8.017c0-4.428-3.588-8.017-8.017-8.017H376.33c-6.522-26.707-17.269-48.598-31.88-65.201  l12.026-16.034c2.656-3.541,1.938-8.567-1.603-11.223c-3.543-2.656-8.567-1.938-11.223,1.603L332.91,26.077  C312.712,8.99,286.861,0,256,0c-31.383,0-57.334,8.478-77.528,25.254l-10.121-13.496c-2.656-3.541-7.681-4.258-11.223-1.603  c-3.541,2.656-4.26,7.682-1.603,11.223l11.356,15.141c-3.521,3.976-6.823,8.264-9.887,12.883  c-9.724,14.663-16.995,32.456-21.794,53.212h-16.017c-4.428,0-8.017,3.588-8.017,8.017c0,4.428,3.588,8.017,8.017,8.017h12.9  c-2.534,15.815-3.815,33.109-3.815,51.841c0,4.012,0.159,7.985,0.45,11.922l-13.122,6.561c-3.656,1.828-5.366,6.264-3.886,10.073  c1.686,4.341,6.888,6.35,11.058,4.267l8.125-4.062c2.588,13.97,7.1,27.396,13.508,40.182h-8.115  c-13.851,0-25.119,11.268-25.119,25.119v51.307c0,13.851,11.268,25.119,25.119,25.119h16.864c0,0,14.836,127.941,15.142,129.336  h-32.006c-4.428,0-8.017,3.588-8.017,8.017c0,18.566,15.105,33.67,33.67,33.67h188.125c18.566,0,33.67-15.105,33.67-33.67  c0-4.428-3.588-8.017-8.017-8.017H343.71c0.306-1.395,15.142-129.336,15.142-129.336h16.864c13.851,0,25.119-11.268,25.119-25.119  v-51.307C400.835,250.7,389.567,239.432,375.716,239.432z M319.599,57.186c3.495,2.621,8.604,1.89,11.223-1.603l3.846-5.127  c12.223,14.894,20.117,33.231,25.105,52.159h-9.711c-4.428,0-8.017,3.588-8.017,8.017c0,4.428,3.588,8.017,8.017,8.017h13.26  c3.347,18.342,4.377,36.478,4.377,51.841c0,1.371-0.03,2.735-0.067,4.097l-5.432-2.716c-3.962-1.982-8.777-0.375-10.756,3.585  c-1.981,3.96-0.375,8.776,3.585,10.756l11.079,5.54c-2.533,16.811-8.107,32.774-16.688,47.682h-33.841  c5.504-21.327,8.297-44.461,8.297-68.944c0-50.26-4.952-90.375-14.72-119.227c-4.142-12.237-8.966-21.668-14.122-28.913  c10.975,3.947,20.338,9.589,28.317,16.474l-5.355,7.138C315.34,49.504,316.058,54.53,319.599,57.186z M256,128.267  c-4.428,0-8.017,3.588-8.017,8.017v103.148h-34.961c-5.878-21.102-8.863-44.259-8.863-68.944  c0-91.327,15.482-145.023,43.825-153.317v84.908c0,4.428,3.588,8.017,8.017,8.017c4.428,0,8.017-3.588,8.017-8.017V17.247  c12.39,3.859,22.443,16.976,29.951,39.157c9.076,26.81,13.873,66.26,13.873,114.085c0,24.685-2.985,47.842-8.863,68.944h-34.961  V136.284C264.017,131.855,260.428,128.267,256,128.267z M160.556,175.455c-1.98-3.959-6.793-5.563-10.756-3.585l-5.432,2.716  c-0.037-1.362-0.067-2.726-0.067-4.097c0-18.932,1.348-36.228,4.016-51.841h13.621c4.428,0,8.017-3.588,8.017-8.017  c0-4.428-3.588-8.017-8.017-8.017h-10.273c4.334-17.288,10.573-32.108,18.692-44.351c2.008-3.028,4.143-5.885,6.39-8.591l4.432,5.91  c2.828,3.771,8.472,4.255,11.909,1.028c2.937-2.759,3.335-7.427,0.918-10.648l-5.852-7.803c8.198-6.891,17.55-12.179,28.017-15.857  c-5.428,7.696-10.083,17.37-13.942,29.008c-9.357,28.221-14.102,68.319-14.102,119.178c0,24.483,2.793,47.617,8.297,68.944h-33.841  c-8.582-14.909-14.154-30.872-16.688-47.682l11.079-5.54C160.932,184.229,162.537,179.415,160.556,175.455z M350.063,495.967  H161.937c-6.84,0-12.783-3.913-15.707-9.62h219.541C362.846,492.053,356.902,495.967,350.063,495.967z M384.802,315.858  c0,5.01-4.076,9.086-9.086,9.086h-145.37c-4.428,0-8.017,3.588-8.017,8.017c0,4.428,3.588,8.017,8.017,8.017h112.366  c0,0-14.957,127.385-15.68,129.336H184.966c-0.723-1.951-15.68-129.336-15.68-129.336h18.305c4.428,0,8.017-3.588,8.017-8.017  c0-4.428-3.588-8.017-8.017-8.017h-51.307c-5.01,0-9.086-4.076-9.086-9.086v-51.307c0-5.01,4.076-9.086,9.086-9.086h239.432  c5.01,0,9.086,4.076,9.086,9.086V315.858z"/>
<g>
</g>
<g>
</g>
<g>
</g>
<g>
</g>
<g>
</g>
<g>
</g>
<g>
</g>
<g>
</g>
<g>
</g>
<g>
</g>
<g>
</g>
<g>
</g>
<g>
</g>
<g>
</g>
<g>
</g>
</svg>
