<?xml version="1.0" encoding="iso-8859-1"?>
<!-- Generator: Adobe Illustrator 19.0.0, SVG Export Plug-In . SVG Version: 6.00 Build 0)  -->
<svg xmlns="http://www.w3.org/2000/svg" xmlns:xlink="http://www.w3.org/1999/xlink" version="1.1" id="Layer_1" x="0px" y="0px" viewBox="0 0 511.997 511.997" style="enable-background:new 0 0 511.997 511.997;" xml:space="preserve">
<path style="fill:#ECEDEF;" d="M213.612,491.333c1.981,0,3.991-0.464,5.868-1.443c6.229-3.247,8.647-10.928,5.401-17.158  L72.442,180.212L221.848,38.467l16.678,16.678c4.967,4.967,13.021,4.967,17.988,0c4.968-4.968,4.968-13.02,0-17.988l-25.439-25.439  c-4.876-4.875-12.748-4.979-17.748-0.234L47.976,168.356c-4.119,3.908-5.149,10.072-2.526,15.106l156.872,301.025  C204.59,488.84,209.022,491.332,213.612,491.333z"/>
<path style="fill:#B3B9BF;" d="M47.976,168.357l47.414-44.982c7.411,4.374,13.913,10.116,19.168,16.881l-42.116,39.957  l29.153,55.942c-6.759,5.062-14.5,8.879-22.878,11.145L45.45,183.464C42.826,178.429,43.857,172.264,47.976,168.357z"/>
<circle style="fill:#FFC44F;" cx="397.491" cy="196.046" r="59.357"/>
<path style="fill:#F7AB49;" d="M425.165,223.797c20.785-20.783,22.918-53.139,6.432-76.317c2.76,1.943,5.399,4.132,7.868,6.599  c23.18,23.181,23.18,60.764,0,83.944c-23.18,23.18-60.764,23.18-83.944,0c-2.397-2.397-4.53-4.954-6.432-7.626  C372.25,246.698,404.452,244.508,425.165,223.797z"/>
<path style="fill:#FF8C78;" d="M276.361,134.879l-40.76-40.76c-6.623-6.623-6.623-17.361,0-23.983l35.976-35.976  c6.623-6.623,17.361-6.623,23.983,0l40.761,40.76c50.89-25.71,114.594-17.317,157.106,25.196L301.557,291.986  C259.043,249.473,250.651,185.769,276.361,134.879z"/>
<g>
	<path style="fill:#DF7A6E;" d="M276.361,134.879l-11.617-11.617l59.959-59.96l11.617,11.617c0.834-0.422,1.681-0.809,2.522-1.213   c-12.877,17.379-21.944,37.209-29.005,58.049c-4.945,14.592-8.907,29.679-12.499,44.768c-7.849,35.019-10.527,70.035-6.1,103.878   C257.856,238.459,252.892,181.334,276.361,134.879z"/>
	<path style="fill:#DF7A6E;" d="M235.602,70.135l7.253-7.253l40.562,41.708l-18.672,18.672l-29.143-29.143   C228.978,87.496,228.978,76.759,235.602,70.135z"/>
</g>
<polygon style="fill:#ECEDEF;" points="305.095,43.694 325.234,63.833 283.94,105.127 264.08,84.708 "/>
<polygon style="fill:#D9DCDF;" points="283.94,105.127 265.275,123.793 245.136,103.654 264.08,84.708 "/>
<path style="fill:#ECEDEF;" d="M265.275,123.793l-9.294-9.294L265.275,123.793z"/>
<path style="fill:#68727E;" d="M103.367,504.049h220.469V487.09c0-9.367-7.592-16.959-16.959-16.959H120.326  c-9.367,0-16.959,7.592-16.959,16.959C103.367,487.09,103.367,504.049,103.367,504.049z"/>
<rect x="103.366" y="487.086" style="fill:#424F5E;" width="220.469" height="16.959"/>
<g>
	<rect x="247.519" y="436.209" style="fill:#FFD072;" width="25.439" height="33.918"/>
	<circle style="fill:#FFD072;" cx="60.968" cy="181.822" r="42.398"/>
</g>
<circle style="fill:#FFA393;" cx="60.968" cy="181.822" r="16.959"/>
<circle style="fill:#FFC5BB;" cx="395.911" cy="109.745" r="21.199"/>
<path d="M10.622,181.825c0,27.761,22.586,50.347,50.347,50.347c0.289,0,0.591-0.024,0.884-0.03l59.902,114.947  c2.16,4.144,7.599,5.532,11.487,2.923c3.319-2.227,4.459-6.73,2.614-10.271L78.212,229.129c2.998-1.089,5.88-2.461,8.617-4.104  l123.589,237.156h-10.757l-46.846-89.895c-2.03-3.894-6.83-5.406-10.723-3.377c-3.894,2.029-5.406,6.83-3.377,10.723l43.017,82.548  h-61.406c-13.735,0-24.909,11.174-24.909,24.909v16.959c0,4.391,3.558,7.95,7.95,7.95h220.469c4.391,0,7.95-3.558,7.95-7.95v-16.959  c0-13.735-11.174-24.909-24.909-24.909h-25.969v-25.969c0-4.391-3.558-7.95-7.95-7.95h-25.439c-4.391,0-7.95,3.558-7.95,7.95v25.969  h-11.223L99.263,214.478c7.712-9.059,12.054-20.653,12.054-32.653c0-7.886-1.825-15.547-5.308-22.5L221.702,49.564l11.203,11.204  c0.138,0.138,0.289,0.259,0.43,0.392l-3.355,3.354c-9.711,9.712-9.711,25.515-0.001,35.226l36.777,36.776  c-24.823,54.413-13.436,118.477,29.178,161.092c3.062,3.06,8.181,3.06,11.243,0l48.686-48.687  c12.165,9.591,26.892,14.404,41.628,14.404c17.236,0,34.471-6.56,47.593-19.681c12.712-12.713,19.714-29.615,19.714-47.593  c0-15.3-5.087-29.81-14.432-41.633l48.682-48.681c3.105-3.105,3.105-8.138,0-11.242c-12.856-12.857-27.759-23.017-44.296-30.197  c-4.03-1.748-8.71,0.1-10.458,4.126c-1.748,4.028,0.1,8.71,4.126,10.458c12.279,5.33,23.549,12.515,33.594,21.404L301.73,280.572  c-34.507-39.03-42-95.142-18.272-142.108c1.549-3.065,0.953-6.778-1.475-9.207l-5.464-5.464l48.716-48.716l5.465,5.465  c2.401,2.401,6.174,3.005,9.207,1.474c23.533-11.887,49.833-16.159,76.064-12.348c4.333,0.64,8.378-2.379,9.01-6.724  c0.632-4.346-2.38-8.379-6.724-9.01c-27.558-4.004-55.193-0.067-80.296,11.382L301.184,28.54c-9.712-9.71-25.513-9.712-35.227,0  l-3.428,3.428c-0.134-0.141-0.254-0.293-0.392-0.43L236.698,6.098c-7.986-7.981-20.653-8.15-28.842-0.378L73.599,133.088  c-4.108-1.064-8.338-1.611-12.63-1.611C33.208,131.477,10.622,154.063,10.622,181.825z M367.2,237.587l71.829-71.83  c6.405,8.743,9.87,19.252,9.87,30.295c0,13.732-5.347,26.641-15.057,36.35C415.711,250.533,387.293,252.259,367.2,237.587z   M293.852,43.694L245.136,92.41l-3.912-3.912c-3.513-3.512-3.513-9.229,0-12.742l35.976-35.974c1.701-1.702,3.964-2.639,6.37-2.639  C288.148,37.142,290.903,40.745,293.852,43.694z M265.275,112.55l-8.897-8.897l48.716-48.716l8.897,8.897L265.275,112.55z   M216.375,32.699L96.641,146.295c-2.267-2.283-4.741-4.335-7.393-6.135L218.799,17.252c1.887-1.791,4.811-1.755,6.655,0.088  l25.438,25.439c0.143,0.143,0.269,0.289,0.386,0.437l-6.694,6.694c-0.147-0.116-0.294-0.242-0.437-0.385L227.47,32.846  C224.421,29.799,219.504,29.734,216.375,32.699z M265.009,462.181h-9.54v-18.019h9.54V462.181z M120.326,478.08h186.551  c4.968,0,9.01,4.042,9.01,9.01v9.01h-204.57v-9.01C111.317,482.122,115.359,478.08,120.326,478.08z M26.521,181.825  c0-18.995,15.453-34.448,34.448-34.448c4.356,0,8.698,0.825,12.746,2.437c12.963,5.163,21.702,18.054,21.702,32.011  c0,9.635-4.08,18.896-11.193,25.411c-0.002,0.002-0.005,0.004-0.007,0.006c-6.311,5.776-14.689,9.032-23.248,9.032  C41.974,216.273,26.521,200.82,26.521,181.825z"/>
<path d="M36.06,181.825c0,13.735,11.174,24.909,24.909,24.909s24.909-11.174,24.909-24.909s-11.174-24.909-24.909-24.909  S36.06,168.09,36.06,181.825z M51.96,181.825c0-4.968,4.042-9.01,9.01-9.01s9.01,4.042,9.01,9.01c0,4.968-4.042,9.01-9.01,9.01  S51.96,186.792,51.96,181.825z"/>
<g>
</g>
<g>
</g>
<g>
</g>
<g>
</g>
<g>
</g>
<g>
</g>
<g>
</g>
<g>
</g>
<g>
</g>
<g>
</g>
<g>
</g>
<g>
</g>
<g>
</g>
<g>
</g>
<g>
</g>
</svg>
