<?xml version="1.0" encoding="iso-8859-1"?>
<!-- Generator: Adobe Illustrator 19.0.0, SVG Export Plug-In . SVG Version: 6.00 Build 0)  -->
<svg xmlns="http://www.w3.org/2000/svg" xmlns:xlink="http://www.w3.org/1999/xlink" version="1.1" id="Layer_1" x="0px" y="0px" viewBox="0 0 512 512" style="enable-background:new 0 0 512 512;" xml:space="preserve">
<path style="fill:#C4DF64;" d="M468.088,497.758l23.418-23.418c6.827-6.827,6.653-17.948-0.384-24.558L304.445,274.419  l-36.279,36.279l175.363,186.677C450.14,504.411,461.261,504.584,468.088,497.758z"/>
<path style="fill:#A6C451;" d="M472.828,493.017l-4.741,4.741c-6.827,6.827-17.948,6.653-24.558-0.384L268.167,310.697  l11.994-11.994L472.828,493.017z"/>
<circle style="fill:#8E959F;" cx="179.04" cy="180.354" r="171.023"/>
<circle style="fill:#D9DCDF;" cx="179.04" cy="180.354" r="128.267"/>
<circle style="fill:#F6F6F7;" cx="179.04" cy="180.354" r="111.165"/>
<path style="fill:#FF8C78;" d="M179.04,265.867c-47.227,0-85.511-38.285-85.511-85.511s38.285-85.511,85.511-85.511  s85.511,38.285,85.511,85.511H179.04V265.867z"/>
<path style="fill:#FFD791;" d="M179.04,265.867v-85.511h85.511C264.551,227.582,226.267,265.867,179.04,265.867z"/>
<path d="M179.04,359.395C80.317,359.395,0,279.077,0,180.355S80.317,1.316,179.04,1.316c27.388,0,53.678,6.025,78.138,17.907  c3.983,1.935,5.643,6.732,3.708,10.714c-1.935,3.982-6.731,5.642-10.714,3.708c-22.259-10.813-46.192-16.295-71.133-16.295  c-89.882,0-163.006,73.124-163.006,163.006S89.157,343.362,179.04,343.362c33.73,0,66.098-10.219,93.605-29.55  c0.001-0.001,0.002-0.001,0.003-0.002c13.644-9.588,25.712-21.175,35.87-34.434c0.003-0.005,0.007-0.01,0.012-0.015  c0,0,0.001,0,0.001-0.001c21.926-28.631,33.515-62.866,33.515-99.004c0-47.685-20.796-92.838-57.054-123.88  c-3.363-2.879-3.756-7.94-0.876-11.304c2.879-3.363,7.941-3.754,11.304-0.875c39.822,34.091,62.661,83.684,62.661,136.059  c0,37.258-11.22,72.678-32.518,102.898l171.05,160.685c10.202,9.583,10.461,26.171,0.563,36.07l-23.418,23.418  c-9.897,9.897-26.489,9.637-36.07-0.563l-88.95-94.689c-3.031-3.227-2.873-8.3,0.354-11.332c3.227-3.03,8.301-2.873,11.332,0.355  l88.95,94.689c3.469,3.69,9.465,3.784,13.047,0.202l23.418-23.418c3.579-3.578,3.487-9.582-0.204-13.045L315.691,295.981  c-7.933,9.372-16.787,17.886-26.45,25.442l41.011,43.657c2.795,2.975,2.87,7.719,0.176,10.782  c-3.078,3.502-8.672,3.591-11.863,0.195l-42.485-45.226C247.15,349.541,213.749,359.395,179.04,359.395z"/>
<path d="M315.324,180.355c0-75.147-61.136-136.284-136.284-136.284S42.756,105.208,42.756,180.355s61.136,136.284,136.284,136.284  S315.324,255.503,315.324,180.355z M299.29,180.355c0,66.306-53.944,120.251-120.251,120.251S58.789,246.661,58.789,180.355  S112.733,60.105,179.04,60.105S299.29,114.05,299.29,180.355z"/>
<path d="M272.568,180.355c0-51.572-41.956-93.528-93.528-93.528s-93.528,41.956-93.528,93.528s41.956,93.528,93.528,93.528  S272.568,231.927,272.568,180.355z M187.056,257.439v-69.067h69.067C252.37,224.713,223.398,253.685,187.056,257.439z   M256.123,172.339H179.04c-4.427,0-8.017,3.588-8.017,8.017v77.083c-38.977-4.025-69.478-37.06-69.478-77.083  c0-42.731,34.764-77.495,77.495-77.495C219.063,102.861,252.097,133.361,256.123,172.339z"/>
<path d="M42.221,403.22h145.904v-26.188c0-4.428,3.589-8.017,8.017-8.017s8.017,3.588,8.017,8.017v34.205  c0,4.428-3.589,8.017-8.017,8.017H42.221c-4.427,0-8.017-3.588-8.017-8.017S37.794,403.22,42.221,403.22z"/>
<path d="M179.04,437.424h17.102c4.427,0,8.017,3.588,8.017,8.017s-3.589,8.017-8.017,8.017H179.04c-4.427,0-8.017-3.588-8.017-8.017  S174.612,437.424,179.04,437.424z"/>
<path d="M42.221,437.424h102.614c4.427,0,8.017,3.588,8.017,8.017s-3.589,8.017-8.017,8.017H42.221  c-4.427,0-8.017-3.588-8.017-8.017S37.794,437.424,42.221,437.424z"/>
<path d="M42.221,471.629h102.614c4.427,0,8.017,3.588,8.017,8.017s-3.589,8.017-8.017,8.017H42.221  c-4.427,0-8.017-3.588-8.017-8.017S37.794,471.629,42.221,471.629z"/>
<path d="M383.733,119.963v26.188c0,4.428-3.589,8.017-8.017,8.017c-4.427,0-8.017-3.588-8.017-8.017v-34.205  c0-4.428,3.589-8.017,8.017-8.017h128.267c4.427,0,8.017,3.588,8.017,8.017s-3.589,8.017-8.017,8.017H383.733z"/>
<path d="M392.818,85.758h-17.102c-4.427,0-8.017-3.588-8.017-8.017c0-4.428,3.589-8.017,8.017-8.017h17.102  c4.427,0,8.017,3.588,8.017,8.017C400.835,82.17,397.246,85.758,392.818,85.758z"/>
<path d="M503.983,85.758h-76.96c-4.427,0-8.017-3.588-8.017-8.017c0-4.428,3.589-8.017,8.017-8.017h76.96  c4.427,0,8.017,3.588,8.017,8.017C512,82.17,508.411,85.758,503.983,85.758z"/>
<path d="M503.983,51.554h-76.96c-4.427,0-8.017-3.588-8.017-8.017s3.589-8.017,8.017-8.017h76.96c4.427,0,8.017,3.588,8.017,8.017  S508.411,51.554,503.983,51.554z"/>
<g>
</g>
<g>
</g>
<g>
</g>
<g>
</g>
<g>
</g>
<g>
</g>
<g>
</g>
<g>
</g>
<g>
</g>
<g>
</g>
<g>
</g>
<g>
</g>
<g>
</g>
<g>
</g>
<g>
</g>
</svg>
