<?xml version="1.0" encoding="iso-8859-1"?>
<!-- Generator: Adobe Illustrator 19.0.0, SVG Export Plug-In . SVG Version: 6.00 Build 0)  -->
<svg xmlns="http://www.w3.org/2000/svg" xmlns:xlink="http://www.w3.org/1999/xlink" version="1.1" id="Layer_1" x="0px" y="0px" viewBox="0 0 512 512" style="enable-background:new 0 0 512 512;" xml:space="preserve">
<polygon style="fill:#B3B9BF;" points="183.085,194.397 278.396,289.71 63.944,504.162 16.289,361.193 "/>
<g>
	<polygon style="fill:#D9DCDF;" points="63.944,504.162 278.396,289.71 254.568,265.881 52.03,468.419  "/>
	<polygon style="fill:#D9DCDF;" points="68.617,308.864 115.398,452.707 128.768,439.338 81.987,295.494  "/>
	<polygon style="fill:#D9DCDF;" points="145.726,231.756 132.357,245.125 179.137,388.969 192.506,375.599  "/>
</g>
<path style="fill:#FFC44F;" d="M168.646,297.859l109.75,15.679l65.527-65.527l11.914,11.914c6.579,6.58,17.248,6.58,23.828,0  l101.269-101.269c19.74-19.74,19.74-51.744,0-71.484l-59.57-59.57c-26.32-26.32-68.992-26.32-95.312,0L159.256,194.397  l-5.046,85.793C153.695,288.938,159.972,296.62,168.646,297.859z"/>
<path style="fill:#B3B9BF;" d="M409.45,87.172c6.569,6.569,6.569,17.259,0,23.828L260.525,259.925l-54.036-7.719l2.098-35.656  L361.794,63.343c6.569-6.569,17.259-6.569,23.828,0L409.45,87.172z"/>
<path style="fill:#8E959F;" d="M224.414,229.486L377.62,76.28c4.513-4.513,10.971-5.924,16.7-4.238l-8.699-8.698  c-6.569-6.569-17.259-6.569-23.828,0L208.588,216.551l-2.098,35.655l16.449,2.349L224.414,229.486z"/>
<path style="fill:#424F5E;" d="M320.095,105.042l47.656,47.656c6.579,6.58,6.579,17.248,0,23.828l-47.656,47.656  c-6.579,6.58-17.248,6.58-23.828,0l-47.656-47.656c-6.58-6.58-6.58-17.248,0-23.828l47.656-47.656  C302.847,98.463,313.515,98.463,320.095,105.042z"/>
<path style="fill:#F7AB49;" d="M326.052,27.601L159.256,194.397l-2.301,39.116L382.07,8.399  C362.153,5.922,341.343,12.31,326.052,27.601z"/>
<path d="M486.519,81.586L426.95,22.017c-29.357-29.356-77.124-29.356-106.481,0L216.732,125.754c-3.084,3.085-3.084,8.085,0,11.17  c3.084,3.083,8.085,3.083,11.169,0L331.637,33.187c23.199-23.199,60.946-23.199,84.142,0l59.569,59.569  c16.629,16.628,16.629,43.685,0,60.313L374.08,254.339c-3.49,3.489-9.169,3.491-12.659,0l-11.913-11.913  c-3.084-3.083-8.085-3.083-11.169,0l-62.735,62.734l-105.841-15.12c-4.571-0.652-7.94-4.776-7.669-9.386l4.87-82.795l28.931-28.932  c3.084-3.085,3.084-8.085,0-11.17c-3.084-3.083-8.085-3.083-11.169,0l-31.055,31.055c-1.368,1.369-2.186,3.19-2.3,5.121  l-1.313,22.32L10.704,355.609c-2.116,2.116-2.854,5.244-1.908,8.083L56.451,506.66c1.82,5.469,9.014,7.156,13.077,3.088  l190.811-190.81l16.939,2.42c2.439,0.35,4.96-0.493,6.702-2.234l59.942-59.942l6.329,6.33c9.65,9.649,25.35,9.648,34.997,0  l101.269-101.269C509.306,141.453,509.306,104.375,486.519,81.586z M148.663,239.989l-2.338,39.737  c-0.749,12.747,8.566,24.148,21.204,25.952l31.564,4.51l-32.909,32.908c-2.876,2.876-3.066,7.625-0.42,10.717  c2.953,3.449,8.377,3.665,11.589,0.454l41.286-41.286l22.152,3.164L67.396,489.54l-6.329-18.988l91.014-91.013  c3.084-3.085,3.084-8.085,0-11.17c-3.083-3.083-8.084-3.083-11.169,0l-85.429,85.428l-30.157-90.47L148.663,239.989z"/>
<path d="M205.373,260.024l54.036,7.719c2.439,0.35,4.96-0.493,6.702-2.234l31.068-31.068c9.42,4.685,21.076,2.753,28.502-4.673  l47.655-47.656c4.673-4.673,7.248-10.889,7.248-17.499c0-3.883-0.894-7.625-2.575-11.002l37.026-37.024  c9.649-9.649,9.649-25.349,0-34.998l-23.828-23.829c-9.648-9.648-25.349-9.647-34.997,0l-37.024,37.027  c-3.378-1.681-7.121-2.575-11.003-2.575c-6.61,0-12.825,2.574-17.499,7.248l-47.656,47.656c-7.426,7.426-9.36,19.082-4.675,28.501  l-35.35,35.35c-1.368,1.368-2.186,3.19-2.3,5.121l-2.098,35.654C198.363,255.842,201.306,259.444,205.373,260.024z M367.378,68.929  c3.442-3.442,9.216-3.442,12.659,0l23.828,23.829c3.49,3.489,3.49,9.169,0,12.659L367.75,141.53l-36.485-36.487L367.378,68.929z   M254.195,158.284l47.656-47.657c3.448-3.449,9.206-3.449,12.656-0.002c0.001,0.001,0.002,0.002,0.003,0.003l47.655,47.656  c3.45,3.45,3.45,9.208,0,12.658l-47.656,47.657c-3.448,3.448-9.206,3.45-12.656,0.002c-0.001-0.001-0.002-0.002-0.003-0.003  l-47.656-47.656C250.746,167.492,250.746,161.734,254.195,158.284z M216.295,220.012l32.316-32.316l36.486,36.486l-27.365,27.365  l-42.932-6.132L216.295,220.012z"/>
<path d="M302.596,205.94c1.542,1.542,3.564,2.313,5.584,2.313c2.021,0,4.043-0.771,5.584-2.313c3.084-3.085,3.084-8.085,0-11.17  l-35.742-35.742c-3.084-3.083-8.085-3.083-11.169,0c-3.084,3.085-3.084,8.085,0,11.17L302.596,205.94z"/>
<path d="M320.468,188.069c1.542,1.542,3.564,2.313,5.584,2.313c2.021,0,4.043-0.771,5.584-2.313c3.084-3.085,3.084-8.085,0-11.17  l-35.742-35.742c-3.084-3.083-8.085-3.083-11.169,0c-3.084,3.085-3.084,8.085,0,11.17L320.468,188.069z"/>
<path d="M338.339,170.198c1.542,1.542,3.564,2.313,5.584,2.313c2.021,0,4.043-0.771,5.584-2.313c3.084-3.085,3.084-8.085,0-11.17  l-35.742-35.742c-3.084-3.083-8.085-3.083-11.169,0c-3.084,3.085-3.084,8.085,0,11.17L338.339,170.198z"/>
<g>
</g>
<g>
</g>
<g>
</g>
<g>
</g>
<g>
</g>
<g>
</g>
<g>
</g>
<g>
</g>
<g>
</g>
<g>
</g>
<g>
</g>
<g>
</g>
<g>
</g>
<g>
</g>
<g>
</g>
</svg>
