<?xml version="1.0" encoding="iso-8859-1"?>
<!-- Generator: Adobe Illustrator 19.0.0, SVG Export Plug-In . SVG Version: 6.00 Build 0)  -->
<svg xmlns="http://www.w3.org/2000/svg" xmlns:xlink="http://www.w3.org/1999/xlink" version="1.1" id="Layer_1" x="0px" y="0px" viewBox="0 0 512 512" style="enable-background:new 0 0 512 512;" xml:space="preserve">
<polygon style="fill:#ECEDEF;" points="317.216,302.709 45.472,302.709 45.472,209.297 317.216,251.757 "/>
<rect x="45.472" y="285.192" style="fill:#D9DCDF;" width="271.744" height="17.515"/>
<path style="fill:#C4DF64;" d="M401.505,192.724l-310.123-50.47c-37.033-6.027-71.94,19.109-77.966,56.142L7.96,231.922  l477.758,77.752C494.758,254.123,457.054,201.764,401.505,192.724z"/>
<path style="fill:#A6C451;" d="M453.571,217.789h-68.419c-28.096,0-50.952,22.856-50.952,50.952v16.274l151.517,24.658  C491.475,274.294,478.268,240.213,453.571,217.789z"/>
<path style="fill:#C4DF64;" d="M351.184,268.741v67.936H28.488c-9.38,0-16.984,7.604-16.984,16.984v16.984H504.04V268.741  c0-18.76-15.208-33.968-33.968-33.968h-84.92C366.392,234.773,351.184,249.981,351.184,268.741z"/>
<path style="fill:#A6C451;" d="M11.523,353.13c-0.006,0.177-0.018,17.515-0.018,17.515h492.535V353.13H11.523z"/>
<circle style="fill:#FFC44F;" cx="427.615" cy="277.231" r="16.984"/>
<path d="M472.645,226.898c-17.102-22.583-41.754-37.458-69.859-42.032l-41.83-6.807c-4.348-0.709-8.43,2.239-9.136,6.578  c-0.707,4.34,2.239,8.43,6.578,9.136l41.831,6.807c19.727,3.211,37.451,12.376,51.263,26.231h-66.337  c-23.119,0-41.929,18.81-41.929,41.929v9.676L17.096,225.343l4.178-25.669c2.573-15.812,11.15-29.675,24.15-39.037  c12.999-9.359,28.865-13.1,44.68-10.526l229.329,37.321c4.34,0.706,8.43-2.24,9.136-6.578c0.707-4.34-2.239-8.43-6.578-9.136  L92.66,134.396c-20.009-3.256-40.09,1.474-56.541,13.32c-16.452,11.846-27.306,29.391-30.563,49.4l-5.456,33.527  c-0.696,4.282,2.302,8.441,6.579,9.136l30.83,5.018v57.912c0,4.398,3.565,7.961,7.961,7.961h271.744  c4.398,0,7.961-3.563,7.961-7.961v-11.097l18.045,2.937v34.168H28.487c-13.755,0-24.945,11.19-24.945,24.945v16.984  c0,4.398,3.565,7.961,7.961,7.961h101.904c4.397,0,7.961-3.563,7.961-7.961s-3.565-7.961-7.961-7.961H19.464v-9.023  c0-4.975,4.047-9.023,9.023-9.023h322.696c4.398,0,7.961-3.563,7.961-7.961v-67.936c0-14.341,11.666-26.007,26.007-26.007h84.92  c14.341,0,26.007,11.666,26.007,26.007v93.943h-340.21c-4.397,0-7.961,3.563-7.961,7.961s3.565,7.961,7.961,7.961h348.172  c4.398,0,7.961-3.563,7.961-7.961V268.742C512.001,246.486,494.57,228.233,472.645,226.898z M53.433,294.748v-47.36l255.821,41.632  v5.728H53.433z"/>
<path d="M452.557,277.233c0-13.755-11.19-24.945-24.945-24.945c-13.755,0-24.945,11.19-24.945,24.945s11.19,24.945,24.945,24.945  C441.367,302.178,452.557,290.988,452.557,277.233z M418.589,277.233c0-4.975,4.047-9.023,9.023-9.023  c4.975,0,9.023,4.047,9.023,9.023s-4.047,9.023-9.023,9.023C422.636,286.256,418.589,282.207,418.589,277.233z"/>
<g>
</g>
<g>
</g>
<g>
</g>
<g>
</g>
<g>
</g>
<g>
</g>
<g>
</g>
<g>
</g>
<g>
</g>
<g>
</g>
<g>
</g>
<g>
</g>
<g>
</g>
<g>
</g>
<g>
</g>
</svg>
