<?xml version="1.0" encoding="iso-8859-1"?>
<!-- Generator: Adobe Illustrator 19.0.0, SVG Export Plug-In . SVG Version: 6.00 Build 0)  -->
<svg xmlns="http://www.w3.org/2000/svg" xmlns:xlink="http://www.w3.org/1999/xlink" version="1.1" id="Layer_1" x="0px" y="0px" viewBox="0 0 512 512" style="enable-background:new 0 0 512 512;" xml:space="preserve">
<path style="fill:#ECEDEF;" d="M503.983,486.881H8.017V136.284c0-18.891,15.314-34.205,34.205-34.205h427.557  c18.891,0,34.205,15.314,34.205,34.205V486.881z"/>
<path style="fill:#FF8C78;" d="M503.983,136.284c0-18.891-15.314-34.205-34.205-34.205H42.221  c-18.891,0-34.205,15.314-34.205,34.205v34.205h495.967V136.284z"/>
<path style="fill:#D9DCDF;" d="M67.875,102.079H42.221c-18.891,0-34.205,15.314-34.205,34.205v350.597H33.67V136.284  C33.67,117.393,48.984,102.079,67.875,102.079z"/>
<path style="fill:#DF7A6E;" d="M67.875,102.079H42.221c-18.891,0-34.205,15.314-34.205,34.205v34.205H33.67v-34.205  C33.67,117.393,48.984,102.079,67.875,102.079z"/>
<g>
	<circle style="fill:#8E959F;" cx="127.733" cy="256" r="51.307"/>
	<path style="fill:#8E959F;" d="M204.693,452.676H50.772v-94.063c0-18.891,15.314-34.205,34.205-34.205h85.511   c18.891,0,34.205,15.314,34.205,34.205V452.676z"/>
</g>
<path style="fill:#DF7A6E;" d="M202.039,102.435l3.35,43.549c0.322,4.176,3.804,7.402,7.993,7.402h85.236  c4.189,0,7.671-3.225,7.993-7.402l3.35-43.549C309.961,102.435,202.039,102.435,202.039,102.435z"/>
<path style="fill:#FFC44F;" d="M213.244,25.119l8.551,111.165h68.409l8.551-111.165H213.244z M256,84.977  c-9.446,0-17.102-7.658-17.102-17.102S246.554,50.772,256,50.772c9.446,0,17.102,7.658,17.102,17.102S265.446,84.977,256,84.977z"/>
<rect x="256" y="204.693" style="fill:#B3B9BF;" width="205.228" height="34.205"/>
<path d="M469.779,94.063H301.493l5.256-68.329c0.353-4.59-3.394-8.631-7.993-8.631h-85.511c-4.599,0-8.346,4.041-7.993,8.631  l5.256,68.329H42.221C18.941,94.063,0,113.003,0,136.284v256.534c0,4.428,3.589,8.017,8.017,8.017s8.017-3.588,8.017-8.017V178.505  h376.785c4.427,0,8.017-3.588,8.017-8.017c0-4.428-3.589-8.017-8.017-8.017H16.033v-26.188c0-14.441,11.748-26.188,26.188-26.188  H211.74l2.062,26.803c0.322,4.176,3.804,7.402,7.993,7.402h68.409c4.189,0,7.671-3.226,7.993-7.402l2.062-26.803h169.519  c14.44,0,26.188,11.747,26.188,26.188v26.188h-60.392c-4.427,0-8.017,3.588-8.017,8.017c0,4.428,3.589,8.017,8.017,8.017h60.392  v300.359H16.033v-43.29c0-4.428-3.589-8.017-8.017-8.017S0,431.146,0,435.574v51.307c0,4.428,3.589,8.017,8.017,8.017h495.967  c4.427,0,8.017-3.588,8.017-8.017V136.284C512,113.003,493.059,94.063,469.779,94.063z M282.781,128.267H229.22l-7.318-95.132H290.1  L282.781,128.267z"/>
<path d="M127.733,315.324c32.711,0,59.324-26.612,59.324-59.324s-26.612-59.324-59.324-59.324S68.409,223.289,68.409,256  S95.021,315.324,127.733,315.324z M127.733,212.71c23.871,0,43.29,19.42,43.29,43.29s-19.42,43.29-43.29,43.29  s-43.29-19.42-43.29-43.29S103.862,212.71,127.733,212.71z"/>
<path d="M42.756,358.614v94.063c0,4.428,3.589,8.017,8.017,8.017h153.921c4.427,0,8.017-3.588,8.017-8.017v-94.063  c0-23.281-18.941-42.221-42.221-42.221H84.977C61.697,316.392,42.756,335.333,42.756,358.614z M58.789,358.614  c0-14.441,11.748-26.188,26.188-26.188h85.511c14.44,0,26.188,11.747,26.188,26.188v86.046H58.789V358.614z"/>
<path d="M461.228,290.739h-85.511c-4.427,0-8.017,3.588-8.017,8.017s3.589,8.017,8.017,8.017h85.511  c4.427,0,8.017-3.588,8.017-8.017S465.655,290.739,461.228,290.739z"/>
<path d="M256,375.182h205.228c4.427,0,8.017-3.588,8.017-8.017c0-4.428-3.589-8.017-8.017-8.017H256  c-4.427,0-8.017,3.588-8.017,8.017C247.983,371.593,251.573,375.182,256,375.182z"/>
<path d="M256,443.591h119.716c4.427,0,8.017-3.588,8.017-8.017s-3.589-8.017-8.017-8.017H256c-4.427,0-8.017,3.588-8.017,8.017  S251.573,443.591,256,443.591z"/>
<path d="M256,306.772h85.511c4.427,0,8.017-3.588,8.017-8.017s-3.589-8.017-8.017-8.017H256c-4.427,0-8.017,3.588-8.017,8.017  S251.573,306.772,256,306.772z"/>
<path d="M256,92.994c13.851,0,25.119-11.268,25.119-25.119S269.851,42.756,256,42.756s-25.119,11.268-25.119,25.119  S242.149,92.994,256,92.994z M256,58.789c5.01,0,9.086,4.076,9.086,9.086S261.01,76.96,256,76.96c-5.01,0-9.086-4.076-9.086-9.086  S250.99,58.789,256,58.789z"/>
<path d="M469.244,204.693c0-4.428-3.589-8.017-8.017-8.017H256c-4.427,0-8.017,3.588-8.017,8.017v34.205  c0,4.428,3.589,8.017,8.017,8.017h205.228c4.427,0,8.017-3.588,8.017-8.017V204.693z M453.211,230.881H264.017V212.71h189.194  V230.881z"/>
<g>
</g>
<g>
</g>
<g>
</g>
<g>
</g>
<g>
</g>
<g>
</g>
<g>
</g>
<g>
</g>
<g>
</g>
<g>
</g>
<g>
</g>
<g>
</g>
<g>
</g>
<g>
</g>
<g>
</g>
</svg>
