<?xml version="1.0" encoding="iso-8859-1"?>
<!-- Generator: Adobe Illustrator 19.0.0, SVG Export Plug-In . SVG Version: 6.00 Build 0)  -->
<svg xmlns="http://www.w3.org/2000/svg" xmlns:xlink="http://www.w3.org/1999/xlink" version="1.1" id="Layer_1" x="0px" y="0px" viewBox="0 0 512 512" style="enable-background:new 0 0 512 512;" xml:space="preserve">
<path style="fill:#F6F6F7;" d="M245.664,15.858L8.017,196.142v307.841h495.967V196.142L266.336,15.858  C260.225,11.222,251.775,11.222,245.664,15.858z"/>
<polygon style="fill:#D9DCDF;" points="346.176,76.426 165.824,76.426 8.017,196.142 8.017,213.244 503.983,213.244   503.983,196.142 "/>
<rect x="42.221" y="102.079" style="fill:#C4DF64;" width="427.557" height="273.637"/>
<path style="fill:#A6C451;" d="M435.574,298.756c-23.613,0-42.756,19.143-42.756,42.756H119.182  c0-23.613-19.143-42.756-42.756-42.756V179.04c23.613,0,42.756-19.143,42.756-42.756h273.637c0,23.613,19.143,42.756,42.756,42.756  V298.756z"/>
<circle style="fill:#FFC44F;" cx="256" cy="238.898" r="76.96"/>
<polygon style="fill:#F6F6F7;" points="503.983,196.142 8.017,503.983 503.983,503.983 "/>
<polygon style="fill:#D9DCDF;" points="285.622,331.677 8.017,503.983 503.983,503.983 503.983,465.629 "/>
<polygon style="fill:#F6F6F7;" points="8.017,196.142 503.983,503.983 8.017,503.983 "/>
<path d="M340.977,238.898c0-46.857-38.121-84.977-84.977-84.977s-84.977,38.12-84.977,84.977s38.121,84.977,84.977,84.977  S340.977,285.755,340.977,238.898z M187.056,238.898c0-38.015,30.928-68.944,68.944-68.944s68.944,30.928,68.944,68.944  S294.015,307.841,256,307.841S187.056,276.913,187.056,238.898z"/>
<path d="M264.017,290.205V279.8c9.93-3.354,17.102-12.752,17.102-23.8c0-13.851-11.268-25.119-25.119-25.119  c-5.01,0-9.086-4.076-9.086-9.086s4.076-9.086,9.086-9.086h17.102c4.427,0,8.017-3.588,8.017-8.017s-3.589-8.017-8.017-8.017h-9.086  v-9.086c0-4.428-3.589-8.017-8.017-8.017c-4.427,0-8.017,3.588-8.017,8.017v10.405c-9.93,3.354-17.102,12.752-17.102,23.8  c0,13.851,11.268,25.119,25.119,25.119c5.01,0,9.086,4.076,9.086,9.086s-4.076,9.086-9.086,9.086h-17.102  c-4.427,0-8.017,3.588-8.017,8.017s3.589,8.017,8.017,8.017h9.086v9.086c0,4.428,3.589,8.017,8.017,8.017  C260.427,298.221,264.017,294.633,264.017,290.205z"/>
<path d="M511.26,507.332c0.48-1.041,0.74-2.2,0.74-3.349V196.142c0-2.482-1.197-4.886-3.171-6.388l-31.033-23.541v-64.134  c0-4.428-3.589-8.017-8.017-8.017h-87.09L271.182,9.47c-8.938-6.781-21.424-6.781-30.362,0L129.312,94.063h-87.09  c-4.427,0-8.017,3.588-8.017,8.017v64.134L3.171,189.754C1.196,191.256,0,193.66,0,196.142v307.841C0,508.412,3.589,512,8.017,512  h342.046c4.427,0,8.017-3.588,8.017-8.017s-3.589-8.017-8.017-8.017H16.033V210.553l459.833,285.414h-83.048  c-4.427,0-8.017,3.588-8.017,8.017s3.589,8.017,8.017,8.017H503.96C507.073,512,509.955,510.151,511.26,507.332z M271.201,350.063  l224.766-139.51v279.02L271.201,350.063z M84.443,234.144v-47.721c21.588-3.439,38.684-20.535,42.124-42.123h258.868  c3.439,21.588,20.535,38.684,42.124,42.123v47.721L256.001,340.628L84.443,234.144z M477.795,186.338l12.052,9.142l-12.052,7.481  V186.338z M50.238,110.096h163.006c4.427,0,8.017-3.588,8.017-8.017c0-4.428-3.589-8.017-8.017-8.017H155.84l94.669-71.817  c3.233-2.453,7.748-2.453,10.982,0l94.669,71.817H256c-4.427,0-8.017,3.588-8.017,8.017c0,4.428,3.589,8.017,8.017,8.017h205.762  v102.817l-18.171,11.279V179.04c0-4.428-3.589-8.017-8.017-8.017c-19.155,0-34.739-15.583-34.739-34.739  c0-4.428-3.589-8.017-8.017-8.017H119.182c-4.427,0-8.017,3.588-8.017,8.017c0,19.156-15.584,34.739-34.739,34.739  c-4.427,0-8.017,3.588-8.017,8.017v45.152l-18.171-11.279V110.096z M34.205,202.962l-12.052-7.481l12.052-9.142V202.962z"/>
<path d="M341.511,33.136h9.086v9.086c0,4.428,3.589,8.017,8.017,8.017c4.427,0,8.017-3.588,8.017-8.017v-9.086h9.086  c4.427,0,8.017-3.588,8.017-8.017s-3.589-8.017-8.017-8.017h-9.086V8.017c0-4.428-3.589-8.017-8.017-8.017  c-4.427,0-8.017,3.588-8.017,8.017v9.086h-9.086c-4.427,0-8.017,3.588-8.017,8.017S337.084,33.136,341.511,33.136z"/>
<path d="M67.875,58.789h9.086v9.086c0,4.428,3.589,8.017,8.017,8.017c4.427,0,8.017-3.588,8.017-8.017v-9.086h9.086  c4.427,0,8.017-3.588,8.017-8.017s-3.589-8.017-8.017-8.017h-9.086V33.67c0-4.428-3.589-8.017-8.017-8.017  c-4.427,0-8.017,3.588-8.017,8.017v9.086h-9.086c-4.427,0-8.017,3.588-8.017,8.017S63.447,58.789,67.875,58.789z"/>
<path d="M409.921,58.789h9.086v9.086c0,4.428,3.589,8.017,8.017,8.017c4.427,0,8.017-3.588,8.017-8.017v-9.086h9.086  c4.427,0,8.017-3.588,8.017-8.017s-3.589-8.017-8.017-8.017h-9.086V33.67c0-4.428-3.589-8.017-8.017-8.017  c-4.427,0-8.017,3.588-8.017,8.017v9.086h-9.086c-4.427,0-8.017,3.588-8.017,8.017S405.493,58.789,409.921,58.789z"/>
<path d="M136.284,33.136h9.086v9.086c0,4.428,3.589,8.017,8.017,8.017c4.427,0,8.017-3.588,8.017-8.017v-9.086h9.086  c4.427,0,8.017-3.588,8.017-8.017s-3.589-8.017-8.017-8.017h-9.086V8.017c0-4.428-3.589-8.017-8.017-8.017  c-4.427,0-8.017,3.588-8.017,8.017v9.086h-9.086c-4.427,0-8.017,3.588-8.017,8.017S131.857,33.136,136.284,33.136z"/>
<g>
</g>
<g>
</g>
<g>
</g>
<g>
</g>
<g>
</g>
<g>
</g>
<g>
</g>
<g>
</g>
<g>
</g>
<g>
</g>
<g>
</g>
<g>
</g>
<g>
</g>
<g>
</g>
<g>
</g>
</svg>
