<?xml version="1.0" encoding="iso-8859-1"?>
<!-- Generator: Adobe Illustrator 19.0.0, SVG Export Plug-In . SVG Version: 6.00 Build 0)  -->
<svg xmlns="http://www.w3.org/2000/svg" xmlns:xlink="http://www.w3.org/1999/xlink" version="1.1" id="Layer_1" x="0px" y="0px" viewBox="0 0 512 512" style="enable-background:new 0 0 512 512;" xml:space="preserve">
<rect x="33.67" y="67.875" style="fill:#F6F6F7;" width="444.66" height="316.392"/>
<rect x="8.017" y="375.716" style="fill:#509FE8;" width="495.967" height="25.653"/>
<g>
	<rect x="136.284" y="247.449" style="fill:#FFC44F;" width="51.307" height="76.96"/>
	<rect x="230.347" y="213.244" style="fill:#FFC44F;" width="51.307" height="111.165"/>
</g>
<polygon style="fill:#FF8C78;" points="401.37,173.601 350.063,119.182 298.756,173.601 324.409,173.601 324.409,324.409   375.716,324.409 375.716,173.601 "/>
<rect x="33.67" y="350.063" style="fill:#D9DCDF;" width="444.66" height="25.653"/>
<rect x="8.017" y="392.818" style="fill:#4D8CCF;" width="495.967" height="8.551"/>
<rect x="33.67" y="67.875" style="fill:#D9DCDF;" width="444.66" height="25.653"/>
<path d="M503.983,367.699h-17.637V75.891h17.637c4.428,0,8.017-3.589,8.017-8.017s-3.588-8.017-8.017-8.017h-137.38  c0.012-0.177,0.027-0.354,0.027-0.534v-8.551c0-4.427-3.588-8.017-8.017-8.017c-4.428,0-8.017,3.589-8.017,8.017v4.131l-86.58-43.29  V8.017C264.017,3.589,260.428,0,256,0c-4.428,0-8.017,3.589-8.017,8.017v3.597l-86.58,43.29v-4.131c0-4.427-3.588-8.017-8.017-8.017  c-4.428,0-8.017,3.589-8.017,8.017v8.551c0,0.181,0.015,0.357,0.027,0.534H8.017C3.588,59.858,0,63.447,0,67.875  s3.588,8.017,8.017,8.017h17.637v205.762c0,4.427,3.588,8.017,8.017,8.017s8.017-3.589,8.017-8.017V75.891h428.626v291.808H41.687  v-43.29c0-4.427-3.588-8.017-8.017-8.017s-8.017,3.589-8.017,8.017v43.29H8.017c-4.428,0-8.017,3.589-8.017,8.017v25.653  c0,4.427,3.588,8.017,8.017,8.017h239.967v48.52l-40.408,40.408c-3.131,3.131-3.131,8.207,0,11.337  c3.132,3.131,8.207,3.131,11.338,0l29.071-29.071v23.402c0,4.427,3.588,8.017,8.017,8.017c4.428,0,8.017-3.589,8.017-8.017v-23.402  l29.07,29.071c3.261,3.26,8.766,3.041,11.764-0.46c2.686-3.137,2.493-7.959-0.425-10.877l-40.408-40.408v-48.52h120.251  c4.428,0,8.017-3.589,8.017-8.017c0-4.427-3.588-8.017-8.017-8.017H16.033v-9.62h479.933v9.62h-68.944  c-4.428,0-8.017,3.589-8.017,8.017c0,4.427,3.588,8.017,8.017,8.017h76.96c4.428,0,8.017-3.589,8.017-8.017v-25.653  C512,371.289,508.412,367.699,503.983,367.699z M324.654,59.858h-60.637V29.539L324.654,59.858z M247.983,59.858h-60.637  l60.637-30.319V59.858z"/>
<path d="M187.591,239.432h-51.307c-4.428,0-8.017,3.589-8.017,8.017v68.944h-26.188c-4.428,0-8.017,3.589-8.017,8.017  c0,4.427,3.588,8.017,8.017,8.017h307.841c4.428,0,8.017-3.589,8.017-8.017c0-4.427-3.588-8.017-8.017-8.017h-26.188V181.618h17.637  c6.874,0,10.561-8.502,5.833-13.516l-51.307-54.42c-3.118-3.307-8.548-3.307-11.666,0l-51.307,54.42  c-4.727,5.014-1.042,13.516,5.833,13.516h17.637v134.775H289.67V213.244c0-4.427-3.588-8.017-8.017-8.017h-51.307  c-4.428,0-8.017,3.589-8.017,8.017v103.148h-26.722v-68.944C195.608,243.021,192.019,239.432,187.591,239.432z M144.301,316.392  v-60.927h35.273v60.927H144.301z M324.409,165.584h-7.077l32.731-34.717l32.731,34.717h-7.077c-4.428,0-8.017,3.589-8.017,8.017  v142.791h-35.273V173.601C332.426,169.174,328.838,165.584,324.409,165.584z M238.363,221.261h35.273v95.132h-35.273V221.261z"/>
<g>
</g>
<g>
</g>
<g>
</g>
<g>
</g>
<g>
</g>
<g>
</g>
<g>
</g>
<g>
</g>
<g>
</g>
<g>
</g>
<g>
</g>
<g>
</g>
<g>
</g>
<g>
</g>
<g>
</g>
</svg>
