<?xml version="1.0" encoding="iso-8859-1"?>
<!-- Generator: Adobe Illustrator 19.0.0, SVG Export Plug-In . SVG Version: 6.00 Build 0)  -->
<svg xmlns="http://www.w3.org/2000/svg" xmlns:xlink="http://www.w3.org/1999/xlink" version="1.1" id="Layer_1" x="0px" y="0px" viewBox="0 0 512 512" style="enable-background:new 0 0 512 512;" xml:space="preserve">
<path style="fill:#F6F6F7;" d="M461.228,418.472H50.772V153.386c0-9.446,7.656-17.102,17.102-17.102h376.251  c9.446,0,17.102,7.656,17.102,17.102V418.472z"/>
<g>
	<path style="fill:#68727E;" d="M461.228,153.386c0-9.445-7.658-17.102-17.102-17.102H67.875c-9.446,0-17.102,7.658-17.102,17.102   v17.102h410.455V153.386z"/>
	<path style="fill:#68727E;" d="M503.983,409.921H8.017v8.551c0,18.891,15.314,34.205,34.205,34.205h427.557   c18.891,0,34.205-15.314,34.205-34.205V409.921z"/>
</g>
<path style="fill:#424F5E;" d="M13.248,436.643c6.052,9.629,16.762,16.033,28.973,16.033h427.557  c12.212,0,22.922-6.405,28.973-16.033H13.248z"/>
<rect x="332.96" y="256" style="fill:#FFC44F;" width="171.023" height="119.716"/>
<path style="fill:#F7AB49;" d="M332.96,281.653l79.843,79.843c3.131,3.131,8.207,3.131,11.338,0l79.842-79.843V256H332.96V281.653z"/>
<polygon style="fill:#FFC44F;" points="332.96,256 418.472,341.511 503.983,256 "/>
<circle style="fill:#C4DF64;" cx="256" cy="341.511" r="17.102"/>
<path style="fill:#FF8C78;" d="M196.142,136.284c0-42.505-42.113-76.96-94.063-76.96S8.017,93.779,8.017,136.284  c0,42.503,42.113,76.96,94.063,76.96c5.451,0,10.793-0.384,15.99-1.113l52.42,35.317l-17.102-46.656  C179.125,187.061,196.142,163.299,196.142,136.284z"/>
<path style="fill:#DF7A6E;" d="M33.67,136.284c0-38.944,35.356-71.126,81.236-76.245c-4.194-0.468-8.475-0.715-12.827-0.715  c-51.949,0-94.063,34.456-94.063,76.96c0,42.503,42.113,76.96,94.063,76.96c4.339,0,8.605-0.253,12.787-0.719  C69.006,207.391,33.67,175.216,33.67,136.284z"/>
<rect x="50.772" y="392.818" style="fill:#D9DCDF;" width="410.455" height="17.102"/>
<path d="M503.983,383.733c4.428,0,8.017-3.589,8.017-8.017V256c0-4.348-3.67-8.017-8.017-8.017h-34.739v-94.597  c0-13.851-11.268-25.119-25.119-25.119H203.701c-4.869-43.111-48.582-76.96-101.622-76.96C45.792,51.307,0,89.428,0,136.284  c0,28.454,16.887,53.683,42.756,69.114v130.77c0,4.427,3.588,8.017,8.017,8.017s8.017-3.589,8.017-8.017V213.229  c13.151,5.148,27.822,8.032,43.29,8.032c4.671,0,9.371-0.267,14.009-0.797l49.921,33.634c3.09,2.082,7.321,1.719,10.016-0.852  c2.284-2.181,3.078-5.59,1.991-8.555l-14.782-40.325c11.378-7.07,20.685-15.901,27.536-25.888c0.186,0.013,0.372,0.029,0.562,0.029  h261.879v69.478H332.96c-4.364,0-8.017,3.661-8.017,8.017v119.716c0,4.427,3.588,8.017,8.017,8.017h120.251v18.171H58.789v-24.05  c0-4.427-3.588-8.017-8.017-8.017s-8.017,3.589-8.017,8.017v24.049H8.017c-4.428,0-8.017,3.589-8.017,8.017v8.551  c0,23.28,18.941,42.221,42.221,42.221h335.098c4.428,0,8.017-3.589,8.017-8.017c0-4.427-3.588-8.017-8.017-8.017H42.221  c-14.441,0-26.188-11.748-26.188-26.188v-0.534h479.933v0.534c0,14.44-11.747,26.188-26.188,26.188h-51.841  c-4.428,0-8.017,3.589-8.017,8.017c0,4.427,3.588,8.017,8.017,8.017h51.841c23.28,0,42.221-18.941,42.221-42.221v-8.551  c0-4.427-3.588-8.017-8.017-8.017h-34.739v-18.171H503.983z M149.613,193.719c-3.528,1.882-5.13,6.078-3.754,9.832l8.585,23.423  l-31.897-21.49c-3.017-2.032-6.342-1.133-9.697-0.796c-3.578,0.359-7.174,0.541-10.771,0.541c-47.446,0-86.046-30.928-86.046-68.944  s38.6-68.944,86.046-68.944s86.046,30.928,86.046,68.944C188.125,159.383,173.727,180.854,149.613,193.719z M199.236,162.472  c2.26-5.847,3.77-11.933,4.469-18.171h240.42c5.01,0,9.086,4.076,9.086,9.086v9.086H199.236z M484.63,264.017l-66.158,66.158  l-66.158-66.158H484.63z M340.977,275.354l71.825,71.825c3.089,3.088,8.249,3.088,11.338,0l71.826-71.825v92.345h-154.99V275.354z"/>
<path d="M256,316.392c-13.851,0-25.119,11.268-25.119,25.119c0,13.851,11.268,25.119,25.119,25.119  c13.851,0,25.119-11.268,25.119-25.119C281.119,327.661,269.851,316.392,256,316.392z M256,350.597c-5.01,0-9.086-4.076-9.086-9.086  c0-5.01,4.076-9.086,9.086-9.086c5.01,0,9.086,4.076,9.086,9.086C265.086,346.521,261.01,350.597,256,350.597z"/>
<path d="M288.595,301.085c2.217-3.832,0.908-8.736-2.924-10.954c-8.982-5.196-19.241-7.943-29.67-7.943  c-10.427,0-20.686,2.746-29.667,7.941c-3.833,2.217-5.144,7.121-2.926,10.954c2.216,3.832,7.124,5.144,10.953,2.926  c6.545-3.786,14.028-5.787,21.64-5.787c7.613,0,15.096,2.002,21.641,5.788c1.264,0.732,2.644,1.08,4.007,1.08  C284.415,305.088,287.109,303.652,288.595,301.085z"/>
<path d="M305.692,271.452c2.217-3.832,0.908-8.736-2.926-10.953c-14.155-8.188-30.327-12.516-46.766-12.516  c-16.441,0-32.614,4.328-46.77,12.517c-3.832,2.217-5.142,7.121-2.924,10.954c1.487,2.569,4.178,4.004,6.947,4.004  c1.362,0,2.743-0.348,4.007-1.079c11.719-6.779,25.116-10.363,38.741-10.363c13.624,0,27.02,3.583,38.739,10.361  C298.572,276.595,303.476,275.285,305.692,271.452z"/>
<path d="M317.684,246.911c2.718,0,5.369-1.382,6.874-3.881c2.285-3.792,1.062-8.719-2.73-11.003  c-19.815-11.938-42.578-18.248-65.828-18.248c-22.454,0-44.541,5.911-63.873,17.094c-3.833,2.217-5.144,7.121-2.926,10.954  c2.217,3.833,7.122,5.142,10.953,2.926c16.896-9.774,36.207-14.94,55.845-14.94c20.334,0,40.236,5.514,57.555,15.948  C314.849,246.54,316.275,246.911,317.684,246.911z"/>
<path d="M106.355,128.267h-8.551c-4.428,0-8.017,3.589-8.017,8.017c0,4.427,3.588,8.017,8.017,8.017h8.551  c4.428,0,8.017-3.589,8.017-8.017C114.372,131.857,110.783,128.267,106.355,128.267z"/>
<path d="M72.15,128.267h-8.551c-4.428,0-8.017,3.589-8.017,8.017c0,4.427,3.588,8.017,8.017,8.017h8.551  c4.428,0,8.017-3.589,8.017-8.017C80.167,131.857,76.579,128.267,72.15,128.267z"/>
<path d="M140.56,128.267h-8.551c-4.428,0-8.017,3.589-8.017,8.017c0,4.427,3.588,8.017,8.017,8.017h8.551  c4.428,0,8.017-3.589,8.017-8.017C148.576,131.857,144.988,128.267,140.56,128.267z"/>
<g>
</g>
<g>
</g>
<g>
</g>
<g>
</g>
<g>
</g>
<g>
</g>
<g>
</g>
<g>
</g>
<g>
</g>
<g>
</g>
<g>
</g>
<g>
</g>
<g>
</g>
<g>
</g>
<g>
</g>
</svg>
