<?xml version="1.0" encoding="UTF-8" standalone="no"?>
<!-- Generator: Adobe Illustrator 19.0.0, SVG Export Plug-In . SVG Version: 6.00 Build 0)  -->

<svg
   xmlns:dc="http://purl.org/dc/elements/1.1/"
   xmlns:cc="http://creativecommons.org/ns#"
   xmlns:rdf="http://www.w3.org/1999/02/22-rdf-syntax-ns#"
   xmlns:svg="http://www.w3.org/2000/svg"
   xmlns="http://www.w3.org/2000/svg"
   xmlns:sodipodi="http://sodipodi.sourceforge.net/DTD/sodipodi-0.dtd"
   xmlns:inkscape="http://www.inkscape.org/namespaces/inkscape"
   version="1.1"
   id="Layer_1"
   x="0px"
   y="0px"
   viewBox="0 0 512 512"
   style="enable-background:new 0 0 512 512;"
   xml:space="preserve"
   sodipodi:docname="029-file.svg"
   inkscape:version="0.92.1 r15371"><metadata
     id="metadata55"><rdf:RDF><cc:Work
         rdf:about=""><dc:format>image/svg+xml</dc:format><dc:type
           rdf:resource="http://purl.org/dc/dcmitype/StillImage" /></cc:Work></rdf:RDF></metadata><defs
     id="defs53" /><sodipodi:namedview
     pagecolor="#ffffff"
     bordercolor="#666666"
     borderopacity="1"
     objecttolerance="10"
     gridtolerance="10"
     guidetolerance="10"
     inkscape:pageopacity="0"
     inkscape:pageshadow="2"
     inkscape:window-width="1920"
     inkscape:window-height="995"
     id="namedview51"
     showgrid="false"
     inkscape:zoom="0.4609375"
     inkscape:cx="-131.25424"
     inkscape:cy="256"
     inkscape:window-x="0"
     inkscape:window-y="24"
     inkscape:window-maximized="1"
     inkscape:current-layer="Layer_1" /><polygon
     style="fill:#ECEDEF;"
     points="363.958,50.772 106.355,50.772 106.355,503.983 448.401,503.983 448.401,135.215 "
     id="polygon2" /><polygon
     style="fill:#F6F6F7;"
     points="363.958,135.215 448.401,135.215 363.958,50.772 "
     id="polygon4" /><path
     style="fill:#D9DCDF;"
     d="M329.219,367.165H106.355V119.182h222.864c4.427,0,8.017,3.589,8.017,8.017v231.95  C337.236,363.576,333.647,367.165,329.219,367.165z"
     id="path6" /><rect
     x="63.599"
     y="93.528"
     style="fill:#FFC44F;"
     width="247.983"
     height="247.983"
     id="rect8" /><path
     d="M448.401,392.284c4.427,0,8.017-3.589,8.017-8.017V135.215c0-2.1-0.863-4.184-2.348-5.668l-84.443-84.443  c-1.486-1.486-3.568-2.348-5.668-2.348H234.088V25.119C234.088,11.268,222.819,0,208.969,0h-42.756  c-13.851,0-25.119,11.268-25.119,25.119v17.637h-34.739c-4.427,0-8.017,3.589-8.017,8.017v34.739H63.599  c-4.427,0-8.017,3.589-8.017,8.017v51.307c0,4.427,3.589,8.017,8.017,8.017s8.017-3.589,8.017-8.017v-43.29h69.478v34.739  c0,13.851,11.268,25.119,25.119,25.119h17.102c13.851,0,25.119-11.268,25.119-25.119v-34.739h95.132v231.95H71.616V187.591  c0-4.427-3.589-8.017-8.017-8.017s-8.017,3.589-8.017,8.017v153.921c0,4.427,3.589,8.017,8.017,8.017h34.739v154.455  c0,4.427,3.589,8.017,8.017,8.017h342.046c4.427,0,8.017-3.589,8.017-8.017v-76.96c0-4.427-3.589-8.017-8.017-8.017  c-4.427,0-8.017,3.589-8.017,8.017v68.944H114.372V349.528h197.211c4.427,0,8.017-3.589,8.017-8.017v-9.086h60.392  c4.427,0,8.017-3.589,8.017-8.017c0-4.427-3.589-8.017-8.017-8.017h-60.392v-52.376h60.392c4.427,0,8.017-3.589,8.017-8.017  c0-4.427-3.589-8.017-8.017-8.017h-60.392v-52.376h60.392c4.427,0,8.017-3.589,8.017-8.017s-3.589-8.017-8.017-8.017h-60.392V93.528  c0-4.427-3.589-8.017-8.017-8.017H208.434v-9.086c0-4.427-3.589-8.017-8.017-8.017s-8.017,3.589-8.017,8.017v9.086h-35.273V58.789  h198.814v76.426c0,4.427,3.589,8.017,8.017,8.017h76.426v241.036C440.384,388.695,443.973,392.284,448.401,392.284z   M192.401,101.545v34.739c0,5.01-4.076,9.086-9.086,9.086h-17.102c-5.01,0-9.086-4.076-9.086-9.086v-34.739H192.401z   M141.094,85.511h-26.722V58.789h26.722V85.511z M157.127,25.119c0-5.01,4.076-9.086,9.086-9.086h42.756  c5.01,0,9.086,4.076,9.086,9.086v17.637h-60.927V25.119z M371.975,127.198V70.126l57.073,57.073H371.975z"
     id="path10" /><path
     d="M379.992,384.802H174.764c-4.427,0-8.017,3.589-8.017,8.017c0,4.427,3.589,8.017,8.017,8.017h205.228  c4.427,0,8.017-3.589,8.017-8.017C388.008,388.391,384.419,384.802,379.992,384.802z"
     id="path12" /><g
     id="g20" /><g
     id="g22" /><g
     id="g24" /><g
     id="g26" /><g
     id="g28" /><g
     id="g30" /><g
     id="g32" /><g
     id="g34" /><g
     id="g36" /><g
     id="g38" /><g
     id="g40" /><g
     id="g42" /><g
     id="g44" /><g
     id="g46" /><g
     id="g48" /><text
     xml:space="preserve"
     style="font-style:normal;font-variant:normal;font-weight:bold;font-stretch:normal;font-size:108.70928192px;line-height:125%;font-family:sans-serif;-inkscape-font-specification:'sans-serif, Bold';font-variant-ligatures:normal;font-variant-caps:normal;font-variant-numeric:normal;font-feature-settings:normal;text-align:start;letter-spacing:0px;word-spacing:0px;writing-mode:lr-tb;text-anchor:start;fill:#000000;fill-opacity:1;stroke:none;stroke-width:2.7178328px;stroke-linecap:butt;stroke-linejoin:miter;stroke-opacity:1"
     x="102.41798"
     y="233.79776"
     id="text4534"
     transform="scale(0.86270533,1.1591443)"><tspan
       sodipodi:role="line"
       id="tspan4532"
       x="102.41798"
       y="233.79776"
       style="font-style:normal;font-variant:normal;font-weight:bold;font-stretch:normal;font-size:108.70928192px;font-family:sans-serif;-inkscape-font-specification:'sans-serif, Bold';font-variant-ligatures:normal;font-variant-caps:normal;font-variant-numeric:normal;font-feature-settings:normal;text-align:start;writing-mode:lr-tb;text-anchor:start;stroke-width:2.7178328px">TND</tspan></text>
</svg>