<?xml version="1.0" encoding="iso-8859-1"?>
<!-- Generator: Adobe Illustrator 19.0.0, SVG Export Plug-In . SVG Version: 6.00 Build 0)  -->
<svg xmlns="http://www.w3.org/2000/svg" xmlns:xlink="http://www.w3.org/1999/xlink" version="1.1" id="Layer_1" x="0px" y="0px" viewBox="0 0 512 512" style="enable-background:new 0 0 512 512;" xml:space="preserve">
<path style="fill:#ECEDEF;" d="M341.511,503.983H84.977V307.307c0-18.891,15.314-34.205,34.205-34.205h188.125  c18.891,0,34.205,15.314,34.205,34.205V503.983z"/>
<path style="fill:#D9DCDF;" d="M153.386,273.102h-34.205c-18.891,0-34.205,15.314-34.205,34.205v196.676h34.205V307.307  C119.182,288.416,134.496,273.102,153.386,273.102z"/>
<g>
	<circle style="fill:#FFEBC8;" cx="324.409" cy="179.04" r="25.653"/>
	<circle style="fill:#FFEBC8;" cx="102.079" cy="179.04" r="25.653"/>
	<circle style="fill:#FFEBC8;" cx="213.244" cy="153.386" r="102.614"/>
</g>
<path style="fill:#FFD791;" d="M230.347,247.449c-56.672,0-102.614-45.942-102.614-102.614c0-36.784,19.359-69.041,48.44-87.155  c-38.349,14.864-65.542,52.107-65.542,95.707C110.63,210.058,156.573,256,213.244,256c19.888,0,38.45-5.664,54.174-15.458  C255.919,244.999,243.419,247.449,230.347,247.449z"/>
<path style="fill:#68727E;" d="M213.244,42.221h-94.063H93.528l8.551,34.205H67.875c0,0,51.307,125.016,68.409,162.472  c0-17.468,0-47.336,0-68.409c0-23.563,0-42.756,0-42.756h76.96h76.96v111.165c21.08-20.231,34.205-53.988,34.205-85.511  C324.409,91.992,274.639,42.221,213.244,42.221z"/>
<path style="fill:#55606E;" d="M221.984,42.562c-2.884-0.224-5.798-0.341-8.739-0.341h-94.063H93.528l8.551,34.205H67.875  c0,0,51.307,125.016,68.409,162.472c0-13.517,0-34.459,0-53.006c-5.495-12.573-8.551-26.456-8.551-41.056  C127.733,90.979,169.224,46.819,221.984,42.562z"/>
<g>
	<polygon style="fill:#509FE8;" points="230.347,315.858 196.142,315.858 179.04,273.102 247.449,273.102  "/>
	<polygon style="fill:#509FE8;" points="247.449,461.228 213.244,478.33 179.04,461.228 196.142,315.858 230.347,315.858  "/>
</g>
<polygon style="fill:#4D8CCF;" points="230.347,315.858 196.142,315.858 194.088,333.316 232.401,333.316 "/>
<circle style="fill:#FF8C78;" cx="418.472" cy="84.977" r="76.96"/>
<circle style="fill:#D9DCDF;" cx="418.472" cy="84.977" r="51.307"/>
<g>
	<circle style="fill:#F6F6F7;" cx="418.472" cy="84.977" r="34.205"/>
	<polyline style="fill:#F6F6F7;" points="444.125,102.079 418.472,84.977 418.472,59.324  "/>
</g>
<circle style="fill:#FFC44F;" cx="84.977" cy="427.023" r="76.96"/>
<rect x="290.205" y="350.063" style="fill:#68727E;" width="213.779" height="153.921"/>
<polygon style="fill:#424F5E;" points="503.983,397.29 503.983,367.165 290.205,367.165 290.205,395.853 397.094,444.125 "/>
<polygon style="fill:#68727E;" points="503.983,380.187 503.983,350.063 290.205,350.063 290.205,378.751 397.094,427.023 "/>
<rect x="375.716" y="409.921" style="fill:#FFD791;" width="42.756" height="34.205"/>
<rect x="375.716" y="427.023" style="fill:#FFC44F;" width="42.756" height="17.102"/>
<path d="M170.489,162.472h-8.551c-4.427,0-8.017,3.589-8.017,8.017s3.589,8.017,8.017,8.017h8.551c4.427,0,8.017-3.589,8.017-8.017  S174.916,162.472,170.489,162.472z"/>
<path d="M264.551,162.472H256c-4.427,0-8.017,3.589-8.017,8.017s3.589,8.017,8.017,8.017h8.551c4.427,0,8.017-3.589,8.017-8.017  S268.979,162.472,264.551,162.472z"/>
<path d="M88.848,148.086c-12.09,5.2-20.438,17.278-20.438,30.954c0,18.566,15.105,33.67,33.67,33.67  c4.446,0,8.826-0.89,12.886-2.571c5.622,13.155,10.544,24.459,14.026,32.088c1.52,3.33,5.231,5.243,8.825,4.537  c3.383-0.664,6.021-3.503,6.423-6.931c19.476,15.51,43.87,24.183,69.006,24.183c25.139,0,49.536-8.674,69.013-24.189  c0.331,2.832,2.138,5.308,4.804,6.444c2.956,1.259,6.377,0.634,8.695-1.591c9.129-8.762,16.932-19.954,22.965-32.457  c1.871,0.319,3.77,0.485,5.688,0.485c18.566,0,33.67-15.105,33.67-33.67c0-15.638-10.921-29.198-25.872-32.758  C328.519,83.86,276.575,34.205,213.244,34.205H93.528c-5.129,0-9.025,4.977-7.777,9.961l6.061,24.244H67.875  c-5.599,0-9.545,5.871-7.416,11.061C60.716,80.1,73.775,111.907,88.848,148.086z M102.079,196.676  c-9.725,0-17.637-7.912-17.637-17.637c0-7.121,4.313-13.415,10.578-16.165c4.604,11.009,9.256,22.081,13.672,32.513  C106.618,196.227,104.393,196.676,102.079,196.676z M213.244,247.983c-26.023,0-51.119-10.87-68.944-29.833v-82.401h137.887v82.401  C264.364,237.114,239.269,247.983,213.244,247.983z M342.046,179.04c0,9.497-7.551,17.243-16.961,17.603  c3.666-10.796,6.067-22.151,6.954-33.487C337.987,166.032,342.046,172.143,342.046,179.04z M102.079,84.443  c5.129,0,9.025-4.977,7.777-9.961l-6.061-24.244h109.448c56.876,0,103.148,46.272,103.148,103.148  c0,22.14-6.817,45.027-18.171,62.931v-88.585c0-4.427-3.589-8.017-8.017-8.017H136.284c-4.427,0-8.017,3.589-8.017,8.017v72.733  c-16.712-39.201-38.973-93.077-48.426-116.023H102.079z"/>
<path d="M235.157,198.28c-3.542-2.656-8.567-1.938-11.223,1.603c-3.962,5.284-10.416,5.344-10.689,5.344  c-6.607,0-10.524-5.124-10.688-5.342c-2.656-3.542-7.68-4.263-11.223-1.607c-3.542,2.655-4.263,7.68-1.607,11.223  c1.472,1.964,9.524,11.76,23.517,11.76c2.454,0,15.123-0.567,23.516-11.758C239.416,205.961,238.698,200.936,235.157,198.28z"/>
<path d="M418.472,169.954c46.856,0,84.977-38.121,84.977-84.977S465.328,0,418.472,0c-17.419,0-34.163,5.234-48.422,15.138  c-3.636,2.526-4.537,7.521-2.012,11.157c2.525,3.635,7.522,4.537,11.157,2.012c11.561-8.03,25.143-12.273,39.276-12.273  c38.015,0,68.944,30.928,68.944,68.944s-30.928,68.944-68.944,68.944s-68.944-30.928-68.944-68.944  c0-9.101,1.742-17.939,5.18-26.271c1.689-4.093-0.261-8.779-4.354-10.468c-4.093-1.689-8.779,0.261-10.468,4.354  c-4.241,10.281-6.392,21.177-6.392,32.385C333.495,131.833,371.616,169.954,418.472,169.954z"/>
<path d="M418.472,144.301c32.711,0,59.324-26.612,59.324-59.324s-26.612-59.324-59.324-59.324s-59.324,26.612-59.324,59.324  S385.76,144.301,418.472,144.301z M418.472,41.687c23.871,0,43.29,19.42,43.29,43.29s-19.42,43.29-43.29,43.29  c-23.871,0-43.29-19.42-43.29-43.29S394.601,41.687,418.472,41.687z"/>
<path d="M414.025,91.647l25.653,17.102c3.928,2.619,9.406,1.191,11.572-2.994c1.852-3.579,0.673-8.113-2.678-10.347l-22.084-14.722  V59.324c0-4.427-3.589-8.017-8.017-8.017c-4.427,0-8.017,3.589-8.017,8.017v25.653C410.455,87.658,411.794,90.161,414.025,91.647z"/>
<path d="M503.983,342.046h-64.668v-9.086c0-13.851-11.268-25.119-25.119-25.119h-34.205c-13.851,0-25.119,11.268-25.119,25.119  v9.086h-5.344v-34.739c0-23.28-18.941-42.221-42.221-42.221H119.182c-23.281,0-42.221,18.941-42.221,42.221v35.128  C33.851,346.489,0,382.871,0,427.023C0,473.879,38.121,512,84.977,512c0.594,0,102.614,0,102.614,0c4.427,0,8.017-3.589,8.017-8.017  c0-4.427-3.589-8.017-8.017-8.017h-53.026c21.412-15.444,35.389-40.585,35.389-68.944c0-44.152-33.851-80.534-76.96-84.588v-35.128  c0-14.44,11.748-26.188,26.188-26.188h54.43l14.33,35.825l-16.864,143.347c-0.394,3.355,1.355,6.596,4.377,8.107l34.205,17.102  c2.237,1.118,4.933,1.118,7.17,0l34.205-17.102c3.022-1.51,4.772-4.752,4.377-8.107l-16.864-143.347l14.33-35.825h54.43  c14.44,0,26.188,11.748,26.188,26.188v34.739h-43.29c-4.427,0-8.017,3.589-8.017,8.017v145.904h-52.197  c-4.427,0-8.017,3.589-8.017,8.017c0,4.427,3.589,8.017,8.017,8.017h273.993c4.427,0,8.017-3.589,8.017-8.017v-42.756  c0-4.427-3.589-8.017-8.017-8.017c-4.427,0-8.017,3.589-8.017,8.017v34.739H298.221V391.168l69.478,31.376v21.581  c0,4.427,3.589,8.017,8.017,8.017h42.756c4.427,0,8.017-3.589,8.017-8.017v-21.229l69.478-30.443v26.732  c0,4.427,3.589,8.017,8.017,8.017c4.427,0,8.017-3.589,8.017-8.017v-69.122C512,345.635,508.411,342.046,503.983,342.046z   M153.921,427.023c0,38.015-30.928,68.944-68.944,68.944s-68.944-30.928-68.944-68.944s30.928-68.944,68.944-68.944  S153.921,389.008,153.921,427.023z M213.244,469.367l-25.585-12.793l15.611-132.7h19.947l15.611,132.699L213.244,469.367z   M224.919,307.841h-23.35l-10.689-26.722h44.728L224.919,307.841z M370.906,332.96c0-5.01,4.076-9.086,9.086-9.086h34.205  c5.01,0,9.086,4.076,9.086,9.086v9.086h-52.376V332.96z M410.455,436.109h-26.722v-18.171h26.722V436.109z M425.384,405.874  c-1.392-2.373-3.962-3.97-6.913-3.97h-42.756c-2.81,0-5.279,1.448-6.711,3.637l-70.784-31.966v-15.496h197.745v16.868  L425.384,405.874z"/>
<path d="M84.977,419.006c-5.01,0-9.086-3.808-9.086-8.818s4.076-8.818,9.086-8.818h17.102c4.427,0,8.017-3.589,8.017-8.017  c0-4.427-3.589-8.017-8.017-8.017h-9.62v-9.62c0-4.427-3.589-8.017-8.017-8.017c-4.427,0-8.017,3.589-8.017,8.017v10.405  c-9.62,3.354-16.835,12.752-16.835,23.8c0,13.851,11.402,25.119,25.253,25.119c5.01,0,9.153,4.343,9.153,9.353  s-4.008,9.353-9.019,9.353H67.875c-4.427,0-8.017,3.589-8.017,8.017c0,4.427,3.589,8.017,8.017,8.017h8.551v8.551  c0,4.427,3.589,8.017,8.017,8.017c4.427,0,8.017-3.589,8.017-8.017v-10.405c10.689-3.354,17.37-12.752,17.37-23.8  C109.829,430.275,98.828,419.006,84.977,419.006z"/>
<g>
</g>
<g>
</g>
<g>
</g>
<g>
</g>
<g>
</g>
<g>
</g>
<g>
</g>
<g>
</g>
<g>
</g>
<g>
</g>
<g>
</g>
<g>
</g>
<g>
</g>
<g>
</g>
<g>
</g>
</svg>
