<?xml version="1.0" encoding="iso-8859-1"?>
<!-- Generator: Adobe Illustrator 19.0.0, SVG Export Plug-In . SVG Version: 6.00 Build 0)  -->
<svg xmlns="http://www.w3.org/2000/svg" xmlns:xlink="http://www.w3.org/1999/xlink" version="1.1" id="Layer_1" x="0px" y="0px" viewBox="0 0 512 512" style="enable-background:new 0 0 512 512;" xml:space="preserve">
<rect x="42.221" y="24.864" style="fill:#FF8C78;" width="102.614" height="307.841"/>
<g>
	<rect x="67.875" y="50.516" style="fill:#ECEDEF;" width="51.307" height="145.37"/>
	<circle style="fill:#ECEDEF;" cx="93.528" cy="289.948" r="17.102"/>
</g>
<rect x="170.489" y="24.864" style="fill:#FFC44F;" width="102.614" height="307.841"/>
<g>
	<rect x="196.142" y="50.516" style="fill:#ECEDEF;" width="51.307" height="145.37"/>
	<circle style="fill:#ECEDEF;" cx="221.795" cy="289.948" r="17.102"/>
</g>
<rect x="350.05" y="16.569" transform="matrix(-0.9545 0.2981 -0.2981 -0.9545 835.2847 213.5689)" style="fill:#C4DF64;" width="102.61" height="307.831"/>
<polygon style="fill:#A6C451;" points="306.511,38.861 398.279,332.706 413.279,328.022 321.564,34.16 "/>
<g>
	
		<rect x="359.136" y="44.746" transform="matrix(-0.9545 0.2981 -0.2981 -0.9545 787.0881 114.8087)" style="fill:#ECEDEF;" width="51.305" height="145.365"/>
	<circle style="fill:#ECEDEF;" cx="434.505" cy="276.597" r="17.102"/>
</g>
<g>
	<rect x="59.324" y="375.459" style="fill:#68727E;" width="34.205" height="128.267"/>
	<rect x="418.472" y="375.459" style="fill:#68727E;" width="34.205" height="128.267"/>
	<path style="fill:#68727E;" d="M486.881,409.666H25.119c-9.446,0-17.102-7.656-17.102-17.102v-17.102   c0-9.446,7.656-17.102,17.102-17.102h461.762c9.446,0,17.102,7.656,17.102,17.102v17.102   C503.983,402.01,496.327,409.666,486.881,409.666z"/>
</g>
<path style="fill:#55606E;" d="M25.119,409.666h461.762c9.445,0,17.102-7.656,17.102-17.102H8.017  C8.017,402.01,15.674,409.666,25.119,409.666z"/>
<g>
	<rect x="59.324" y="409.664" style="fill:#424F5E;" width="34.205" height="25.653"/>
	<rect x="418.472" y="409.664" style="fill:#424F5E;" width="34.205" height="25.653"/>
</g>
<rect x="42.221" y="24.864" style="fill:#DF7A6E;" width="17.102" height="307.841"/>
<rect x="170.489" y="24.864" style="fill:#F7AB49;" width="17.102" height="307.841"/>
<path d="M42.221,340.722h102.614c4.428,0,8.017-3.589,8.017-8.017V24.864c0-4.427-3.588-8.017-8.017-8.017H42.221  c-4.428,0-8.017,3.589-8.017,8.017v307.841C34.205,337.133,37.793,340.722,42.221,340.722z M50.238,32.881h86.58v291.808h-86.58  V32.881z"/>
<path d="M119.182,42.501H67.875c-4.428,0-8.017,3.589-8.017,8.017v145.37c0,4.427,3.588,8.017,8.017,8.017h51.307  c4.428,0,8.017-3.589,8.017-8.017V50.518C127.198,46.09,123.61,42.501,119.182,42.501z M111.165,187.871H75.891V58.535h35.273  V187.871z"/>
<path d="M93.528,264.831c-13.851,0-25.119,11.268-25.119,25.119c0,13.851,11.268,25.119,25.119,25.119s25.119-11.268,25.119-25.119  C118.647,276.099,107.379,264.831,93.528,264.831z M93.528,299.036c-5.01,0-9.086-4.076-9.086-9.086s4.076-9.086,9.086-9.086  c5.01,0,9.086,4.076,9.086,9.086S98.538,299.036,93.528,299.036z"/>
<path d="M110.63,213.524H76.426c-4.428,0-8.017,3.589-8.017,8.017s3.588,8.017,8.017,8.017h34.205c4.428,0,8.017-3.589,8.017-8.017  S115.059,213.524,110.63,213.524z"/>
<path d="M110.63,239.178H76.426c-4.428,0-8.017,3.589-8.017,8.017s3.588,8.017,8.017,8.017h34.205c4.428,0,8.017-3.589,8.017-8.017  S115.059,239.178,110.63,239.178z"/>
<path d="M170.489,340.722h102.614c4.428,0,8.017-3.589,8.017-8.017V24.864c0-4.427-3.588-8.017-8.017-8.017H170.489  c-4.428,0-8.017,3.589-8.017,8.017v307.841C162.472,337.133,166.06,340.722,170.489,340.722z M178.505,32.881h86.58v291.808h-86.58  V32.881z"/>
<path d="M247.449,42.501h-51.307c-4.428,0-8.017,3.589-8.017,8.017v145.37c0,4.427,3.588,8.017,8.017,8.017h51.307  c4.428,0,8.017-3.589,8.017-8.017V50.518C255.466,46.09,251.877,42.501,247.449,42.501z M239.432,187.871h-35.273V58.535h35.273  V187.871z"/>
<path d="M221.795,264.831c-13.851,0-25.119,11.268-25.119,25.119c0,13.851,11.268,25.119,25.119,25.119  c13.851,0,25.119-11.268,25.119-25.119C246.914,276.099,235.646,264.831,221.795,264.831z M221.795,299.036  c-5.01,0-9.086-4.076-9.086-9.086s4.076-9.086,9.086-9.086s9.086,4.076,9.086,9.086S226.805,299.036,221.795,299.036z"/>
<path d="M238.898,213.524h-34.205c-4.428,0-8.017,3.589-8.017,8.017s3.588,8.017,8.017,8.017h34.205  c4.428,0,8.017-3.589,8.017-8.017S243.326,213.524,238.898,213.524z"/>
<path d="M238.898,239.178h-34.205c-4.428,0-8.017,3.589-8.017,8.017s3.588,8.017,8.017,8.017h34.205  c4.428,0,8.017-3.589,8.017-8.017S243.326,239.178,238.898,239.178z"/>
<path d="M390.627,335.096c1.299,4.16,5.869,6.566,10.042,5.262l97.948-30.59c4.226-1.32,6.582-5.816,5.263-10.042l-41.186-131.88  c-1.32-4.226-5.817-6.581-10.042-5.262c-4.226,1.32-6.582,5.816-5.263,10.042l38.797,124.228l-82.644,25.81l-86.99-278.54  l82.644-25.81l37.507,120.1c1.32,4.225,5.815,6.584,10.042,5.262c4.226-1.32,6.582-5.816,5.263-10.042L412.112,5.882  c-1.32-4.226-5.816-6.578-10.042-5.262l-97.948,30.59c-4.163,1.301-6.565,5.869-5.263,10.042L390.627,335.096z"/>
<path d="M438.056,182.887c0.987-1.883,1.184-4.081,0.552-6.111L395.273,38.016c-1.32-4.226-5.816-6.582-10.042-5.262l-48.975,15.295  c-4.163,1.301-6.565,5.869-5.263,10.042l43.336,138.759c1.303,4.169,5.868,6.565,10.042,5.262l48.974-15.295  C435.374,186.184,437.068,184.771,438.056,182.887z M387.243,184.419L348.687,60.963l33.671-10.516l38.555,123.456L387.243,184.419z  "/>
<path d="M422.849,298.849c3.65,1.913,7.623,2.883,11.63,2.882c2.516,0,5.047-0.383,7.519-1.154  c13.22-4.129,20.617-18.244,16.489-31.466c-4.129-13.221-18.248-20.616-31.465-16.489c-6.405,2.001-11.647,6.375-14.762,12.318  c-3.116,5.943-3.727,12.743-1.727,19.148C412.531,290.492,416.906,295.734,422.849,298.849z M426.461,272.383  c1.127-2.15,3.023-3.732,5.34-4.455c0.898-0.281,1.806-0.415,2.702-0.415c3.868,0,7.464,2.495,8.677,6.378  c1.493,4.782-1.182,9.887-5.964,11.381c-2.314,0.724-4.776,0.503-6.925-0.624c-2.151-1.127-3.732-3.023-4.455-5.339l0,0  C425.113,276.991,425.334,274.531,426.461,272.383z"/>
<path d="M397.788,224.417c0.791,0,1.597-0.118,2.391-0.367l32.649-10.196c4.226-1.32,6.582-5.816,5.263-10.042  c-1.32-4.225-5.816-6.58-10.042-5.262L395.4,208.746c-4.226,1.32-6.582,5.816-5.263,10.042  C391.21,222.218,394.374,224.417,397.788,224.417z"/>
<path d="M405.436,248.904c0.791,0,1.597-0.119,2.391-0.367l32.65-10.197c4.226-1.32,6.582-5.816,5.263-10.042  c-1.32-4.226-5.816-6.582-10.042-5.262l-32.65,10.197c-4.226,1.32-6.582,5.816-5.263,10.042  C398.857,246.707,402.021,248.904,405.436,248.904z"/>
<path d="M486.881,350.342H25.119C11.268,350.342,0,361.611,0,375.461v17.102c0,13.851,11.268,25.119,25.119,25.119h26.188v86.046  c0,4.427,3.588,8.017,8.017,8.017h34.205c4.428,0,8.017-3.589,8.017-8.017v-86.046h43.29c4.428,0,8.017-3.589,8.017-8.017  c0-4.427-3.588-8.017-8.017-8.017H25.119c-5.01,0-9.086-4.076-9.086-9.086v-17.102c0-5.01,4.076-9.086,9.086-9.086h461.762  c5.01,0,9.086,4.076,9.086,9.086v17.102c0,5.01-4.076,9.086-9.086,9.086h-299.29c-4.428,0-8.017,3.589-8.017,8.017  c0,4.427,3.588,8.017,8.017,8.017h222.864v86.046c0,4.427,3.588,8.017,8.017,8.017h34.205c4.428,0,8.017-3.589,8.017-8.017v-86.046  h26.188c13.851,0,25.119-11.268,25.119-25.119v-17.102C512,361.611,500.732,350.342,486.881,350.342z M67.34,495.712v-78.029h18.171  v78.029H67.34z M426.489,495.712v-78.029h18.171v78.029H426.489z"/>
<g>
</g>
<g>
</g>
<g>
</g>
<g>
</g>
<g>
</g>
<g>
</g>
<g>
</g>
<g>
</g>
<g>
</g>
<g>
</g>
<g>
</g>
<g>
</g>
<g>
</g>
<g>
</g>
<g>
</g>
</svg>
