<?xml version="1.0" encoding="iso-8859-1"?>
<!-- Generator: Adobe Illustrator 19.0.0, SVG Export Plug-In . SVG Version: 6.00 Build 0)  -->
<svg xmlns="http://www.w3.org/2000/svg" xmlns:xlink="http://www.w3.org/1999/xlink" version="1.1" id="Layer_1" x="0px" y="0px" viewBox="0 0 512 512" style="enable-background:new 0 0 512 512;" xml:space="preserve">
<path style="fill:#ECEDEF;" d="M153.386,59.324v110.809v0.356c0,37.781,30.628,68.409,68.409,68.409h8.551v34.205h-8.551  c-37.781,0-68.409,30.628-68.409,68.409v111.165h205.228V341.511c0-37.781-30.628-68.409-68.409-68.409h-8.551v-34.205h8.551  c37.781,0,68.409-30.628,68.409-68.409v-0.356V59.324H153.386z"/>
<g>
	<path style="fill:#D9DCDF;" d="M179.04,170.489v-0.356V59.324h-25.653v110.809v0.356c0,37.781,30.628,68.409,68.409,68.409h8.551   h17.102C209.668,238.898,179.04,208.27,179.04,170.489z"/>
	<path style="fill:#D9DCDF;" d="M221.795,273.102c-37.781,0-68.409,30.628-68.409,68.409v111.165h25.653V341.511   c0-37.781,30.628-68.409,68.409-68.409h-17.102H221.795z"/>
</g>
<path style="fill:#C4DF64;" d="M153.386,170.489c0,37.781,30.628,68.409,68.409,68.409h8.551v25.653h51.307v-25.653h8.551  c37.781,0,68.409-30.628,68.409-68.409v-0.356H153.386V170.489z"/>
<path style="fill:#A6C451;" d="M196.142,204.693c-9.23-9.23-13.473-23.433-15.429-34.561h-27.326v0.356  c0,37.781,30.628,68.409,68.409,68.409h8.551v25.653H256v-42.756C256,221.795,213.244,221.795,196.142,204.693z"/>
<path style="fill:#FFC44F;" d="M384.267,76.426H127.733c-9.446,0-17.102-7.656-17.102-17.102V25.119  c0-9.446,7.656-17.102,17.102-17.102h256.534c9.446,0,17.102,7.656,17.102,17.102v34.205  C401.37,68.769,393.713,76.426,384.267,76.426z"/>
<path style="fill:#F7AB49;" d="M127.733,8.017c-9.446,0-17.102,7.656-17.102,17.102v34.205c0,9.446,7.656,17.102,17.102,17.102  h26.188V8.017H127.733z"/>
<rect x="282.188" y="8.017" style="fill:#FFD791;" width="50.772" height="68.409"/>
<path style="fill:#FFC44F;" d="M384.267,435.574H127.733c-9.446,0-17.102,7.656-17.102,17.102v34.205  c0,9.446,7.656,17.102,17.102,17.102h256.534c9.446,0,17.102-7.656,17.102-17.102v-34.205  C401.37,443.231,393.713,435.574,384.267,435.574z"/>
<path style="fill:#F7AB49;" d="M127.733,435.574c-9.446,0-17.102,7.656-17.102,17.102v34.205c0,9.446,7.656,17.102,17.102,17.102  h26.188v-68.409H127.733z"/>
<rect x="282.188" y="435.574" style="fill:#FFD791;" width="50.772" height="68.409"/>
<path style="fill:#C4DF64;" d="M256,383.911c-38.128,0-71.398,20.796-89.089,51.663h178.178  C327.398,404.707,294.129,383.911,256,383.911z"/>
<path style="fill:#A6C451;" d="M274.892,385.661c-6.125-1.14-12.435-1.75-18.892-1.75c-38.129,0-71.398,20.796-89.089,51.663h37.782  C219.389,409.932,244.84,391.255,274.892,385.661z"/>
<g>
	<circle style="fill:#D8ED8C;" cx="303.031" cy="200.418" r="12.827"/>
	<circle style="fill:#D8ED8C;" cx="273.102" cy="409.921" r="8.551"/>
</g>
<path d="M384.267,0h-59.858c-4.428,0-8.017,3.589-8.017,8.017s3.588,8.017,8.017,8.017h59.858c5.01,0,9.086,4.076,9.086,9.086  v34.205c0,5.01-4.076,9.086-9.086,9.086H127.733c-5.01,0-9.086-4.076-9.086-9.086V25.119c0-5.01,4.076-9.086,9.086-9.086h153.921  c4.428,0,8.017-3.589,8.017-8.017S286.082,0,281.653,0H127.733c-13.851,0-25.119,11.268-25.119,25.119v34.205  c0,13.851,11.268,25.119,25.119,25.119h17.637v85.69v0.356c0,42.141,34.285,76.426,76.426,76.426h0.534v17.637v0.534h-0.534  c-42.141,0-76.426,34.285-76.426,76.426v25.653c0,4.427,3.589,8.017,8.017,8.017c4.427,0,8.017-3.589,8.017-8.017v-25.653  c0-33.3,27.092-60.392,60.392-60.392h8.551c4.427,0,8.017-3.589,8.017-8.017v-34.205c0-4.427-3.589-8.017-8.017-8.017h-8.551  c-30.707,0-56.135-23.034-59.909-52.732h188.228c-3.774,29.698-29.202,52.732-59.909,52.732h-8.551  c-4.428,0-8.017,3.589-8.017,8.017v34.205c0,4.427,3.588,8.017,8.017,8.017h8.551c33.3,0,60.392,27.092,60.392,60.392v86.046h-0.992  c-20.192-31.979-55.626-51.663-93.605-51.663s-73.413,19.684-93.604,51.663h-0.993v-17.637c0-4.427-3.589-8.017-8.017-8.017  c-4.427,0-8.017,3.589-8.017,8.017v17.637h-17.637c-13.851,0-25.119,11.268-25.119,25.119v34.205  c0,13.851,11.268,25.119,25.119,25.119h256.534c13.851,0,25.119-11.268,25.119-25.119v-34.205c0-13.851-11.268-25.119-25.119-25.119  H366.63v-86.046c0-42.141-34.285-76.426-76.426-76.426h-0.534v-0.534v-17.637h0.534c42.141,0,76.426-34.285,76.426-76.426v-0.356  v-85.69h17.637c13.851,0,25.119-11.268,25.119-25.119V25.119C409.386,11.268,398.118,0,384.267,0z M256,391.928  c28.941,0,56.162,13.362,73.966,35.629H182.034C199.838,405.29,227.058,391.928,256,391.928z M393.353,452.676v34.205  c0,5.01-4.076,9.086-9.086,9.086H127.733c-5.01,0-9.086-4.076-9.086-9.086v-34.205c0-5.01,4.076-9.086,9.086-9.086h256.534  C389.277,443.591,393.353,447.667,393.353,452.676z M350.597,162.116H161.403V84.443h189.194V162.116z"/>
<path d="M452.676,119.716c-5.01,0-9.086-4.076-9.086-9.086c0-5.01,4.076-9.086,9.086-9.086h17.102c4.428,0,8.017-3.589,8.017-8.017  c0-4.427-3.588-8.017-8.017-8.017h-9.086v-9.086c0-4.427-3.588-8.017-8.017-8.017s-8.017,3.589-8.017,8.017V86.83  c-9.93,3.354-17.102,12.752-17.102,23.8c0,13.851,11.268,25.119,25.119,25.119c5.01,0,9.086,4.076,9.086,9.086  c0,5.01-4.076,9.086-9.086,9.086h-17.102c-4.428,0-8.017,3.589-8.017,8.017s3.588,8.017,8.017,8.017h9.086v9.086  c0,4.427,3.588,8.017,8.017,8.017s8.017-3.589,8.017-8.017v-10.405c9.93-3.354,17.102-12.752,17.102-23.8  C477.795,130.984,466.527,119.716,452.676,119.716z"/>
<path d="M452.676,358.079h17.102c4.428,0,8.017-3.589,8.017-8.017c0-4.427-3.588-8.017-8.017-8.017h-9.086v-9.086  c0-4.427-3.588-8.017-8.017-8.017s-8.017,3.589-8.017,8.017v10.405c-9.93,3.354-17.102,12.752-17.102,23.8  c0,13.851,11.268,25.119,25.119,25.119c5.01,0,9.086,4.076,9.086,9.086s-4.076,9.086-9.086,9.086h-17.102  c-4.428,0-8.017,3.589-8.017,8.017c0,4.427,3.588,8.017,8.017,8.017h9.086v9.086c0,4.427,3.588,8.017,8.017,8.017  s8.017-3.589,8.017-8.017v-10.405c9.93-3.354,17.102-12.752,17.102-23.8c0-13.851-11.268-25.119-25.119-25.119  c-5.01,0-9.086-4.076-9.086-9.086S447.667,358.079,452.676,358.079z"/>
<path d="M59.324,229.812h17.102c4.427,0,8.017-3.589,8.017-8.017s-3.589-8.017-8.017-8.017H67.34v-9.086  c0-4.427-3.589-8.017-8.017-8.017s-8.017,3.589-8.017,8.017v10.405c-9.93,3.354-17.102,12.752-17.102,23.8  c0,13.851,11.268,25.119,25.119,25.119c5.01,0,9.086,4.076,9.086,9.086c0,5.01-4.076,9.086-9.086,9.086H42.221  c-4.427,0-8.017,3.589-8.017,8.017c0,4.427,3.589,8.017,8.017,8.017h9.086v9.086c0,4.427,3.589,8.017,8.017,8.017  s8.017-3.589,8.017-8.017v-10.405c9.93-3.354,17.102-12.752,17.102-23.8c0-13.851-11.268-25.119-25.119-25.119  c-5.01,0-9.086-4.076-9.086-9.086S54.314,229.812,59.324,229.812z"/>
<path d="M256,298.221c4.428,0,8.017-3.589,8.017-8.017v-8.551c0-4.427-3.588-8.017-8.017-8.017c-4.427,0-8.017,3.589-8.017,8.017  v8.551C247.983,294.632,251.573,298.221,256,298.221z"/>
<path d="M247.983,324.409c0,4.427,3.589,8.017,8.017,8.017c4.428,0,8.017-3.589,8.017-8.017v-8.551c0-4.427-3.588-8.017-8.017-8.017  c-4.427,0-8.017,3.589-8.017,8.017V324.409z"/>
<path d="M247.983,358.614c0,4.427,3.589,8.017,8.017,8.017c4.428,0,8.017-3.589,8.017-8.017v-8.551c0-4.427-3.588-8.017-8.017-8.017  c-4.427,0-8.017,3.589-8.017,8.017V358.614z"/>
<g>
</g>
<g>
</g>
<g>
</g>
<g>
</g>
<g>
</g>
<g>
</g>
<g>
</g>
<g>
</g>
<g>
</g>
<g>
</g>
<g>
</g>
<g>
</g>
<g>
</g>
<g>
</g>
<g>
</g>
</svg>
