<?xml version="1.0" encoding="iso-8859-1"?>
<!-- Generator: Adobe Illustrator 19.0.0, SVG Export Plug-In . SVG Version: 6.00 Build 0)  -->
<svg xmlns="http://www.w3.org/2000/svg" xmlns:xlink="http://www.w3.org/1999/xlink" version="1.1" id="Layer_1" x="0px" y="0px" viewBox="0 0 512 512" style="enable-background:new 0 0 512 512;" xml:space="preserve">
<path style="fill:#68727E;" d="M486.881,474.054H25.119c-9.446,0-17.102-7.656-17.102-17.102V123.457h495.967v333.495  C503.983,466.398,496.327,474.054,486.881,474.054z"/>
<path style="fill:#55606E;" d="M503.983,226.071v-76.96H8.017v76.96c0,37.781,30.628,68.409,68.409,68.409h359.148  C473.355,294.48,503.983,263.852,503.983,226.071z"/>
<path style="fill:#68727E;" d="M503.983,200.418v-76.96H8.017v76.96c0,37.781,30.628,68.409,68.409,68.409h359.148  C473.355,268.827,503.983,238.199,503.983,200.418z"/>
<g>
	<rect x="153.386" y="97.804" style="fill:#FFC44F;" width="51.307" height="25.653"/>
	<rect x="307.307" y="97.804" style="fill:#FFC44F;" width="51.307" height="25.653"/>
</g>
<path style="fill:#F7AB49;" d="M256,448.401L256,448.401c-28.336,0-51.307-22.971-51.307-51.307v-51.307h102.614v51.307  C307.307,425.43,284.336,448.401,256,448.401z"/>
<path style="fill:#FFC44F;" d="M256,208.969c-14.168,0-25.653,11.485-25.653,25.653v162.472L256,422.747l25.653-25.653V234.622  C281.653,220.454,270.168,208.969,256,208.969z"/>
<path d="M503.983,115.441H366.63V97.804c0-4.427-3.589-8.017-8.017-8.017h-17.637V72.15c0-23.28-18.941-42.221-42.221-42.221  h-85.511c-23.281,0-42.221,18.941-42.221,42.221v17.637h-17.637c-4.427,0-8.017,3.589-8.017,8.017v17.637H8.017  c-4.427,0-8.017,3.589-8.017,8.017v205.228c0,4.427,3.589,8.017,8.017,8.017s8.017-3.589,8.017-8.017v-81.513  c13.993,18.033,35.853,29.671,60.392,29.671H222.33v22.447h-17.637c-4.427,0-8.017,3.589-8.017,8.017v89.787  c0,32.711,26.612,59.324,59.324,59.324s59.324-26.612,59.324-59.324v-89.787c0-4.427-3.589-8.017-8.017-8.017H289.67v-22.447h43.29  c4.427,0,8.017-3.589,8.017-8.017c0-4.427-3.589-8.017-8.017-8.017h-43.29v-26.188c0-18.566-15.105-33.67-33.67-33.67  s-33.67,15.105-33.67,33.67v26.188H76.426c-33.3,0-60.392-27.092-60.392-60.392v-68.944h479.933v68.944  c0,33.3-27.092,60.392-60.392,60.392h-59.858c-4.427,0-8.017,3.589-8.017,8.017c0,4.427,3.589,8.017,8.017,8.017h59.858  c24.54,0,46.4-11.638,60.392-29.671v209.78c0,5.01-4.076,9.086-9.086,9.086H25.119c-5.01,0-9.086-4.076-9.086-9.086v-85.511  c0-4.427-3.589-8.017-8.017-8.017S0,367.013,0,371.441v85.511c0,13.851,11.268,25.119,25.119,25.119h461.762  c13.851,0,25.119-11.268,25.119-25.119V123.457C512,119.03,508.411,115.441,503.983,115.441z M212.71,315.324h9.62v22.447h-9.62  V315.324z M256,323.875c4.427,0,8.017-3.589,8.017-8.017v-0.534h9.62v56.651h-35.273v-56.651h9.62v0.534  C247.983,320.285,251.573,323.875,256,323.875z M299.29,371.975h-9.62v-18.171h9.62V371.975z M238.363,388.008h35.273v5.766  L256,411.411l-17.637-17.637V388.008z M212.71,353.804h9.62v18.171h-9.62V353.804z M256,440.384c-23.871,0-43.29-19.42-43.29-43.29  v-9.086h9.62v9.086c0,2.126,0.844,4.165,2.348,5.668l25.653,25.653c3.088,3.088,8.249,3.088,11.337,0l25.653-25.653  c1.504-1.503,2.348-3.542,2.348-5.668v-9.086h9.62v9.086C299.29,420.964,279.871,440.384,256,440.384z M299.29,315.324v22.447h-9.62  v-22.447H299.29z M256,216.985c9.725,0,17.637,7.912,17.637,17.637v64.668h-9.62v-9.086c0-4.427-3.589-8.017-8.017-8.017  c-4.427,0-8.017,3.589-8.017,8.017v9.086h-9.62v-30.453c0-0.003,0-0.006,0-0.011s0-0.006,0-0.011v-34.194  C238.363,224.897,246.275,216.985,256,216.985z M187.056,72.15c0-14.44,11.748-26.188,26.188-26.188h85.511  c14.44,0,26.188,11.748,26.188,26.188v17.637h-17.637c-4.427,0-8.017,3.589-8.017,8.017v17.637h-86.58V97.804  c0-4.427-3.589-8.017-8.017-8.017h-17.637V72.15z M161.403,115.441v-9.62h35.273v9.62H161.403z M315.324,115.441v-9.62h35.273v9.62  H315.324z"/>
<path d="M256,251.19c4.427,0,8.017-3.589,8.017-8.017v-8.551c0-4.427-3.589-8.017-8.017-8.017c-4.427,0-8.017,3.589-8.017,8.017  v8.551C247.983,247.601,251.573,251.19,256,251.19z"/>
<path d="M247.983,354.338c0,4.427,3.589,8.017,8.017,8.017c4.427,0,8.017-3.589,8.017-8.017v-8.551c0-4.427-3.589-8.017-8.017-8.017  c-4.427,0-8.017,3.589-8.017,8.017V354.338z"/>
<g>
</g>
<g>
</g>
<g>
</g>
<g>
</g>
<g>
</g>
<g>
</g>
<g>
</g>
<g>
</g>
<g>
</g>
<g>
</g>
<g>
</g>
<g>
</g>
<g>
</g>
<g>
</g>
<g>
</g>
</svg>
