<?xml version="1.0" encoding="iso-8859-1"?>
<!-- Generator: Adobe Illustrator 19.0.0, SVG Export Plug-In . SVG Version: 6.00 Build 0)  -->
<svg xmlns="http://www.w3.org/2000/svg" xmlns:xlink="http://www.w3.org/1999/xlink" version="1.1" id="Layer_1" x="0px" y="0px" viewBox="0 0 511.999 511.999" style="enable-background:new 0 0 511.999 511.999;" xml:space="preserve">
<polygon style="fill:#FF8C78;" points="428.578,118.604 335.316,76.441 269.264,222.542 381.587,222.542 "/>
<g>
	<polygon style="fill:#FFC44F;" points="428.578,118.604 335.316,76.441 420.596,12.033  "/>
	<polygon style="fill:#FFC44F;" points="335.316,76.441 428.578,118.604 424.95,70.162 374.08,47.164  "/>
</g>
<polygon style="fill:#68727E;" points="374.08,47.164 424.95,70.162 420.596,12.033 "/>
<polygon style="fill:#509FE8;" points="397.49,104.549 366.403,90.496 306.705,222.542 344.147,222.542 "/>
<polygon style="fill:#DF7A6E;" points="269.264,222.542 381.587,222.542 396.77,188.958 284.447,188.958 "/>
<polygon style="fill:#4D8CCF;" points="321.888,188.958 306.705,222.542 344.147,222.542 359.33,188.958 "/>
<path style="fill:#FF8C78;" d="M166.649,32.527c-5.304-18.08-24.261-28.436-42.342-23.132l-16.368,4.802  c-18.08,5.305-28.436,24.262-23.131,42.342l48.705,166.003h88.886L166.649,32.527z"/>
<path style="fill:#DF7A6E;" d="M212.388,188.425h-59.644L103.331,15.921c-15.179,6.933-23.359,24.137-18.524,40.618l48.705,166.003  h88.886L212.388,188.425z"/>
<path style="fill:#509FE8;" d="M166.649,32.527c-5.304-18.08-24.261-28.436-42.342-23.132l-16.368,4.802  c-18.08,5.305-28.436,24.262-23.131,42.342l36.017,122.762l81.841-24.012L166.649,32.527z"/>
<path style="fill:#4D8CCF;" d="M103.331,15.921c-15.179,6.933-23.359,24.137-18.524,40.618l36.018,122.762l27.033-7.931  L103.331,15.921z"/>
<path style="fill:#FFC44F;" d="M360.345,504.003H155.645c-18.842,0-34.117-15.275-34.117-34.117V205.483h272.932v264.403  C394.461,488.728,379.186,504.003,360.345,504.003z"/>
<g>
	<path style="fill:#F7AB49;" d="M157.356,205.483h-35.828v264.403c0,18.842,15.275,34.117,34.117,34.117h53.685   c-26.289-57.469-42.995-116.847-49.42-180.178C155.837,283.914,157.359,244.626,157.356,205.483z"/>
	<rect x="121.53" y="205.488" style="fill:#F7AB49;" width="272.932" height="76.762"/>
</g>
<rect x="95.941" y="205.488" style="fill:#FFC44F;" width="324.107" height="51.175"/>
<rect x="223.879" y="333.425" style="fill:#D9DCDF;" width="170.583" height="85.291"/>
<rect x="95.941" y="205.488" style="fill:#F7AB49;" width="42.646" height="51.175"/>
<rect x="283.583" y="205.488" style="fill:#FFD791;" width="59.704" height="51.175"/>
<path d="M420.048,197.487H401.69l34.169-75.579c0.553-1.215,0.794-2.582,0.691-3.914l-7.98-106.559  c-0.462-6.179-7.844-9.529-12.793-5.784l-85.278,64.406c-1.066,0.803-1.929,1.884-2.476,3.101l-56.208,124.328H223.38  l-42.005-143.17l25.583-7.506l34.837,118.285c1.281,4.353,6.081,6.784,10.355,5.272c3.948-1.397,6.167-5.78,4.985-9.789  L220.042,34.631c-1.246-4.234-5.688-6.655-9.922-5.414l-33.248,9.755l-2.551-8.695c-3.168-10.795-10.348-19.709-20.219-25.101  c-9.872-5.393-21.252-6.62-32.046-3.452l-16.368,4.802c-22.281,6.538-35.091,29.984-28.553,52.264l40.694,138.698H95.941  c-4.416,0-7.996,3.58-7.996,7.996v51.175c0,4.416,3.58,7.996,7.996,7.996h17.591v94.354c0,4.416,3.58,7.996,7.996,7.996  s7.996-3.58,7.996-7.996v-94.354h161.756c4.416,0,7.996-3.58,7.996-7.996c0-4.416-3.58-7.996-7.996-7.996H103.937v-35.183h308.115  v35.183h-77.295c-4.416,0-7.996,3.58-7.996,7.996c0,4.416,3.58,7.996,7.996,7.996h51.708v60.77H223.878  c-4.416,0-7.996,3.58-7.996,7.996v85.291c0,4.416,3.58,7.996,7.996,7.996h162.587v43.179c0,14.402-11.718,26.12-26.12,26.12H155.645  c-14.403,0-26.12-11.718-26.12-26.12v-68.233c0-4.416-3.58-7.996-7.996-7.996s-7.996,3.58-7.996,7.996v68.233  c0,23.221,18.892,42.113,42.113,42.113h204.699c23.221,0,42.113-18.892,42.113-42.113V264.654h17.591  c4.416,0,7.996-3.58,7.996-7.996v-51.175C428.045,201.067,424.464,197.487,420.048,197.487z M413.718,27.248l2.253,30.08  l-26.323-11.9L413.718,27.248z M375.111,56.406l42.22,19.088l2.267,30.275l-68.714-31.065L375.111,56.406z M339.308,87.021  l16.516,7.466l-46.567,103h-19.89L339.308,87.021z M370.395,101.075l16.515,7.466l-40.213,88.946h-19.89L370.395,101.075z   M401.483,115.13l16.516,7.466l-33.859,74.891h-19.891L401.483,115.13z M134.494,197.487l-3.745-12.764l66.496-19.509l9.469,32.274  h-72.22V197.487z M110.19,21.87l16.368-4.802c6.694-1.965,13.754-1.205,19.877,2.141c6.123,3.344,10.576,8.875,12.541,15.569  l33.767,115.089l-66.496,19.51L92.479,54.288C88.425,40.468,96.37,25.926,110.19,21.87z M231.874,341.416h154.591v69.299H231.874  L231.874,341.416L231.874,341.416z"/>
<g>
</g>
<g>
</g>
<g>
</g>
<g>
</g>
<g>
</g>
<g>
</g>
<g>
</g>
<g>
</g>
<g>
</g>
<g>
</g>
<g>
</g>
<g>
</g>
<g>
</g>
<g>
</g>
<g>
</g>
</svg>
