<?xml version="1.0" encoding="iso-8859-1"?>
<!-- Generator: Adobe Illustrator 19.0.0, SVG Export Plug-In . SVG Version: 6.00 Build 0)  -->
<svg xmlns="http://www.w3.org/2000/svg" xmlns:xlink="http://www.w3.org/1999/xlink" version="1.1" id="Layer_1" x="0px" y="0px" viewBox="0 0 512 512" style="enable-background:new 0 0 512 512;" xml:space="preserve">
<g>
	<path style="fill:#68727E;" d="M469.779,461.228H42.221c-18.891,0-34.205-15.314-34.205-34.205V221.795   c0-18.891,15.314-34.205,34.205-34.205h427.557c18.891,0,34.205,15.314,34.205,34.205v205.228   C503.983,445.914,488.669,461.228,469.779,461.228z"/>
	<rect x="102.079" y="392.818" style="fill:#68727E;" width="307.841" height="68.409"/>
</g>
<rect x="102.079" y="392.818" style="fill:#424F5E;" width="307.841" height="34.205"/>
<path style="fill:#509FE8;" d="M503.983,221.795c0-18.891-15.314-34.205-34.205-34.205H42.221  c-18.891,0-34.205,15.314-34.205,34.205v102.97h495.967V221.795z"/>
<path style="fill:#424F5E;" d="M33.67,427.023V221.795c0-18.891,15.314-34.205,34.205-34.205H42.221  c-18.891,0-34.205,15.314-34.205,34.205v205.228c0,18.891,15.314,34.205,34.205,34.205h25.653  C48.984,461.228,33.67,445.914,33.67,427.023z"/>
<path style="fill:#4D8CCF;" d="M67.875,187.591H42.221c-18.891,0-34.205,15.314-34.205,34.205v102.97H33.67v-102.97  C33.67,202.905,48.984,187.591,67.875,187.591z"/>
<rect x="136.284" y="392.818" style="fill:#F6F6F7;" width="239.432" height="111.165"/>
<path style="fill:#68727E;" d="M409.921,187.591H102.079V93.528c0-9.446,7.656-17.102,17.102-17.102h273.637  c9.446,0,17.102,7.656,17.102,17.102V187.591z"/>
<rect x="119.182" y="76.426" style="fill:#55606E;" width="273.637" height="111.165"/>
<rect x="136.284" y="8.017" style="fill:#F6F6F7;" width="239.432" height="179.574"/>
<polygon style="fill:#ECEDEF;" points="202.623,8.017 136.284,8.017 136.284,187.591 295.47,187.591 "/>
<circle style="fill:#FF8C78;" cx="452.676" cy="256" r="17.102"/>
<circle style="fill:#C4DF64;" cx="392.818" cy="256" r="17.102"/>
<rect x="8.017" y="324.409" style="fill:#55606E;" width="495.967" height="25.653"/>
<path d="M469.779,179.574h-51.841V93.528c0-13.851-11.268-25.119-25.119-25.119h-9.086V8.017c0-4.427-3.588-8.017-8.017-8.017  h-51.307c-4.428,0-8.017,3.589-8.017,8.017s3.588,8.017,8.017,8.017h43.29v163.541H144.301V16.033h137.353  c4.428,0,8.017-3.589,8.017-8.017S286.082,0,281.653,0h-145.37c-4.428,0-8.017,3.589-8.017,8.017v60.392h-9.086  c-13.851,0-25.119,11.268-25.119,25.119v86.046H42.221C18.941,179.574,0,198.515,0,221.795v25.653c0,4.427,3.588,8.017,8.017,8.017  s8.017-3.589,8.017-8.017v-25.653c0-14.44,11.747-26.188,26.188-26.188h427.557c14.441,0,26.188,11.748,26.188,26.188v94.953h-43.29  c-4.428,0-8.017,3.589-8.017,8.017c0,4.427,3.588,8.017,8.017,8.017h43.29v94.241c0,14.44-11.747,26.188-26.188,26.188h-51.841  v-60.392c0-4.427-3.588-8.017-8.017-8.017H102.079c-4.428,0-8.017,3.589-8.017,8.017v60.392H42.221  c-14.441,0-26.188-11.748-26.188-26.188v-94.241h393.887c4.428,0,8.017-3.589,8.017-8.017c0-4.427-3.588-8.017-8.017-8.017H16.033  v-26.544c0-4.427-3.588-8.017-8.017-8.017S0,285.777,0,290.205v136.818c0,23.28,18.941,42.221,42.221,42.221h86.046v34.739  c0,4.427,3.588,8.017,8.017,8.017h239.432c4.428,0,8.017-3.589,8.017-8.017v-34.739h86.046c23.28,0,42.221-18.941,42.221-42.221  V221.795C512,198.515,493.059,179.574,469.779,179.574z M110.096,93.528c0-5.01,4.076-9.086,9.086-9.086h9.086v95.132h-18.171  V93.528z M383.733,179.574V84.443h9.086c5.01,0,9.086,4.076,9.086,9.086v86.046H383.733z M110.096,453.211v-52.376h18.171v52.376  H110.096z M367.699,495.967H144.301v-95.132h223.399V495.967z M383.733,453.211v-52.376h18.171v52.376H383.733z"/>
<path d="M477.795,256c0-13.851-11.268-25.119-25.119-25.119S427.557,242.149,427.557,256s11.268,25.119,25.119,25.119  S477.795,269.851,477.795,256z M443.591,256c0-5.01,4.076-9.086,9.086-9.086s9.086,4.076,9.086,9.086  c0,5.01-4.076,9.086-9.086,9.086S443.591,261.01,443.591,256z"/>
<path d="M417.937,256c0-13.851-11.268-25.119-25.119-25.119c-13.851,0-25.119,11.268-25.119,25.119s11.268,25.119,25.119,25.119  C406.669,281.119,417.937,269.851,417.937,256z M383.733,256c0-5.01,4.076-9.086,9.086-9.086s9.086,4.076,9.086,9.086  c0,5.01-4.076,9.086-9.086,9.086S383.733,261.01,383.733,256z"/>
<path d="M341.511,419.006H170.489c-4.428,0-8.017,3.589-8.017,8.017c0,4.427,3.588,8.017,8.017,8.017h171.023  c4.428,0,8.017-3.589,8.017-8.017C349.528,422.596,345.94,419.006,341.511,419.006z"/>
<path d="M298.756,453.211H170.489c-4.428,0-8.017,3.589-8.017,8.017s3.588,8.017,8.017,8.017h128.267  c4.428,0,8.017-3.589,8.017-8.017S303.184,453.211,298.756,453.211z"/>
<path d="M221.795,246.914c4.428,0,8.017-3.589,8.017-8.017s-3.588-8.017-8.017-8.017H102.079c-4.428,0-8.017,3.589-8.017,8.017  s3.588,8.017,8.017,8.017H221.795z"/>
<path d="M264.551,246.914c4.428,0,8.017-3.589,8.017-8.017s-3.588-8.017-8.017-8.017h-17.102c-4.428,0-8.017,3.589-8.017,8.017  s3.588,8.017,8.017,8.017H264.551z"/>
<path d="M59.324,246.914h17.102c4.428,0,8.017-3.589,8.017-8.017s-3.588-8.017-8.017-8.017H59.324c-4.428,0-8.017,3.589-8.017,8.017  S54.895,246.914,59.324,246.914z"/>
<path d="M59.324,281.119h205.228c4.428,0,8.017-3.589,8.017-8.017c0-4.427-3.588-8.017-8.017-8.017H59.324  c-4.428,0-8.017,3.589-8.017,8.017C51.307,277.53,54.895,281.119,59.324,281.119z"/>
<g>
</g>
<g>
</g>
<g>
</g>
<g>
</g>
<g>
</g>
<g>
</g>
<g>
</g>
<g>
</g>
<g>
</g>
<g>
</g>
<g>
</g>
<g>
</g>
<g>
</g>
<g>
</g>
<g>
</g>
</svg>
