<?xml version="1.0" encoding="iso-8859-1"?>
<!-- Generator: Adobe Illustrator 19.0.0, SVG Export Plug-In . SVG Version: 6.00 Build 0)  -->
<svg xmlns="http://www.w3.org/2000/svg" xmlns:xlink="http://www.w3.org/1999/xlink" version="1.1" id="Layer_1" x="0px" y="0px" viewBox="0 0 512 512" style="enable-background:new 0 0 512 512;" xml:space="preserve">
<polygon style="fill:#FFC44F;" points="230.347,216.166 316.832,271.391 478.33,8.017 356.58,8.017 "/>
<polygon style="fill:#509FE8;" points="397.164,8.017 259.176,234.574 288.004,252.983 437.747,8.017 "/>
<polygon style="fill:#FFC44F;" points="281.654,216.166 195.168,271.391 33.67,8.017 155.421,8.017 "/>
<polygon style="fill:#509FE8;" points="114.837,8.017 252.826,234.574 223.998,252.983 74.254,8.017 "/>
<g>
	<path style="fill:#F7AB49;" d="M396.396,141.638c-6.237-2.445-12.913-3.774-19.697-3.774c-4.654,0-9.32,0.602-13.866,1.787   l-6.607,1.723l-41.229,67.447l24.92,24.92L396.396,141.638z"/>
	<path style="fill:#F7AB49;" d="M317.294,139.153l-14.218-24.256c-1.802-3.074-3.867-5.916-6.145-8.52L265.077,158.9l24.977,24.977   L317.294,139.153z"/>
</g>
<path style="fill:#4D8CCF;" d="M356.228,141.374l-26.77,6.983c-3.473,0.906-7.124-0.607-8.939-3.703l-3.225-5.502l-27.24,44.724  l24.945,24.945L356.228,141.374z"/>
<g>
	<path style="fill:#F7AB49;" d="M215.151,106.508c-2.497,2.796-4.738,5.855-6.669,9.149l-13.774,23.497l25.831,42.41l25.816-23.603   L215.151,106.508z"/>
	<path style="fill:#F7AB49;" d="M155.773,141.374l-6.607-1.723c-4.546-1.185-9.212-1.787-13.866-1.787   c-6.782,0-13.46,1.329-19.695,3.774l53.383,87.057l25.764-23.555L155.773,141.374z"/>
</g>
<path style="fill:#4D8CCF;" d="M194.708,139.153l-3.225,5.502c-1.815,3.097-5.467,4.609-8.94,3.703l-26.769-6.984l38.978,63.766  l25.787-23.577L194.708,139.153z"/>
<path style="fill:#509FE8;" d="M273.566,132.195l25.812,44.031c4.61,7.864,13.885,11.705,22.705,9.405l49.386-12.883  c15.051-3.926,28.767,9.791,24.841,24.841l-12.883,49.386c-2.301,8.821,1.541,18.095,9.405,22.705l44.031,25.812  c13.419,7.866,13.419,27.264,0,35.131l-44.031,25.812c-7.864,4.61-11.705,13.885-9.405,22.705l12.883,49.386  c3.926,15.051-9.791,28.767-24.841,24.841l-49.386-12.883c-8.821-2.301-18.095,1.541-22.705,9.405l-25.812,44.031  c-7.866,13.419-27.264,13.419-35.131,0l-25.812-44.031c-4.61-7.864-13.885-11.705-22.705-9.405l-49.386,12.883  c-15.051,3.926-28.767-9.791-24.841-24.841l12.883-49.386c2.301-8.821-1.541-18.095-9.405-22.705l-44.031-25.812  c-13.419-7.866-13.419-27.264,0-35.131l44.031-25.812c7.864-4.61,11.705-13.885,9.405-22.705l-12.883-49.386  c-3.926-15.051,9.791-28.767,24.841-24.841l49.386,12.883c8.821,2.301,18.095-1.541,22.705-9.405l25.812-44.031  C246.301,118.777,265.699,118.777,273.566,132.195z"/>
<circle style="fill:#4D8CCF;" cx="256" cy="313.058" r="128.267"/>
<circle style="fill:#F7AB49;" cx="256" cy="313.058" r="111.165"/>
<circle style="fill:#FFC44F;" cx="256" cy="313.058" r="91.262"/>
<polygon style="fill:#DF7A6E;" points="204.693,259.613 247.449,233.959 281.654,233.959 281.654,387.88 247.449,387.88   247.449,276.715 221.796,293.817 "/>
<path d="M428.631,73.731c-2.314,3.774-1.132,8.71,2.643,11.025c3.775,2.315,8.71,1.132,11.025-2.643l42.866-69.906  C488.383,6.957,484.47,0,478.33,0H356.581c-2.803,0-5.402,1.463-6.855,3.86l-72.583,119.683c-5.316-5.982-12.891-9.429-21.143-9.429  s-15.826,3.446-21.142,9.428L162.275,3.86C160.822,1.463,158.223,0,155.421,0H33.67c-6.14,0-10.054,6.956-6.835,12.207  l95.171,155.207c-2.41,1.301-4.665,2.954-6.681,4.969c-7.199,7.199-9.963,17.378-7.394,27.23l12.883,49.386  c1.388,5.323-0.957,10.984-5.701,13.765l-44.031,25.811c-8.783,5.149-14.027,14.301-14.027,24.482  c0,10.18,5.244,19.332,14.027,24.481l44.031,25.812c4.745,2.782,7.09,8.442,5.701,13.765L107.933,426.5  c-2.57,9.852,0.195,20.031,7.394,27.23c7.199,7.198,17.378,9.961,27.229,7.392l49.387-12.883c5.322-1.389,10.983,0.956,13.765,5.701  l25.812,44.03C236.667,506.756,245.819,512,256,512l0,0c10.18,0,19.333-5.244,24.482-14.027l25.811-44.031  c2.781-4.746,8.441-7.091,13.764-5.702l49.386,12.883c9.851,2.569,20.031-0.193,27.231-7.394c7.198-7.199,9.962-17.378,7.391-27.229  l-12.882-49.385c-1.388-5.323,0.957-10.984,5.703-13.765l44.031-25.812c8.783-5.148,14.026-14.3,14.026-24.481  c0-10.181-5.243-19.333-14.026-24.482l-44.031-25.811c-4.745-2.782-7.091-8.442-5.703-13.765l12.883-49.386  c2.571-9.851-0.193-20.03-7.391-27.229c-2.016-2.016-4.271-3.67-6.682-4.97l32.052-52.27c2.314-3.774,1.132-8.71-2.643-11.025  c-3.775-2.315-8.71-1.131-11.025,2.643l-35.27,57.519c-1.222,0.156-25.381,6.375-25.381,6.375S441.971,16.4,442.126,16.033h21.886  L428.631,73.731z M361.095,16.033h21.8l-85.673,140.663l-10.535-17.971L361.095,16.033z M225.314,138.726l-10.535,17.971  L129.107,16.033h21.8L225.314,138.726z M186.633,176.489L88.551,16.033h21.783l95.233,156.359  c-2.826,4.594-8.384,6.848-13.624,5.482L186.633,176.489z M69.758,16.033l94.519,154.624c0,0-24.162-6.219-25.384-6.376  L47.99,16.033H69.758z M373.492,180.505c8.97-2.341,17.401,6.089,15.061,15.061l-12.883,49.386  c-3.192,12.237,2.199,25.249,13.108,31.645l44.031,25.811c7.999,4.688,7.997,16.611,0,21.299l-44.031,25.812  c-10.909,6.394-16.3,19.407-13.108,31.645l12.883,49.386c2.34,8.969-6.091,17.403-15.061,15.06l-49.386-12.882  c-12.235-3.196-25.249,2.197-31.645,13.108l-25.811,44.031c-4.687,8-16.611,7.999-21.299,0l-25.812-44.031  c-5.164-8.809-14.641-14.02-24.541-14.02c-2.36,0-4.747,0.297-7.104,0.912l-49.386,12.883c-8.971,2.34-17.401-6.089-15.061-15.061  l12.883-49.386c3.192-12.238-2.199-25.25-13.108-31.645l-44.031-25.812c-7.999-4.688-7.997-16.611,0-21.299l44.031-25.811  c10.909-6.395,16.3-19.408,13.108-31.645l-12.883-49.386c-2.34-8.97,6.091-17.402,15.061-15.061l49.386,12.883  c12.235,3.191,25.248-2.198,31.645-13.108l25.812-44.031c4.688-7.997,16.611-7.999,21.299,0l25.811,44.031  c6.394,10.91,19.405,16.298,31.645,13.108L373.492,180.505z M325.367,176.489l-5.31,1.385c-5.233,1.368-10.796-0.887-13.623-5.482  l94.631-155.371c0.196-0.321,0.357-0.652,0.502-0.988h21.882L325.367,176.489z"/>
<path d="M137.774,297.898c-0.558,4.392,2.55,8.406,6.942,8.964c4.4,0.556,8.406-2.55,8.964-6.942  c6.518-51.314,50.506-90.009,102.32-90.009c56.876,0,103.148,46.272,103.148,103.148S312.876,416.207,256,416.207  c-46.317,0-87.223-31.154-99.474-75.759c-1.173-4.269-5.582-6.779-9.853-5.607c-4.269,1.173-6.78,5.584-5.607,9.853  c14.159,51.545,61.421,87.546,114.935,87.546c65.717,0,119.182-53.465,119.182-119.182S321.717,193.876,256,193.876  C196.134,193.876,145.308,238.596,137.774,297.898z"/>
<path d="M247.449,395.897h34.205c4.428,0,8.017-3.589,8.017-8.017V233.959c0-4.427-3.588-8.017-8.017-8.017h-34.205  c-1.453,0-2.879,0.395-4.125,1.143l-42.756,25.653c-3.591,2.155-4.919,6.713-3.045,10.459l17.102,34.205  c2.121,4.242,7.662,5.725,11.617,3.085l13.19-8.794v96.185C239.432,392.307,243.022,395.897,247.449,395.897z M224.905,282.11  l-9.721-19.442l34.486-20.692h23.967v137.887h-18.171V276.715c0-6.274-7.231-10.16-12.463-6.67L224.905,282.11z"/>
<g>
</g>
<g>
</g>
<g>
</g>
<g>
</g>
<g>
</g>
<g>
</g>
<g>
</g>
<g>
</g>
<g>
</g>
<g>
</g>
<g>
</g>
<g>
</g>
<g>
</g>
<g>
</g>
<g>
</g>
</svg>
