<?xml version="1.0" encoding="iso-8859-1"?>
<!-- Generator: Adobe Illustrator 19.0.0, SVG Export Plug-In . SVG Version: 6.00 Build 0)  -->
<svg xmlns="http://www.w3.org/2000/svg" xmlns:xlink="http://www.w3.org/1999/xlink" version="1.1" id="Layer_1" x="0px" y="0px" viewBox="0 0 512 512" style="enable-background:new 0 0 512 512;" xml:space="preserve">
<g>
	<polygon style="fill:#68727E;" points="401.37,503.983 384.268,503.983 324.41,401.37 375.717,384.267  "/>
	<polygon style="fill:#68727E;" points="110.631,503.983 127.733,503.983 187.591,401.37 136.284,384.267  "/>
</g>
<g>
	<path style="fill:#424F5E;" d="M375.717,384.267L324.41,401.37l22.54,38.639c12.759-6.318,24.774-13.914,35.861-22.638   L375.717,384.267z"/>
	<path style="fill:#424F5E;" d="M136.284,384.267l-7.093,33.104c11.087,8.724,23.102,16.32,35.861,22.638l22.539-38.639   L136.284,384.267z"/>
</g>
<circle style="fill:#C4DF64;" cx="256.001" cy="256" r="179.574"/>
<circle style="fill:#D9DCDF;" cx="256.001" cy="256" r="145.37"/>
<circle style="fill:#F6F6F7;" cx="256.001" cy="256" r="119.716"/>
<path style="fill:#FFC44F;" d="M439.724,141.901l-72.559-72.559l12.093-12.093c20.036-20.036,52.522-20.036,72.559,0l0,0  c20.036,20.036,20.036,52.522,0,72.559L439.724,141.901z"/>
<path style="fill:#F7AB49;" d="M451.818,57.249L451.818,57.249c-3.969-3.969-8.431-7.138-13.184-9.536  c9.702,19.239,6.532,43.307-9.536,59.375l-12.093,12.093l22.719,22.719l12.093-12.093  C471.854,109.771,471.854,77.285,451.818,57.249z"/>
<circle style="fill:#FFEBC8;" cx="97.804" cy="72.15" r="12.827"/>
<path style="fill:#FFC44F;" d="M72.277,141.901l72.559-72.559l-12.093-12.093c-20.036-20.036-52.522-20.036-72.559,0l0,0  c-20.036,20.036-20.036,52.522,0,72.559L72.277,141.901z"/>
<path style="fill:#F7AB49;" d="M73.367,47.713c-4.752,2.396-9.215,5.567-13.184,9.536l0,0c-20.036,20.036-20.036,52.522,0,72.559  l12.093,12.093l22.719-22.719l-12.093-12.093C66.835,91.021,63.666,66.952,73.367,47.713z"/>
<circle style="fill:#FFEBC8;" cx="414.197" cy="72.15" r="12.827"/>
<g>
	<path style="fill:#B3B9BF;" d="M341.691,199.684l-78.605,78.605l-24.187-24.187l78.605-78.605c6.678-6.678,17.507-6.678,24.186,0   l0,0C348.369,182.177,348.369,193.005,341.691,199.684z"/>
	<path style="fill:#B3B9BF;" d="M187.591,238.898h59.858v34.205h-59.858c-9.446,0-17.102-7.656-17.102-17.102l0,0   C170.489,246.554,178.146,238.898,187.591,238.898z"/>
</g>
<circle style="fill:#DF7A6E;" cx="256.001" cy="256" r="25.653"/>
<rect x="238.898" y="33.67" style="fill:#D9DCDF;" width="34.205" height="42.756"/>
<rect x="204.694" y="8.017" style="fill:#FF8C78;" width="102.614" height="34.205"/>
<rect x="204.694" y="8.017" style="fill:#DF7A6E;" width="26.009" height="34.205"/>
<rect x="255.648" y="8.017" style="fill:#FFC5BB;" width="25.653" height="34.205"/>
<path d="M55.965,179.996c-4.194-1.417-8.744,0.837-10.159,5.032C38.108,207.834,34.205,231.712,34.205,256  s3.903,48.168,11.601,70.972c1.455,4.31,6.358,6.558,10.581,4.875c3.899-1.554,5.951-6.031,4.61-10.003  c-7.139-21.15-10.758-43.304-10.758-65.845s3.619-44.695,10.758-65.845C62.413,185.961,60.16,181.412,55.965,179.996z"/>
<path d="M456.036,179.996c-4.195,1.416-6.448,5.964-5.032,10.159c7.139,21.15,10.758,43.304,10.758,65.845  s-3.619,44.695-10.758,65.845c-1.344,3.979,0.715,8.438,4.61,10.003c4.219,1.694,9.129-0.574,10.581-4.875  c7.698-22.805,11.601-46.684,11.601-70.972s-3.903-48.168-11.601-70.972C464.779,180.832,460.228,178.579,456.036,179.996z"/>
<path d="M11.453,213.854c-4.392-0.608-8.433,2.46-9.037,6.846c-1.602,11.612-2.415,23.49-2.415,35.3  c0,11.81,0.812,23.688,2.415,35.3c0.605,4.384,4.814,7.513,9.186,6.823c4.257-0.672,7.287-4.739,6.697-9.014  c-1.502-10.89-2.264-22.029-2.264-33.109s0.762-22.219,2.265-33.11C18.904,218.504,15.838,214.459,11.453,213.854z"/>
<path d="M509.586,220.699c-0.605-4.386-4.647-7.445-9.037-6.845c-4.386,0.605-7.45,4.652-6.845,9.037  c1.502,10.89,2.264,22.029,2.264,33.109c0,8.287-0.426,16.643-1.269,24.834c-0.453,4.405,2.75,8.342,7.154,8.795  c0.279,0.029,0.556,0.043,0.829,0.043c4.059,0,7.541-3.072,7.964-7.197c0.898-8.734,1.353-17.641,1.353-26.474  C512.001,244.19,511.188,232.312,509.586,220.699z"/>
<path d="M457.486,51.581c-11.204-11.205-26.101-17.376-41.948-17.376c-15.846,0-30.743,6.171-41.948,17.376l-12.093,12.092  c-3.087,3.086-3.087,8.251,0,11.337l72.559,72.559c3.086,3.087,8.251,3.087,11.337,0l12.092-12.093  C480.616,112.346,480.616,74.71,457.486,51.581z M439.724,130.563l-61.221-61.221l6.424-6.424  c8.177-8.177,19.048-12.68,30.611-12.68s22.434,4.503,30.611,12.679c16.879,16.879,16.879,44.342,0,61.221L439.724,130.563z"/>
<path d="M77.945,147.569l72.559-72.559c3.087-3.086,3.087-8.251,0-11.337l-12.093-12.092  c-11.204-11.206-26.101-17.377-41.948-17.377s-30.744,6.171-41.948,17.376c-23.13,23.13-23.13,60.766,0,83.895l12.092,12.093  C69.693,150.656,74.859,150.656,77.945,147.569z M65.852,124.139c-16.879-16.879-16.879-44.342,0-61.221  c8.177-8.177,19.048-12.68,30.611-12.68s22.434,4.503,30.611,12.679l6.424,6.424l-61.221,61.221L65.852,124.139z"/>
<path d="M347.359,205.353c9.683-9.683,9.683-25.842,0-35.524c-9.792-9.794-25.729-9.794-35.524,0l-52.655,52.655  c-1.048-0.098-2.107-0.155-3.18-0.155c-8.59,0-16.434,3.238-22.389,8.551h-46.02c-13.851,0-25.119,11.268-25.119,25.119  s11.268,25.119,25.119,25.119h46.02c5.955,5.313,13.799,8.551,22.389,8.551c5.306,0,10.327-1.238,14.795-3.433l38.65,51.535  c2.828,3.771,8.472,4.255,11.909,1.028c2.937-2.759,3.335-7.427,0.918-10.648l-39.16-52.213c2.593-3.518,4.517-7.556,5.588-11.926  L347.359,205.353z M223.586,265.086h-35.995c-5.01,0-9.086-4.076-9.086-9.086c0-5.01,4.076-9.086,9.086-9.086h35.995  c-0.812,2.892-1.256,5.938-1.256,9.086C222.33,259.148,222.774,262.193,223.586,265.086z M256.001,273.637  c-9.725,0-17.637-7.912-17.637-17.637s7.912-17.637,17.637-17.637c9.725,0,17.637,7.912,17.637,17.637  S265.725,273.637,256.001,273.637z M275.653,228.686l47.52-47.52c3.246-3.246,8.598-3.525,12.16-0.622  c4.116,3.355,4.446,9.715,0.689,13.471l-48.97,48.97C284.631,237.232,280.652,232.294,275.653,228.686z"/>
<path d="M443.591,256c0-94.921-70.869-173.59-162.472-185.904V50.238h26.188c4.427,0,8.017-3.589,8.017-8.017V8.017  c0-4.427-3.589-8.017-8.017-8.017H204.694c-4.427,0-8.017,3.589-8.017,8.017v34.205c0,4.427,3.589,8.017,8.017,8.017h26.188v19.858  C139.278,82.41,68.41,161.079,68.41,256c0,22.093,3.849,43.301,10.898,63.002c1.76,4.92,7.73,6.817,12.049,3.874l0,0  c3.023-2.061,4.245-5.897,3.015-9.342c-6.773-18.966-10.299-39.46-9.898-60.815c1.723-91.613,76.057-166.209,167.664-168.232  c95.338-2.107,173.748,74,175.394,168.483c1.639,94.109-73.653,172.514-167.754,174.548c-59.492,1.286-112.381-27.886-144.13-72.968  c-2.51-3.564-7.429-4.428-11.03-1.973c-3.712,2.53-4.598,7.605-2.011,11.277c7.059,10.016,15.068,19.315,23.905,27.756  l-23.72,110.695c-1.054,4.915,2.817,9.696,7.838,9.696h17.102c2.852,0,5.489-1.515,6.925-3.977l46.645-79.963  c22.901,9.981,48.161,15.531,74.696,15.531c26.535,0,51.795-5.55,74.697-15.531l46.645,79.963c1.437,2.463,4.074,3.977,6.924,3.977  h17.102c5.023,0,8.892-4.781,7.838-9.696l-23.72-110.696C421.269,357.428,443.591,309.273,443.591,256z M212.71,34.205V16.033h86.58  v18.171H212.71z M265.086,68.633c-3.011-0.144-6.039-0.223-9.086-0.223c-3.046,0-6.075,0.079-9.086,0.223V50.238h18.171V68.633z   M123.129,495.967h-2.581l19.794-92.371c8.303,6.52,17.168,12.355,26.507,17.422L123.129,495.967z M391.454,495.967h-2.581  l-43.72-74.949c9.34-5.067,18.205-10.902,26.508-17.422L391.454,495.967z"/>
<path d="M392.882,211.706h0.002c5.034-0.775,8.12-6.004,6.286-10.756c-22.169-57.463-77.985-98.336-143.17-98.336  c-84.976,0-154.034,69.459-153.382,154.583c0.64,83.429,68.756,151.544,152.185,152.185  c85.125,0.652,154.583-68.406,154.583-153.382c0-1.781-0.032-3.554-0.094-5.32c-0.17-4.818-4.472-8.424-9.236-7.692l-0.004,0.001  c-4.012,0.617-6.931,4.133-6.785,8.19c0.058,1.6,0.088,3.207,0.088,4.821c0,75.735-61.615,137.352-137.352,137.353  c-75.743,0.001-137.356-61.612-137.355-137.354c0.001-75.736,61.617-137.352,137.353-137.352c58.383,0,108.37,36.618,128.213,88.091  C385.558,210.226,389.188,212.274,392.882,211.706z"/>
<g>
</g>
<g>
</g>
<g>
</g>
<g>
</g>
<g>
</g>
<g>
</g>
<g>
</g>
<g>
</g>
<g>
</g>
<g>
</g>
<g>
</g>
<g>
</g>
<g>
</g>
<g>
</g>
<g>
</g>
</svg>
