<?xml version="1.0" encoding="iso-8859-1"?>
<!-- Generator: Adobe Illustrator 19.0.0, SVG Export Plug-In . SVG Version: 6.00 Build 0)  -->
<svg xmlns="http://www.w3.org/2000/svg" xmlns:xlink="http://www.w3.org/1999/xlink" version="1.1" id="Layer_1" x="0px" y="0px" viewBox="0 0 512 512" style="enable-background:new 0 0 512 512;" xml:space="preserve">
<g>
	<rect x="8.018" y="247.448" style="fill:#FFC44F;" width="495.965" height="34.204"/>
	<rect x="25.12" y="281.652" style="fill:#FFC44F;" width="34.204" height="222.329"/>
	<rect x="452.675" y="281.652" style="fill:#FFC44F;" width="34.204" height="222.329"/>
	<rect x="281.652" y="281.652" style="fill:#FFC44F;" width="171.022" height="102.613"/>
</g>
<g>
	<rect x="25.12" y="281.652" style="fill:#F7AB49;" width="34.204" height="25.653"/>
	<rect x="452.675" y="281.652" style="fill:#F7AB49;" width="34.204" height="25.653"/>
	<rect x="281.652" y="281.652" style="fill:#F7AB49;" width="171.022" height="25.653"/>
</g>
<rect x="281.652" y="384.266" style="fill:#FFC44F;" width="171.022" height="59.858"/>
<rect x="281.652" y="384.266" style="fill:#F7AB49;" width="171.022" height="17.102"/>
<path style="fill:#D9DCDF;" d="M290.204,204.694H50.773c-9.446,0-17.102-7.656-17.102-17.102V25.121  c0-9.446,7.656-17.102,17.102-17.102h239.431c9.446,0,17.102,7.656,17.102,17.102v162.471  C307.307,197.038,299.65,204.694,290.204,204.694z"/>
<g>
	<path style="fill:#8E959F;" d="M33.671,153.388v34.204c0,9.446,7.658,17.102,17.102,17.102h239.431   c9.445,0,17.102-7.656,17.102-17.102v-34.204H33.671z"/>
	<rect x="153.386" y="204.692" style="fill:#8E959F;" width="34.204" height="42.756"/>
</g>
<rect x="153.386" y="204.692" style="fill:#68727E;" width="34.204" height="17.102"/>
<rect x="358.612" y="11.016" style="fill:#F7AB49;" width="25.653" height="102.613"/>
<rect x="384.266" y="11.016" style="fill:#FFD791;" width="25.653" height="102.613"/>
<g>
	
		<rect x="434.659" y="9.513" transform="matrix(-0.982 0.1887 -0.1887 -0.982 898.407 36.1006)" style="fill:#FF8C78;" width="25.652" height="102.61"/>
	<path style="fill:#FF8C78;" d="M418.471,230.348h-17.102c-9.446,0-17.102-7.656-17.102-17.102v-51.307h51.307v51.307   C435.573,222.691,427.917,230.348,418.471,230.348z"/>
</g>
<path style="fill:#DF7A6E;" d="M413.127,223.934c-12.52-18.779-15.299-40.423-15.89-61.996h-12.97v51.307  c0,9.446,7.658,17.102,17.102,17.102h17.102c0.102,0,0.2-0.014,0.301-0.015C416.656,228.377,414.747,226.25,413.127,223.934z"/>
<circle style="fill:#68727E;" cx="367.163" cy="332.959" r="17.102"/>
<path d="M503.982,239.433H195.608v-26.722h94.597c13.851,0,25.119-11.268,25.119-25.119V25.121  c0-13.851-11.268-25.119-25.119-25.119H256c-4.428,0-8.017,3.589-8.017,8.017s3.588,8.017,8.017,8.017h34.204  c5.01,0,9.086,4.076,9.086,9.086v120.25H41.688V25.121c0-5.01,4.076-9.086,9.086-9.086h162.471c4.428,0,8.017-3.589,8.017-8.017  s-3.588-8.017-8.017-8.017H50.773c-13.851,0-25.119,11.268-25.119,25.119v162.471c0,13.851,11.268,25.119,25.119,25.119h94.597  v26.722H8.018c-4.428,0-8.017,3.589-8.017,8.017v34.204c0,4.427,3.588,8.017,8.017,8.017h9.086v214.312  c0,4.427,3.588,8.017,8.017,8.017h34.204c4.428,0,8.017-3.589,8.017-8.017V289.671h26.188c4.428,0,8.017-3.589,8.017-8.017  s-3.588-8.017-8.017-8.017H16.034v-18.171h479.931v18.171H136.284c-4.428,0-8.017,3.589-8.017,8.017s3.588,8.017,8.017,8.017  h137.352v154.454c0,4.427,3.588,8.017,8.017,8.017h163.006v51.841c0,4.427,3.588,8.017,8.017,8.017h34.204  c4.428,0,8.017-3.589,8.017-8.017v-59.858c0-4.427-3.588-8.017-8.017-8.017c-4.428,0-8.017,3.589-8.017,8.017v51.841h-18.171  V289.671h18.171V401.37c0,4.427,3.588,8.017,8.017,8.017c4.428,0,8.017-3.589,8.017-8.017V289.671h9.086  c4.428,0,8.017-3.589,8.017-8.017V247.45C511.999,243.023,508.411,239.433,503.982,239.433z M51.308,289.671v206.296H33.137V289.671  H51.308z M41.688,187.592v-26.188H299.29v26.188c0,5.01-4.076,9.086-9.086,9.086H50.773  C45.764,196.678,41.688,192.602,41.688,187.592z M161.403,239.433v-26.722h18.171v26.722H161.403z M289.67,436.109v-43.824h154.989  v43.824H289.67z M444.659,376.251H289.67v-86.58h154.989V376.251z"/>
<path d="M341.511,144.302h153.92c4.428,0,8.017-3.589,8.017-8.017c0-4.427-3.588-8.017-8.017-8.017h-153.92  c-4.428,0-8.017,3.589-8.017,8.017C333.494,140.713,337.084,144.302,341.511,144.302z"/>
<path d="M358.613,121.646h51.307c4.428,0,8.017-3.589,8.017-8.017V17.42l18.775,97.722c0.824,4.289,5.094,7.185,9.385,6.36  l25.193-4.84c4.284-0.823,7.184-5.095,6.36-9.385L458.289,6.506c-0.835-4.347-5.034-7.199-9.385-6.36l-25.193,4.84  c-2.088,0.401-3.931,1.615-5.124,3.376c-0.3,0.445-0.554,0.915-0.758,1.402c-0.602-3.831-3.908-6.765-7.91-6.765h-51.307  c-4.428,0-8.017,3.589-8.017,8.017v102.613C350.597,118.057,354.186,121.646,358.613,121.646z M444.057,17.404l16.336,85.025  l-9.448,1.815l-16.336-85.025L444.057,17.404z M401.903,105.613h-9.62v-86.58h9.62V105.613z M366.63,19.033h9.62v86.58h-9.62V19.033  z"/>
<path d="M435.573,153.922h-51.307c-4.428,0-8.017,3.589-8.017,8.017v51.307c0,13.851,11.268,25.119,25.119,25.119h17.102  c11.048,0,20.446-7.172,23.8-17.102h18.956c4.428,0,8.017-3.589,8.017-8.017V170.49c0-4.427-3.588-8.017-8.017-8.017H443.59v-0.534  C443.59,157.512,440.002,153.922,435.573,153.922z M418.471,222.331h-17.102c-5.01,0-9.086-4.076-9.086-9.086v-43.29h35.273v43.29  C427.557,218.255,423.481,222.331,418.471,222.331z M453.21,178.507v26.722h-9.62v-26.722H453.21z"/>
<path d="M161.938,187.058h17.102c4.428,0,8.017-3.589,8.017-8.017s-3.588-8.017-8.017-8.017h-17.102  c-4.428,0-8.017,3.589-8.017,8.017S157.51,187.058,161.938,187.058z"/>
<path d="M367.164,358.08c13.851,0,25.119-11.268,25.119-25.119s-11.268-25.119-25.119-25.119c-13.851,0-25.119,11.268-25.119,25.119  S353.314,358.08,367.164,358.08z M367.164,323.876c5.01,0,9.086,4.076,9.086,9.086c0,5.01-4.076,9.086-9.086,9.086  c-5.01,0-9.086-4.076-9.086-9.086C358.079,327.951,362.156,323.876,367.164,323.876z"/>
<g>
</g>
<g>
</g>
<g>
</g>
<g>
</g>
<g>
</g>
<g>
</g>
<g>
</g>
<g>
</g>
<g>
</g>
<g>
</g>
<g>
</g>
<g>
</g>
<g>
</g>
<g>
</g>
<g>
</g>
</svg>
