<?xml version="1.0" encoding="iso-8859-1"?>
<!-- Generator: Adobe Illustrator 19.0.0, SVG Export Plug-In . SVG Version: 6.00 Build 0)  -->
<svg xmlns="http://www.w3.org/2000/svg" xmlns:xlink="http://www.w3.org/1999/xlink" version="1.1" id="Layer_1" x="0px" y="0px" viewBox="0 0 512 512" style="enable-background:new 0 0 512 512;" xml:space="preserve">
<g>
	<circle style="fill:#FFC44F;" cx="153.386" cy="486.881" r="17.102"/>
	<circle style="fill:#FFC44F;" cx="256" cy="486.881" r="17.102"/>
	<circle style="fill:#FFC44F;" cx="358.614" cy="486.881" r="17.102"/>
</g>
<rect x="238.898" y="230.347" style="fill:#8E959F;" width="34.205" height="171.023"/>
<path style="fill:#C4DF64;" d="M375.716,350.063H136.284c-9.446,0-17.102-7.656-17.102-17.102l0,0  c0-9.446,7.656-17.102,17.102-17.102h239.432c9.446,0,17.102,7.656,17.102,17.102l0,0  C392.818,342.406,385.162,350.063,375.716,350.063z"/>
<path style="fill:#A6C451;" d="M119.182,332.96c0,9.446,7.656,17.102,17.102,17.102h239.432c9.446,0,17.102-7.656,17.102-17.102  H119.182L119.182,332.96z"/>
<path style="fill:#C4DF64;" d="M336.21,264.551H175.79c-17.573,0-32.286-13.315-34.035-30.801L122.943,45.625  c-2.014-20.136,13.798-37.608,34.035-37.608h198.045c20.236,0,36.048,17.472,34.035,37.608L370.244,233.75  C368.497,251.236,353.782,264.551,336.21,264.551z"/>
<path style="fill:#A6C451;" d="M162.445,233.75L143.633,45.625c-2.014-20.136,13.798-37.608,34.035-37.608h-20.69  c-20.236,0-36.048,17.472-34.035,37.608l18.813,188.125c1.749,17.485,16.462,30.801,34.035,30.801h20.691  C178.907,264.551,164.194,251.236,162.445,233.75z"/>
<g>
	<path style="fill:#FFD791;" d="M452.676,264.551H401.37V256c0-9.446,7.656-17.102,17.102-17.102h17.102   c9.446,0,17.102,7.656,17.102,17.102V264.551z"/>
	<path style="fill:#FFD791;" d="M59.324,264.551h51.307V256c0-9.446-7.656-17.102-17.102-17.102H76.426   c-9.446,0-17.102,7.656-17.102,17.102V264.551z"/>
</g>
<rect x="213.244" y="8.017" style="fill:#ECEDEF;" width="85.511" height="94.063"/>
<polygon style="fill:#D9DCDF;" points="213.244,8.017 213.244,102.079 270.763,102.079 238.222,8.017 "/>
<path d="M435.574,230.881h-17.102c-13.851,0-25.119,11.268-25.119,25.119v8.551c0,4.427,3.588,8.017,8.017,8.017h17.637v52.376  h-19.49c-3.354-9.93-12.752-17.102-23.8-17.102h-34.205c-4.428,0-8.017,3.589-8.017,8.017c0,4.427,3.588,8.017,8.017,8.017h34.205  c5.01,0,9.086,4.076,9.086,9.086c0,5.01-4.076,9.086-9.086,9.086H136.284c-5.01,0-9.086-4.076-9.086-9.086  c0-5.01,4.076-9.086,9.086-9.086h162.472c4.428,0,8.017-3.589,8.017-8.017c0-4.427-3.588-8.017-8.017-8.017h-17.637v-35.273h55.091  c21.784,0,39.845-16.345,42.013-38.021l18.813-188.125c1.184-11.847-2.718-23.704-10.707-32.532C378.339,5.062,366.929,0,355.023,0  H156.977c-11.906,0-23.316,5.062-31.305,13.89s-11.891,20.685-10.707,32.532l3.936,39.352c0.414,4.134,3.898,7.219,7.968,7.219  c0.266,0,0.537-0.013,0.807-0.041c4.406-0.44,7.62-4.369,7.18-8.775l-3.936-39.352c-0.745-7.457,1.613-14.622,6.641-20.179  s11.924-8.615,19.416-8.615h48.251v86.046c0,4.427,3.588,8.017,8.017,8.017h85.511c4.428,0,8.017-3.589,8.017-8.017V16.033h48.251  c7.493,0,14.388,3.059,19.416,8.615s7.386,12.722,6.641,20.179l-18.813,188.125c-1.345,13.443-12.547,23.582-26.059,23.582H175.79  c-13.512,0-24.714-10.138-26.059-23.582l-11.456-114.568c-0.44-4.405-4.353-7.615-8.775-7.18c-4.406,0.44-7.62,4.369-7.18,8.775  l11.456,114.568c2.168,21.675,20.229,38.021,42.013,38.021h55.091v35.273h-94.597c-11.048,0-20.446,7.172-23.8,17.102h-19.49  v-52.376h17.637c4.428,0,8.017-3.589,8.017-8.017V256c0-13.851-11.268-25.119-25.119-25.119H76.426  c-13.851,0-25.119,11.268-25.119,25.119v8.551c0,4.427,3.588,8.017,8.017,8.017H76.96v60.392c0,4.427,3.588,8.017,8.017,8.017  h27.507c3.354,9.93,12.752,17.102,23.8,17.102h94.597v43.29c0,4.427,3.588,8.017,8.017,8.017h9.086v18.171h-94.597  c-4.428,0-8.017,3.589-8.017,8.017v25.653c0,0.615,0.076,1.21,0.206,1.784c-10.037,3.293-17.309,12.745-17.309,23.869  c0,13.851,11.268,25.119,25.119,25.119c13.851,0,25.119-11.268,25.119-25.119c0-11.124-7.272-20.576-17.309-23.869  c0.13-0.574,0.206-1.169,0.206-1.784v-17.637h86.58v17.637c0,0.615,0.076,1.21,0.206,1.784  c-10.037,3.293-17.309,12.745-17.309,23.869C230.881,500.732,242.149,512,256,512c13.851,0,25.119-11.268,25.119-25.119  c0-11.124-7.272-20.576-17.309-23.869c0.13-0.574,0.206-1.169,0.206-1.784v-17.637h86.58v17.637c0,0.615,0.076,1.21,0.206,1.784  c-10.037,3.293-17.309,12.745-17.309,23.869c0,13.851,11.268,25.119,25.119,25.119c13.851,0,25.119-11.268,25.119-25.119  c0-11.124-7.272-20.576-17.309-23.869c0.13-0.574,0.206-1.169,0.206-1.784v-25.653c0-4.427-3.588-8.017-8.017-8.017h-94.597v-18.171  h9.086c4.428,0,8.017-3.589,8.017-8.017v-9.112c0.177,0.012,0.354,0.027,0.534,0.027h34.739v17.637c0,4.427,3.588,8.017,8.017,8.017  h43.29v0.534c0,4.427,3.588,8.017,8.017,8.017c4.428,0,8.017-3.589,8.017-8.017V401.37c0-4.427-3.588-8.017-8.017-8.017  c-4.428,0-8.017,3.589-8.017,8.017v0.534h-35.273v-17.637c0-4.427-3.588-8.017-8.017-8.017h-42.756  c-0.181,0-0.357,0.015-0.534,0.027v-18.198h94.597c11.048,0,20.446-7.172,23.8-17.102h27.507c4.428,0,8.017-3.589,8.017-8.017  v-60.392h17.637c4.428,0,8.017-3.589,8.017-8.017V256C460.693,242.149,449.425,230.881,435.574,230.881z M221.261,16.033h69.478  v78.029h-9.086h-60.392V16.033z M246.914,307.841v-35.273h18.171v35.273H246.914z M67.34,256c0-5.01,4.076-9.086,9.086-9.086h17.102  c5.01,0,9.086,4.076,9.086,9.086v0.534H67.34V256z M153.386,495.967c-5.01,0-9.086-4.076-9.086-9.086s4.076-9.086,9.086-9.086  c5.01,0,9.086,4.076,9.086,9.086S158.396,495.967,153.386,495.967z M358.614,495.967c-5.01,0-9.086-4.076-9.086-9.086  s4.076-9.086,9.086-9.086s9.086,4.076,9.086,9.086S363.624,495.967,358.614,495.967z M256,495.967c-5.01,0-9.086-4.076-9.086-9.086  s4.076-9.086,9.086-9.086c5.01,0,9.086,4.076,9.086,9.086S261.01,495.967,256,495.967z M246.914,393.353v-35.273h18.171v35.273  H246.914z M444.66,256.534h-35.273V256c0-5.01,4.076-9.086,9.086-9.086h17.102c5.01,0,9.086,4.076,9.086,9.086V256.534z"/>
<path d="M213.244,161.403h85.511c4.428,0,8.017-3.589,8.017-8.017c0-4.427-3.588-8.017-8.017-8.017h-85.511  c-4.428,0-8.017,3.589-8.017,8.017C205.228,157.814,208.816,161.403,213.244,161.403z"/>
<path d="M213.244,195.608h85.511c4.428,0,8.017-3.589,8.017-8.017s-3.588-8.017-8.017-8.017h-85.511  c-4.428,0-8.017,3.589-8.017,8.017S208.816,195.608,213.244,195.608z"/>
<path d="M213.244,229.812h85.511c4.428,0,8.017-3.589,8.017-8.017s-3.588-8.017-8.017-8.017h-85.511  c-4.428,0-8.017,3.589-8.017,8.017S208.816,229.812,213.244,229.812z"/>
<g>
</g>
<g>
</g>
<g>
</g>
<g>
</g>
<g>
</g>
<g>
</g>
<g>
</g>
<g>
</g>
<g>
</g>
<g>
</g>
<g>
</g>
<g>
</g>
<g>
</g>
<g>
</g>
<g>
</g>
</svg>
