<?xml version="1.0" encoding="iso-8859-1"?>
<!-- Generator: Adobe Illustrator 19.0.0, SVG Export Plug-In . SVG Version: 6.00 Build 0)  -->
<svg xmlns="http://www.w3.org/2000/svg" xmlns:xlink="http://www.w3.org/1999/xlink" version="1.1" id="Layer_1" x="0px" y="0px" viewBox="0 0 512 512" style="enable-background:new 0 0 512 512;" xml:space="preserve">
<path style="fill:#D9DCDF;" d="M134.649,148.881l247.91,247.91l-6.047,90.699L134.649,245.625  C107.935,218.91,107.935,175.596,134.649,148.881z"/>
<path style="fill:#F6F6F7;" d="M382.559,396.79l-247.91-247.91c-4.605,4.605-8.396,9.71-11.413,15.131L380.9,421.675L382.559,396.79  z"/>
<path style="fill:#D9DCDF;" d="M378.419,148.881L130.51,396.79l6.047,90.699l241.863-241.863  C405.135,218.91,405.135,175.596,378.419,148.881z"/>
<path style="fill:#F6F6F7;" d="M378.419,148.881L130.51,396.79l1.748,26.221l258.085-258.085  C387.25,159.163,383.284,153.744,378.419,148.881z"/>
<g>
	<path style="fill:#FF8C78;" d="M33.765,372.603c-30.055,30.055-30.055,78.784,0,108.838c30.055,30.054,78.784,30.055,108.838,0   c30.055-30.055,30.055-78.784,0-108.838S63.819,342.549,33.765,372.603z M63.998,402.837c13.358-13.358,35.015-13.358,48.373,0   s13.358,35.015,0,48.373s-35.015,13.358-48.373,0S50.64,416.194,63.998,402.837z"/>
	<path style="fill:#FF8C78;" d="M370.467,372.603c-30.055,30.055-30.055,78.784,0,108.838c30.055,30.055,78.784,30.055,108.838,0   c30.054-30.055,30.055-78.784,0-108.838C449.249,342.549,400.521,342.549,370.467,372.603z M449.072,451.209   c-13.358,13.358-35.015,13.358-48.373,0c-13.358-13.358-13.358-35.015,0-48.373c13.358-13.358,35.015-13.358,48.373,0   C462.43,416.194,462.43,437.852,449.072,451.209z"/>
</g>
<g>
	<path style="fill:#DF7A6E;" d="M391.289,481.442c-30.055-30.055-30.055-78.784,0-108.838c12.372-12.372,27.912-19.64,44.008-21.825   c-23.004-3.123-47.148,4.143-64.831,21.825c-30.055,30.055-30.055,78.784,0,108.838c17.682,17.682,41.827,24.949,64.831,21.825   C419.201,501.081,403.661,493.815,391.289,481.442z"/>
	<path style="fill:#DF7A6E;" d="M54.587,481.442c-30.055-30.055-30.055-78.784,0-108.838c12.372-12.372,27.912-19.64,44.008-21.825   c-23.004-3.123-47.148,4.143-64.831,21.825c-30.055,30.055-30.055,78.784,0,108.838c17.682,17.682,41.827,24.949,64.831,21.825   C82.499,501.081,66.96,493.815,54.587,481.442z"/>
</g>
<circle style="fill:#FFD791;" cx="264.551" cy="320.689" r="17.102"/>
<path d="M424.608,384.802c-11.278,0-21.881,4.392-29.856,12.366c-16.46,16.462-16.46,43.247,0.001,59.709  c7.974,7.974,18.577,12.366,29.855,12.366s21.88-4.392,29.854-12.366c7.975-7.974,12.367-18.577,12.367-29.855  c0-11.278-4.392-21.88-12.366-29.855C446.487,389.194,435.885,384.802,424.608,384.802z M443.126,445.54  C443.125,445.54,443.125,445.54,443.126,445.54c-10.095,10.095-26.941,10.095-37.035,0c-10.211-10.211-10.211-26.825-0.001-37.035  c10.096-10.095,26.941-10.095,37.036,0c4.946,4.946,7.67,11.523,7.67,18.518S448.071,440.595,443.126,445.54z"/>
<path d="M484.695,366.935c-16.049-16.049-37.389-24.889-60.087-24.889s-44.037,8.84-60.089,24.889  c-0.126,0.126-0.242,0.26-0.368,0.387l-48.441-48.441l26.527-26.527c3.131-3.131,3.131-8.207,0-11.337  c-3.132-3.131-8.207-3.131-11.338,0L171.272,440.646c0.715-4.465,1.099-9.013,1.099-13.623c0-17.072-5.003-33.374-14.311-47.235  l219.195-219.195c18.096,23.659,16.331,57.74-5.293,79.365l-19.684,19.683c-3.131,3.131-3.131,8.206,0,11.337  c3.131,3.131,8.207,3.131,11.337,0l19.684-19.683c29.798-29.799,29.798-78.284,0-108.082c-3.088-3.087-8.251-3.087-11.338,0  L256,259.171l-115.959-115.96c-3.086-3.087-8.252-3.087-11.337,0c-29.798,29.799-29.798,78.284,0,108.082l67.587,67.587  l-48.441,48.441c-0.126-0.127-0.243-0.261-0.369-0.387c-33.132-33.133-87.043-33.133-120.176,0c-3.131,3.131-3.131,8.207,0,11.337  c3.131,3.131,8.207,3.131,11.337,0c26.881-26.881,70.62-26.881,97.501,0c13.022,13.022,20.194,30.335,20.194,48.75  c0,18.415-7.171,35.729-20.194,48.75c-26.881,26.881-70.62,26.881-97.501,0c-16.096-16.096-23.204-39.085-19.012-61.496  c0.814-4.351-2.053-8.539-6.406-9.354c-4.351-0.817-8.539,2.054-9.354,6.406c-5.165,27.613,3.596,55.942,23.434,75.78  c16.568,16.568,38.324,24.852,60.088,24.85c21.758-0.002,43.523-8.285,60.088-24.85c0.36-0.36,108.52-108.519,108.52-108.519  s108.16,108.161,108.518,108.519C380.57,503.16,401.909,512,424.608,512c22.699,0,44.037-8.84,60.088-24.889  c16.051-16.049,24.889-37.389,24.889-60.088C509.585,404.324,500.745,382.986,484.695,366.935z M140.041,239.957  c-21.625-21.626-23.39-55.706-5.294-79.365l109.916,109.916l-37.035,37.035L140.041,239.957z M267.338,367.254l37.035-37.035  l49.587,49.587c-12.161,18.184-16.542,40.053-13.167,60.903L267.338,367.254z M473.357,475.773  c-13.021,13.022-30.334,20.194-48.749,20.194c-18.415,0-35.729-7.171-48.75-20.194c-26.881-26.881-26.881-70.62,0-97.501  c13.021-13.021,30.334-20.192,48.75-20.192c18.416,0,35.729,7.171,48.749,20.194c13.022,13.022,20.195,30.335,20.195,48.75  S486.38,462.752,473.357,475.773z"/>
<path d="M117.248,456.878c7.975-7.974,12.366-18.577,12.366-29.855s-4.391-21.88-12.366-29.855  c-16.462-16.462-43.247-16.463-59.709,0c-16.462,16.462-16.462,43.247,0,59.709c8.232,8.232,19.043,12.347,29.855,12.347  C98.204,469.224,109.017,465.109,117.248,456.878z M68.875,408.505c10.211-10.211,26.825-10.209,37.035,0  c10.095,10.095,10.095,26.94,0,37.035c-10.211,10.21-26.825,10.21-37.035,0C58.665,435.329,58.665,418.717,68.875,408.505z"/>
<path d="M230.881,317.996c0,13.851,11.268,25.119,25.119,25.119c13.851,0,25.119-11.268,25.119-25.119  c0-13.851-11.268-25.119-25.119-25.119S230.881,304.145,230.881,317.996z M265.085,317.996c0,5.01-4.076,9.086-9.086,9.086  s-9.086-4.076-9.086-9.086s4.076-9.086,9.086-9.086S265.085,312.986,265.085,317.996z"/>
<path d="M256,255.466c4.428,0,8.017-3.589,8.017-8.017v-17.102c0-4.427-3.588-8.017-8.017-8.017c-4.427,0-8.017,3.589-8.017,8.017  v17.102C247.983,251.876,251.572,255.466,256,255.466z"/>
<path d="M256,201.049c4.428,0,8.017-3.589,8.017-8.017v-18.658c0-4.427-3.588-8.017-8.017-8.017c-4.427,0-8.017,3.589-8.017,8.017  v18.658C247.983,197.46,251.572,201.049,256,201.049z"/>
<path d="M256,89.107c4.428,0,8.017-3.589,8.017-8.017V62.433c0-4.427-3.588-8.017-8.017-8.017c-4.427,0-8.017,3.589-8.017,8.017  v18.658C247.983,85.518,251.572,89.107,256,89.107z"/>
<path d="M256,145.079c4.428,0,8.017-3.589,8.017-8.017v-18.658c0-4.427-3.588-8.017-8.017-8.017c-4.427,0-8.017,3.589-8.017,8.017  v18.658C247.983,141.489,251.572,145.079,256,145.079z"/>
<path d="M256,33.136c4.428,0,8.017-3.589,8.017-8.017V8.017C264.017,3.589,260.428,0,256,0c-4.427,0-8.017,3.589-8.017,8.017v17.102  C247.983,29.546,251.572,33.136,256,33.136z"/>
<g>
</g>
<g>
</g>
<g>
</g>
<g>
</g>
<g>
</g>
<g>
</g>
<g>
</g>
<g>
</g>
<g>
</g>
<g>
</g>
<g>
</g>
<g>
</g>
<g>
</g>
<g>
</g>
<g>
</g>
</svg>
