<?xml version="1.0" encoding="iso-8859-1"?>
<!-- Generator: Adobe Illustrator 19.0.0, SVG Export Plug-In . SVG Version: 6.00 Build 0)  -->
<svg xmlns="http://www.w3.org/2000/svg" xmlns:xlink="http://www.w3.org/1999/xlink" version="1.1" id="Layer_1" x="0px" y="0px" viewBox="0 0 512 512" style="enable-background:new 0 0 512 512;" xml:space="preserve">
<rect x="61.331" y="112.108" style="fill:#FFC44F;" width="170.393" height="110.755"/>
<polygon style="fill:#F7AB49;" points="231.726,129.149 231.726,112.11 61.333,112.11 61.333,129.149 146.529,180.267 "/>
<polygon style="fill:#FFC44F;" points="229.596,112.11 63.463,112.11 146.529,163.228 "/>
<polygon style="fill:#B3B9BF;" points="342.481,504.013 103.931,504.013 52.813,197.306 393.599,197.306 "/>
<path style="fill:#8E959F;" d="M383.718,256.589l9.881-59.283H52.813l9.881,59.283l41.237,247.424h68.873  c-46.894-48.779-77.392-127.909-77.392-217.251c0-10.202,0.406-20.268,1.182-30.173L383.718,256.589L383.718,256.589z"/>
<g>
	<path style="fill:#68727E;" d="M223.206,452.893c-7.057,0-12.779-5.722-12.779-12.779V295.28c0-7.057,5.722-12.779,12.779-12.779   s12.779,5.722,12.779,12.779v144.834C235.985,447.171,230.263,452.893,223.206,452.893z"/>
	<path style="fill:#68727E;" d="M299.897,452.895c-0.737,0-1.485-0.064-2.236-0.197c-6.95-1.227-11.591-7.855-10.364-14.806   l25.559-144.834c1.226-6.951,7.854-11.592,14.806-10.364c6.95,1.227,11.591,7.855,10.364,14.806l-25.559,144.834   C311.373,448.534,305.982,452.895,299.897,452.895z"/>
	<path style="fill:#68727E;" d="M146.514,452.895c-6.084,0-11.476-4.361-12.57-10.561L108.386,297.5   c-1.227-6.95,3.414-13.579,10.364-14.806c6.952-1.228,13.579,3.414,14.806,10.364l25.559,144.834   c1.227,6.95-3.414,13.579-10.364,14.806C147.999,452.831,147.251,452.895,146.514,452.895z"/>
</g>
<path style="fill:#8E959F;" d="M467.036,188.786L120.97,44.697l6.549-15.73c7.234-17.375,27.184-25.596,44.56-18.362l117.978,49.122  l165.167,68.769c17.375,7.234,25.596,27.184,18.361,44.56L467.036,188.786z"/>
<g>
	
		<rect x="109.833" y="100.347" transform="matrix(0.9232 0.3844 -0.3844 0.9232 64.686 -105.9034)" style="fill:#68727E;" width="374.875" height="17.04"/>
	<rect x="35.774" y="197.304" style="fill:#68727E;" width="374.864" height="34.079"/>
</g>
<path d="M243.973,440.113V295.28c0-11.45-9.316-20.767-20.767-20.767c-11.45,0-20.767,9.316-20.767,20.767v144.834  c0,11.45,9.316,20.767,20.767,20.767C234.656,460.88,243.973,451.564,243.973,440.113z M218.414,440.113V295.28  c0-2.642,2.15-4.792,4.792-4.792s4.792,2.15,4.792,4.792v144.834c0,2.642-2.15,4.792-4.792,4.792S218.414,442.756,218.414,440.113z"/>
<path d="M299.897,460.882c10.086,0,18.681-7.216,20.435-17.16l25.559-144.834c1.99-11.276-5.564-22.069-16.84-24.059  c-11.159-1.968-22.096,5.699-24.06,16.841l-25.559,144.834c-1.99,11.277,5.564,22.07,16.841,24.059  C297.469,460.775,298.689,460.882,299.897,460.882z M295.163,439.281l25.559-144.834c0.454-2.569,2.978-4.342,5.551-3.886h0.001  c2.603,0.459,4.346,2.95,3.887,5.553l-25.559,144.834c-0.454,2.574-2.939,4.345-5.552,3.887  C296.447,444.373,294.704,441.883,295.163,439.281z"/>
<path d="M146.514,460.882c1.21,0,2.429-0.108,3.624-0.318c11.277-1.99,18.832-12.783,16.841-24.059l-25.559-144.834  c-1.965-11.138-12.903-18.816-24.059-16.841c-11.277,1.99-18.832,12.783-16.841,24.059l25.559,144.834  C127.833,453.666,136.428,460.882,146.514,460.882z M120.139,290.56c2.573-0.456,5.098,1.318,5.551,3.886l25.559,144.834l0,0  c0.459,2.602-1.284,5.093-3.887,5.552c-2.606,0.462-5.098-1.313-5.552-3.886L116.25,296.111  C115.791,293.51,117.535,291.02,120.139,290.56z"/>
<path d="M481.017,143.931c-4.281-10.389-12.351-18.489-22.724-22.807l-94.872-39.502l10.029-24.087  c1.674-4.02-0.292-8.773-4.303-10.444l-78.651-32.747c-4.019-1.675-8.774,0.293-10.444,4.303l-10.029,24.087L175.15,3.232  c-21.413-8.916-46.088,1.251-55.004,22.664l-6.549,15.73c-1.695,4.072,0.231,8.748,4.303,10.444l247.074,102.873  c4.294,1.789,9.311-0.578,10.696-5.003c1.216-3.885-0.803-8.181-4.556-9.744l-239.7-99.803l3.479-8.357  c5.529-13.281,20.834-19.59,34.116-14.057l283.145,117.891c13.116,5.461,19.532,20.968,14.058,34.116l-3.479,8.357l-57.548-23.961  c-4.072-1.696-8.748,0.231-10.444,4.303c-1.695,4.072,0.231,8.748,4.303,10.444l64.921,27.031c4.02,1.675,8.774-0.294,10.444-4.303  l6.549-15.73C485.277,165.754,485.299,154.319,481.017,143.931z M291.728,32.16l63.904,26.608l-6.959,16.713l-63.904-26.607  L291.728,32.16z"/>
<path d="M410.638,189.319H239.713V112.11c0-4.411-3.576-7.987-7.987-7.987h-76.677c-4.411,0-7.987,3.576-7.987,7.987  c0,4.411,3.576,7.987,7.987,7.987h46.329l-54.848,33.753l-54.848-33.753h20.77c4.411,0,7.987-3.576,7.987-7.987  c0-4.411-3.576-7.987-7.987-7.987H61.333c-4.411,0-7.987,3.576-7.987,7.987v77.209H35.774c-4.411,0-7.987,3.576-7.987,7.987v34.079  c0,4.411,3.576,7.987,7.987,7.987h15.953l31.546,189.277c0.651,3.906,4.035,6.675,7.869,6.675c0.436,0,0.879-0.036,1.323-0.11  c4.351-0.725,7.291-4.84,6.565-9.192L67.922,239.372H378.49l-42.776,256.654H110.698l-5.987-35.924  c-0.725-4.351-4.847-7.292-9.192-6.565c-4.351,0.725-7.291,4.84-6.565,9.192l7.1,42.598c0.642,3.852,3.973,6.674,7.879,6.674h238.55  c3.905,0,7.236-2.822,7.879-6.674l44.326-265.954h15.953c4.411,0,7.987-3.576,7.987-7.987v-34.079  C418.625,192.895,415.049,189.319,410.638,189.319z M146.529,171.215c1.452,0,2.903-0.395,4.186-1.185l73.023-44.938v64.226H69.32  v-64.226l73.023,44.938C143.626,170.82,145.078,171.215,146.529,171.215z M402.651,223.397H43.761v-18.104h358.889V223.397z"/>
<g>
</g>
<g>
</g>
<g>
</g>
<g>
</g>
<g>
</g>
<g>
</g>
<g>
</g>
<g>
</g>
<g>
</g>
<g>
</g>
<g>
</g>
<g>
</g>
<g>
</g>
<g>
</g>
<g>
</g>
</svg>
