<?xml version="1.0" encoding="iso-8859-1"?>
<!-- Generator: Adobe Illustrator 19.0.0, SVG Export Plug-In . SVG Version: 6.00 Build 0)  -->
<svg xmlns="http://www.w3.org/2000/svg" xmlns:xlink="http://www.w3.org/1999/xlink" version="1.1" id="Layer_1" x="0px" y="0px" viewBox="0 0 512 512" style="enable-background:new 0 0 512 512;" xml:space="preserve">
<path style="fill:#C4DF64;" d="M469.779,345.787H42.221c-18.891,0-34.205-6.763-34.205-25.653V140.56  c0-18.891,15.314-34.205,34.205-34.205h427.557c18.891,0,34.205,15.314,34.205,34.205v179.574  C503.983,339.024,488.669,345.787,469.779,345.787z"/>
<path style="fill:#A6C451;" d="M495.432,324.409H67.875c-18.891,0-34.205-6.763-34.205-25.653V119.182  c0-4.314,0.807-8.439,2.265-12.24c-15.887,2.952-27.918,16.876-27.918,33.618v179.574c0,18.891,15.314,25.653,34.205,25.653h427.557  c17.568,0,32.035-5.855,33.976-21.867C501.09,324.25,498.303,324.409,495.432,324.409z"/>
<circle style="fill:#D9DCDF;" cx="384.267" cy="226.071" r="85.511"/>
<circle style="fill:#4D8CCF;" cx="384.267" cy="226.071" r="59.858"/>
<circle style="fill:#509FE8;" cx="384.267" cy="226.071" r="42.756"/>
<circle style="fill:#FF8C78;" cx="76.426" cy="294.48" r="17.102"/>
<circle style="fill:#FFC44F;" cx="153.386" cy="294.48" r="17.102"/>
<circle style="fill:#509FE8;" cx="230.347" cy="294.48" r="17.102"/>
<g>
	<polygon style="fill:#68727E;" points="102.079,405.645 67.875,405.645 59.324,345.787 110.63,345.787  "/>
	<polygon style="fill:#68727E;" points="444.125,405.645 409.921,405.645 401.37,345.787 452.676,345.787  "/>
</g>
<circle style="fill:#C5E8FA;" cx="397.094" cy="204.693" r="12.827"/>
<path d="M503.983,247.983c-4.427,0-8.017,3.589-8.017,8.017v64.134c0,4.362,0,17.637-26.188,17.637H42.221  c-26.188,0-26.188-13.275-26.188-17.637V140.56c0-14.44,11.748-26.188,26.188-26.188h42.756c4.427,0,8.017-3.589,8.017-8.017  c0-4.427-3.589-8.017-8.017-8.017H42.221C18.941,98.338,0,117.279,0,140.56v179.574c0,21.083,15.784,33.67,42.221,33.67H52.37  l6.261,43.825h-7.859c-4.427,0-8.017,3.589-8.017,8.017c0,4.427,3.589,8.017,8.017,8.017h68.409c4.427,0,8.017-3.589,8.017-8.017  c0-4.427-3.589-8.017-8.017-8.017h-7.859l6.261-43.825h276.833l6.26,43.825h-7.858c-4.427,0-8.017,3.589-8.017,8.017  c0,4.427,3.589,8.017,8.017,8.017h68.409c4.427,0,8.017-3.589,8.017-8.017c0-4.427-3.589-8.017-8.017-8.017h-7.858l6.26-43.825  h10.149c26.437,0,42.221-12.587,42.221-33.67V256C512,251.572,508.411,247.983,503.983,247.983z M95.126,397.628H74.828  l-6.261-43.825h32.82L95.126,397.628z M437.172,397.628h-20.298l-6.26-43.825h32.82L437.172,397.628z"/>
<path d="M469.779,98.338H127.733c-4.427,0-8.017,3.589-8.017,8.017c0,4.427,3.589,8.017,8.017,8.017h342.046  c14.44,0,26.188,11.748,26.188,26.188v72.685c0,4.427,3.589,8.017,8.017,8.017c4.427,0,8.017-3.589,8.017-8.017V140.56  C512,117.279,493.059,98.338,469.779,98.338z"/>
<path d="M322.4,296.215c17.085,15.079,39.056,23.384,61.868,23.384c51.572,0,93.528-41.956,93.528-93.528  s-41.956-93.528-93.528-93.528s-93.528,41.956-93.528,93.528c0,14.306,3.148,28.04,9.356,40.82  c1.935,3.983,6.733,5.642,10.714,3.708c3.983-1.935,5.643-6.731,3.708-10.714c-5.138-10.579-7.744-21.956-7.744-33.814  c0-42.731,34.764-77.495,77.495-77.495s77.495,34.764,77.495,77.495s-34.764,77.495-77.495,77.495  c-18.9,0-37.105-6.88-51.258-19.373c-3.319-2.93-8.384-2.615-11.315,0.705C318.764,288.219,319.081,293.284,322.4,296.215z"/>
<path d="M384.267,293.946c37.426,0,67.875-30.449,67.875-67.875s-30.448-67.875-67.875-67.875s-67.875,30.449-67.875,67.875  S346.841,293.946,384.267,293.946z M384.267,174.23c28.585,0,51.841,23.256,51.841,51.841s-23.256,51.841-51.841,51.841  c-28.585,0-51.841-23.256-51.841-51.841S355.682,174.23,384.267,174.23z"/>
<path d="M247.449,149.645H59.324c-4.427,0-8.017,3.589-8.017,8.017c0,4.427,3.589,8.017,8.017,8.017h188.125  c4.427,0,8.017-3.589,8.017-8.017C255.466,153.234,251.876,149.645,247.449,149.645z"/>
<path d="M247.449,183.85H59.324c-4.427,0-8.017,3.589-8.017,8.017s3.589,8.017,8.017,8.017h188.125c4.427,0,8.017-3.589,8.017-8.017  S251.876,183.85,247.449,183.85z"/>
<path d="M247.449,218.054H59.324c-4.427,0-8.017,3.589-8.017,8.017s3.589,8.017,8.017,8.017h188.125  c4.427,0,8.017-3.589,8.017-8.017S251.876,218.054,247.449,218.054z"/>
<path d="M51.307,294.48c0,13.851,11.268,25.119,25.119,25.119s25.119-11.268,25.119-25.119c0-13.851-11.268-25.119-25.119-25.119  S51.307,280.629,51.307,294.48z M85.511,294.48c0,5.01-4.076,9.086-9.086,9.086s-9.086-4.076-9.086-9.086s4.076-9.086,9.086-9.086  S85.511,289.47,85.511,294.48z"/>
<path d="M128.267,294.48c0,13.851,11.268,25.119,25.119,25.119c13.851,0,25.119-11.268,25.119-25.119  c0-13.851-11.268-25.119-25.119-25.119C139.536,269.361,128.267,280.629,128.267,294.48z M162.472,294.48  c0,5.01-4.076,9.086-9.086,9.086c-5.01,0-9.086-4.076-9.086-9.086s4.076-9.086,9.086-9.086  C158.396,285.395,162.472,289.47,162.472,294.48z"/>
<path d="M230.347,269.361c-13.851,0-25.119,11.268-25.119,25.119c0,13.851,11.268,25.119,25.119,25.119  c13.851,0,25.119-11.268,25.119-25.119C255.466,280.629,244.197,269.361,230.347,269.361z M230.347,303.566  c-5.01,0-9.086-4.076-9.086-9.086s4.076-9.086,9.086-9.086s9.086,4.076,9.086,9.086S235.356,303.566,230.347,303.566z"/>
<g>
</g>
<g>
</g>
<g>
</g>
<g>
</g>
<g>
</g>
<g>
</g>
<g>
</g>
<g>
</g>
<g>
</g>
<g>
</g>
<g>
</g>
<g>
</g>
<g>
</g>
<g>
</g>
<g>
</g>
</svg>
