<?xml version="1.0" encoding="iso-8859-1"?>
<!-- Generator: Adobe Illustrator 19.0.0, SVG Export Plug-In . SVG Version: 6.00 Build 0)  -->
<svg xmlns="http://www.w3.org/2000/svg" xmlns:xlink="http://www.w3.org/1999/xlink" version="1.1" id="Layer_1" x="0px" y="0px" viewBox="0 0 512 512" style="enable-background:new 0 0 512 512;" xml:space="preserve">
<path style="fill:#509FE8;" d="M418.472,503.983H93.528c-18.891,0-34.205-15.314-34.205-34.205V42.221  c0-18.891,15.314-34.205,34.205-34.205h324.944c18.891,0,34.205,15.314,34.205,34.205v427.557  C452.676,488.669,437.362,503.983,418.472,503.983z"/>
<path style="fill:#4D8CCF;" d="M84.977,469.779V42.221c0-18.891,15.314-34.205,34.205-34.205H93.528  c-18.891,0-34.205,15.314-34.205,34.205v427.557c0,18.891,15.314,34.205,34.205,34.205h25.653  C100.291,503.983,84.977,488.669,84.977,469.779z"/>
<path style="fill:#D9DCDF;" d="M392.818,153.386H119.182c-9.446,0-17.102-7.656-17.102-17.102v-76.96  c0-9.446,7.656-17.102,17.102-17.102h273.637c9.446,0,17.102,7.656,17.102,17.102v76.96  C409.921,145.73,402.264,153.386,392.818,153.386z"/>
<path style="fill:#FFC44F;" d="M376.785,315.858h-85.511c-9.446,0-17.102-7.656-17.102-17.102v-85.511  c0-9.446,7.656-17.102,17.102-17.102h85.511c9.446,0,17.102,7.656,17.102,17.102v85.511  C393.887,308.202,386.231,315.858,376.785,315.858z"/>
<path style="fill:#FF8C78;" d="M376.785,469.779h-85.511c-9.446,0-17.102-7.656-17.102-17.102v-85.511  c0-9.446,7.656-17.102,17.102-17.102h85.511c9.446,0,17.102,7.656,17.102,17.102v85.511  C393.887,462.122,386.231,469.779,376.785,469.779z"/>
<g>
	<path style="fill:#FFC44F;" d="M220.727,315.858h-85.511c-9.446,0-17.102-7.656-17.102-17.102v-85.511   c0-9.446,7.656-17.102,17.102-17.102h85.511c9.446,0,17.102,7.656,17.102,17.102v85.511   C237.829,308.202,230.172,315.858,220.727,315.858z"/>
	<path style="fill:#FFC44F;" d="M220.727,469.779h-85.511c-9.446,0-17.102-7.656-17.102-17.102v-85.511   c0-9.446,7.656-17.102,17.102-17.102h85.511c9.446,0,17.102,7.656,17.102,17.102v85.511   C237.829,462.122,230.172,469.779,220.727,469.779z"/>
</g>
<path d="M418.472,0H93.528c-23.28,0-42.221,18.941-42.221,42.221v316.393c0,4.427,3.588,8.017,8.017,8.017s8.017-3.589,8.017-8.017  V42.221c0-14.44,11.747-26.188,26.188-26.188h324.944c14.441,0,26.188,11.748,26.188,26.188v427.557  c0,14.44-11.747,26.188-26.188,26.188H93.528c-14.441,0-26.188-11.748-26.188-26.188V401.37c0-4.427-3.588-8.017-8.017-8.017  s-8.017,3.589-8.017,8.017v68.409c0,23.28,18.941,42.221,42.221,42.221h324.944c23.28,0,42.221-18.941,42.221-42.221V42.221  C460.693,18.941,441.752,0,418.472,0z"/>
<path d="M119.182,50.238h34.205c4.428,0,8.017-3.589,8.017-8.017s-3.588-8.017-8.017-8.017h-34.205  c-13.851,0-25.119,11.268-25.119,25.119v76.96c0,13.851,11.268,25.119,25.119,25.119h273.637c13.851,0,25.119-11.268,25.119-25.119  v-76.96c0-13.851-11.268-25.119-25.119-25.119H196.142c-4.428,0-8.017,3.589-8.017,8.017s3.588,8.017,8.017,8.017h196.676  c5.01,0,9.086,4.076,9.086,9.086v76.96c0,5.01-4.076,9.086-9.086,9.086H119.182c-5.01,0-9.086-4.076-9.086-9.086v-76.96  C110.096,54.314,114.172,50.238,119.182,50.238z"/>
<path d="M367.165,59.858h-25.653c-4.428,0-8.017,3.589-8.017,8.017s3.588,8.017,8.017,8.017h25.653c4.428,0,8.017-3.589,8.017-8.017  S371.593,59.858,367.165,59.858z"/>
<path d="M341.511,119.716c-4.428,0-8.017,3.589-8.017,8.017c0,4.427,3.588,8.017,8.017,8.017h25.653  c4.428,0,8.017-3.589,8.017-8.017c0-4.427-3.588-8.017-8.017-8.017H341.511z"/>
<path d="M324.944,84.977v25.653c0,4.427,3.588,8.017,8.017,8.017c4.428,0,8.017-3.589,8.017-8.017V84.977  c0-4.427-3.588-8.017-8.017-8.017C328.532,76.96,324.944,80.55,324.944,84.977z"/>
<path d="M383.733,110.63V84.977c0-4.427-3.588-8.017-8.017-8.017c-4.428,0-8.017,3.589-8.017,8.017v25.653  c0,4.427,3.588,8.017,8.017,8.017C380.145,118.647,383.733,115.058,383.733,110.63z"/>
<path d="M402.438,213.244c0-13.851-11.268-25.119-25.119-25.119h-85.511c-13.851,0-25.119,11.268-25.119,25.119v85.511  c0,13.851,11.268,25.119,25.119,25.119h85.511c13.851,0,25.119-11.268,25.119-25.119V213.244z M386.405,298.756  c0,5.01-4.076,9.086-9.086,9.086h-85.511c-5.01,0-9.086-4.076-9.086-9.086v-85.511c0-5.01,4.076-9.086,9.086-9.086h85.511  c5.01,0,9.086,4.076,9.086,9.086V298.756z"/>
<path d="M368.768,247.983h-68.409c-4.428,0-8.017,3.589-8.017,8.017c0,4.427,3.588,8.017,8.017,8.017h68.409  c4.428,0,8.017-3.589,8.017-8.017C376.785,251.573,373.197,247.983,368.768,247.983z"/>
<path d="M377.319,342.046h-85.511c-13.851,0-25.119,11.268-25.119,25.119v85.511c0,13.851,11.268,25.119,25.119,25.119h85.511  c13.851,0,25.119-11.268,25.119-25.119v-85.511C402.438,353.314,391.17,342.046,377.319,342.046z M386.405,452.676  c0,5.01-4.076,9.086-9.086,9.086h-85.511c-5.01,0-9.086-4.076-9.086-9.086v-85.511c0-5.01,4.076-9.086,9.086-9.086h85.511  c5.01,0,9.086,4.076,9.086,9.086V452.676z"/>
<path d="M368.768,384.802h-68.409c-4.428,0-8.017,3.589-8.017,8.017c0,4.427,3.588,8.017,8.017,8.017h68.409  c4.428,0,8.017-3.589,8.017-8.017C376.785,388.391,373.197,384.802,368.768,384.802z"/>
<path d="M368.768,419.006h-68.409c-4.428,0-8.017,3.589-8.017,8.017c0,4.427,3.588,8.017,8.017,8.017h68.409  c4.428,0,8.017-3.589,8.017-8.017C376.785,422.596,373.197,419.006,368.768,419.006z"/>
<path d="M109.562,298.756c0,13.851,11.268,25.119,25.119,25.119h85.511c13.851,0,25.119-11.268,25.119-25.119v-85.511  c0-13.851-11.268-25.119-25.119-25.119h-85.511c-13.851,0-25.119,11.268-25.119,25.119V298.756z M125.595,213.244  c0-5.01,4.076-9.086,9.086-9.086h85.511c5.01,0,9.086,4.076,9.086,9.086v85.511c0,5.01-4.076,9.086-9.086,9.086h-85.511  c-5.01,0-9.086-4.076-9.086-9.086V213.244z"/>
<path d="M143.232,264.017h26.188v26.188c0,4.427,3.588,8.017,8.017,8.017c4.428,0,8.017-3.589,8.017-8.017v-26.188h26.188  c4.428,0,8.017-3.589,8.017-8.017c0-4.427-3.588-8.017-8.017-8.017h-26.188v-26.188c0-4.427-3.588-8.017-8.017-8.017  c-4.428,0-8.017,3.589-8.017,8.017v26.188h-26.188c-4.428,0-8.017,3.589-8.017,8.017  C135.215,260.427,138.803,264.017,143.232,264.017z"/>
<path d="M109.562,452.676c0,13.851,11.268,25.119,25.119,25.119h85.511c13.851,0,25.119-11.268,25.119-25.119v-85.511  c0-13.851-11.268-25.119-25.119-25.119h-85.511c-13.851,0-25.119,11.268-25.119,25.119V452.676z M125.595,367.165  c0-5.01,4.076-9.086,9.086-9.086h85.511c5.01,0,9.086,4.076,9.086,9.086v85.511c0,5.01-4.076,9.086-9.086,9.086h-85.511  c-5.01,0-9.086-4.076-9.086-9.086V367.165z"/>
<path d="M147.581,439.776c1.566,1.565,3.618,2.348,5.669,2.348c2.051,0,4.103-0.782,5.669-2.348l18.516-18.518l18.516,18.518  c1.566,1.566,3.617,2.348,5.669,2.348c2.051,0,4.104-0.782,5.669-2.348c3.131-3.131,3.131-8.207,0-11.337l-18.518-18.519  l18.518-18.518c3.131-3.131,3.131-8.207,0-11.337c-3.132-3.131-8.207-3.131-11.338,0l-18.518,18.516l-18.516-18.518  c-3.131-3.131-8.206-3.132-11.338,0c-3.131,3.131-3.131,8.207,0,11.337L166.1,409.92l-18.518,18.518  C144.451,431.569,144.451,436.645,147.581,439.776z"/>
<g>
</g>
<g>
</g>
<g>
</g>
<g>
</g>
<g>
</g>
<g>
</g>
<g>
</g>
<g>
</g>
<g>
</g>
<g>
</g>
<g>
</g>
<g>
</g>
<g>
</g>
<g>
</g>
<g>
</g>
</svg>
