<?xml version="1.0" encoding="iso-8859-1"?>
<!-- Generator: Adobe Illustrator 19.0.0, SVG Export Plug-In . SVG Version: 6.00 Build 0)  -->
<svg xmlns="http://www.w3.org/2000/svg" xmlns:xlink="http://www.w3.org/1999/xlink" version="1.1" id="Layer_1" x="0px" y="0px" viewBox="0 0 512 512" style="enable-background:new 0 0 512 512;" xml:space="preserve">
<polygon style="fill:#509FE8;" points="290.205,503.983 221.795,503.983 230.347,324.409 281.653,324.409 "/>
<polygon style="fill:#4D8CCF;" points="281.653,324.409 230.347,324.409 225.036,435.93 286.964,435.93 "/>
<path style="fill:#D9DCDF;" d="M469.779,409.921H42.221c-18.891,0-34.205-15.314-34.205-34.205V42.221  c0-18.891,15.314-34.205,34.205-34.205h427.557c18.891,0,34.205,15.314,34.205,34.205v333.495  C503.983,394.607,488.669,409.921,469.779,409.921z"/>
<g>
	<path style="fill:#509FE8;" d="M8.017,358.614v17.102c0,18.891,15.314,34.205,34.205,34.205h427.557   c18.891,0,34.205-15.314,34.205-34.205v-17.102H8.017z"/>
	<path style="fill:#509FE8;" d="M503.983,42.221c0-18.891-15.314-34.205-34.205-34.205H42.221   c-18.891,0-34.205,15.314-34.205,34.205v17.102h495.967V42.221z"/>
</g>
<path style="fill:#B3B9BF;" d="M33.67,375.716V42.221c0-18.891,15.314-34.205,34.205-34.205H42.221  c-18.891,0-34.205,15.314-34.205,34.205v333.495c0,18.891,15.314,34.205,34.205,34.205h25.653  C48.984,409.921,33.67,394.607,33.67,375.716z"/>
<g>
	<path style="fill:#4D8CCF;" d="M33.67,375.716v-17.102H8.017v17.102c0,18.891,15.314,34.205,34.205,34.205h25.653   C48.984,409.921,33.67,394.607,33.67,375.716z"/>
	<path style="fill:#4D8CCF;" d="M67.875,8.017H42.221c-18.891,0-34.205,15.314-34.205,34.205v17.102H33.67V42.221   C33.67,23.331,48.984,8.017,67.875,8.017z"/>
</g>
<g>
	<rect x="50.772" y="196.142" style="fill:#FFC44F;" width="51.307" height="119.716"/>
	<rect x="136.284" y="144.835" style="fill:#FFC44F;" width="51.307" height="171.023"/>
	<rect x="221.795" y="102.079" style="fill:#FFC44F;" width="51.307" height="213.779"/>
	<path style="fill:#FFC44F;" d="M460.177,220.856c0.678-3.863,1.051-7.83,1.051-11.887c0-28.8-17.807-53.427-43.003-63.515   l-25.407,63.515L460.177,220.856z"/>
</g>
<path style="fill:#FF8C78;" d="M392.818,208.969l25.407-63.515c-7.857-3.146-16.425-4.894-25.407-4.894  c-37.781,0-68.409,30.628-68.409,68.409s30.628,68.409,68.409,68.409c33.725,0,61.73-24.41,67.358-56.522L392.818,208.969z"/>
<path d="M469.779,0H42.221C18.941,0,0,18.941,0,42.221v333.495c0,23.28,18.941,42.221,42.221,42.221h175.646l-3.715,78.029H179.04  c-4.427,0-8.017,3.589-8.017,8.017c0,4.427,3.589,8.017,8.017,8.017H332.96c4.427,0,8.017-3.589,8.017-8.017  c0-4.427-3.589-8.017-8.017-8.017h-35.111l-3.715-78.029h175.645c23.28,0,42.221-18.941,42.221-42.221V144.835  c0-4.427-3.589-8.017-8.017-8.017c-4.427,0-8.017,3.589-8.017,8.017v205.762H179.04c-4.427,0-8.017,3.589-8.017,8.017  c0,4.427,3.589,8.017,8.017,8.017h316.927v9.086c0,14.44-11.748,26.188-26.188,26.188H42.221c-14.44,0-26.188-11.748-26.188-26.188  v-9.086h120.251c4.427,0,8.017-3.589,8.017-8.017c0-4.427-3.589-8.017-8.017-8.017H16.033V67.34h479.933v34.739  c0,4.427,3.589,8.017,8.017,8.017c4.427,0,8.017-3.589,8.017-8.017V42.221C512,18.941,493.059,0,469.779,0z M281.797,495.967  h-51.594l3.715-78.029h44.162L281.797,495.967z M16.033,51.307v-9.086c0-14.44,11.748-26.188,26.188-26.188h427.557  c14.44,0,26.188,11.748,26.188,26.188v9.086H16.033z"/>
<path d="M264.551,392.284c4.427,0,8.017-3.589,8.017-8.017c0-4.427-3.589-8.017-8.017-8.017h-17.102  c-4.427,0-8.017,3.589-8.017,8.017c0,4.427,3.589,8.017,8.017,8.017H264.551z"/>
<path d="M50.772,188.125c-4.427,0-8.017,3.589-8.017,8.017v119.716c0,4.427,3.589,8.017,8.017,8.017h51.307  c4.427,0,8.017-3.589,8.017-8.017V196.142c0-4.427-3.589-8.017-8.017-8.017H50.772z M94.063,307.841H58.789V204.159h35.273V307.841z  "/>
<path d="M136.284,136.818c-4.427,0-8.017,3.589-8.017,8.017v171.023c0,4.427,3.589,8.017,8.017,8.017h51.307  c4.427,0,8.017-3.589,8.017-8.017V144.835c0-4.427-3.589-8.017-8.017-8.017H136.284z M179.574,307.841h-35.273v-154.99h35.273  V307.841z"/>
<path d="M221.795,94.063c-4.427,0-8.017,3.589-8.017,8.017v213.779c0,4.427,3.589,8.017,8.017,8.017h51.307  c4.427,0,8.017-3.589,8.017-8.017V102.079c0-4.427-3.589-8.017-8.017-8.017H221.795z M265.086,307.841h-35.273V110.096h35.273  V307.841z"/>
<path d="M421.204,138.011c-9.063-3.629-18.614-5.468-28.386-5.468c-42.141,0-76.426,34.285-76.426,76.426  s34.285,76.426,76.426,76.426c37.189,0,68.837-26.559,75.254-63.151c0-0.001,0.001-0.002,0.001-0.003  c0.777-4.431,1.172-8.896,1.172-13.271c0-31.415-18.851-59.264-48.026-70.951C421.214,138.016,421.209,138.012,421.204,138.011z   M392.818,269.361c-33.3,0-60.392-27.092-60.392-60.392s27.092-60.392,60.392-60.392c5.024,0,9.972,0.616,14.789,1.834  l-22.232,55.58c-1.862,4.655,1.124,10.004,6.05,10.872l58.954,10.404C442.557,252.076,419.492,269.361,392.818,269.361z   M453.211,208.969c0,0.832-0.018,1.667-0.055,2.508l-49.232-8.688l18.571-46.425C441.384,166.969,453.211,186.85,453.211,208.969z"/>
<g>
</g>
<g>
</g>
<g>
</g>
<g>
</g>
<g>
</g>
<g>
</g>
<g>
</g>
<g>
</g>
<g>
</g>
<g>
</g>
<g>
</g>
<g>
</g>
<g>
</g>
<g>
</g>
<g>
</g>
</svg>
