<?xml version="1.0" encoding="UTF-8" standalone="no"?>
<!-- Generator: Adobe Illustrator 19.0.0, SVG Export Plug-In . SVG Version: 6.00 Build 0)  -->

<svg
   xmlns:dc="http://purl.org/dc/elements/1.1/"
   xmlns:cc="http://creativecommons.org/ns#"
   xmlns:rdf="http://www.w3.org/1999/02/22-rdf-syntax-ns#"
   xmlns:svg="http://www.w3.org/2000/svg"
   xmlns="http://www.w3.org/2000/svg"
   xmlns:sodipodi="http://sodipodi.sourceforge.net/DTD/sodipodi-0.dtd"
   xmlns:inkscape="http://www.inkscape.org/namespaces/inkscape"
   version="1.1"
   id="Layer_1"
   x="0px"
   y="0px"
   viewBox="0 0 512 512"
   style="enable-background:new 0 0 512 512;"
   xml:space="preserve"
   sodipodi:docname="banker.svg"
   inkscape:version="0.92.1 r15371"><metadata
     id="metadata75"><rdf:RDF><cc:Work
         rdf:about=""><dc:format>image/svg+xml</dc:format><dc:type
           rdf:resource="http://purl.org/dc/dcmitype/StillImage" /></cc:Work></rdf:RDF></metadata><defs
     id="defs73" /><sodipodi:namedview
     pagecolor="#ffffff"
     bordercolor="#666666"
     borderopacity="1"
     objecttolerance="10"
     gridtolerance="10"
     guidetolerance="10"
     inkscape:pageopacity="0"
     inkscape:pageshadow="2"
     inkscape:window-width="1920"
     inkscape:window-height="995"
     id="namedview71"
     showgrid="false"
     inkscape:zoom="0.921875"
     inkscape:cx="-6.8898587"
     inkscape:cy="101.1642"
     inkscape:window-x="0"
     inkscape:window-y="24"
     inkscape:window-maximized="1"
     inkscape:current-layer="Layer_1" /><g
     id="g6"><path
       style="fill:#EFF2FA;"
       d="M23.528,220.349c-8.822,0.017-16.025,7.248-16.009,16.069L7.85,412.852   c0.017,8.822,7.248,16.025,16.069,16.009l376.924-0.709c8.822-0.017,16.025-7.248,16.009-16.069l-0.332-176.433l0,0   c0-9.324-7.579-16.871-16.902-16.833L23.528,220.349z"
       id="path2" /><path
       style="fill:#EFF2FA;"
       d="M414.378,227.44l-86.61,86.936l-0.527,0.529c-0.164,0.164-0.359,0.295-0.574,0.382l-47.134,19.158   c-3.597,1.462-7.186-2.113-5.737-5.716l18.981-47.206c0.086-0.216,0.216-0.411,0.38-0.575l0.706-0.708L354.874,219l-331.346,1.349   c-8.822,0.017-16.025,7.248-16.009,16.069L7.85,412.852c0.016,8.822,7.248,16.025,16.069,16.009l376.925-0.709   c8.822-0.017,16.025-7.248,16.009-16.069l-0.332-176.433C416.523,232.666,415.74,229.869,414.378,227.44z"
       id="path4" /></g><path
     style="fill:#D7DEED;"
     d="M293.157,280.949c-0.164,0.164-0.293,0.36-0.38,0.575l-18.981,47.206  c-1.449,3.603,2.14,7.178,5.737,5.716l47.134-19.158c0.215-0.087,0.41-0.218,0.574-0.382l0.527-0.529l86.61-86.936  c-2.892-5.163-8.418-8.649-14.758-8.623L354.873,219l-61.012,61.241L293.157,280.949z"
     id="path8" /><polygon
     style="fill:#FFFFFF;"
     points="264.969,323.888 306.985,306.81 307.565,306.228 295.139,293.718 "
     id="polygon10" /><polygon
     style="fill:#D7DEED;"
     points="282.211,280.702 281.498,281.418 264.314,324.155 264.969,323.888 295.139,293.718 "
     id="polygon12" /><path
     style="fill:#EFF2FA;"
     d="M481.118,107.739l12.129,12.108l5.999-6.022c6.8-6.823,6.967-17.724,0.558-24.772L481.118,107.739z"
     id="path14" /><path
     style="fill:#D7DEED;"
     d="M499.804,89.053c-0.202-0.223-0.39-0.453-0.605-0.668c-7.035-7.014-18.431-6.993-25.439,0.048  l-5.974,5.996l13.333,13.31L499.804,89.053z"
     id="path16" /><polygon
     style="fill:#FFC36E;"
     points="481.118,107.739 467.785,94.429 282.211,280.702 295.139,293.718 "
     id="polygon18" /><polygon
     style="fill:#FFD782;"
     points="295.139,293.718 307.565,306.228 493.248,119.846 481.118,107.739 "
     id="polygon20" /><path
     d="M416.523,228.131c-0.005,0-0.01,0-0.015,0c-4.152,0.008-7.512,3.38-7.504,7.532l0.332,176.433  c0.004,2.258-0.883,4.395-2.498,6.016c-1.615,1.621-3.748,2.516-6.007,2.521l-376.925,0.709c-0.005,0-0.011,0-0.016,0  c-2.253,0-4.383-0.887-6-2.498c-1.621-1.615-2.516-3.748-2.521-6.007l-0.331-176.433c-0.009-4.699,3.806-8.528,8.505-8.537  l280.686-0.527c4.152-0.008,7.512-3.38,7.504-7.532c-0.008-4.148-3.372-7.504-7.518-7.504c-0.005,0-0.01,0-0.015,0l-280.686,0.527  C10.524,212.855-0.024,223.443,0,236.432l0.332,176.432c0.024,12.976,10.587,23.515,23.557,23.514c0.014,0,0.031,0,0.045,0  l376.925-0.709c12.99-0.024,23.538-10.612,23.514-23.602l-0.332-176.433C424.033,231.487,420.669,228.131,416.523,228.131z"
     id="path22" /><path
     d="M505.072,82.495c-4.444-4.432-10.349-6.873-16.629-6.873c-6.314,0-12.241,2.464-16.688,6.933L276.329,278.715  c-0.691,0.694-1.237,1.513-1.612,2.411c-0.491,1.151-11.51,26.641-17.305,40.043c-1.225,2.835-0.593,6.13,1.594,8.309  c1.439,1.435,3.358,2.193,5.309,2.193c1.014,0,2.038-0.205,3.006-0.628c40.756-17.79,40.756-17.79,41.406-18.25  c0.349-0.248,0.677-0.524,0.978-0.827L505.13,115.807c4.442-4.459,6.882-10.379,6.87-16.67  C511.988,92.845,509.527,86.933,505.072,82.495z M300.06,300.343c-3.23,1.411-12.107,5.287-21.277,9.291  c5.579-12.907,8.053-18.643,9.175-21.283l181.14-181.822l12.071,12.026L300.06,300.343z M494.478,105.192l-2.698,2.708  L479.71,95.875l2.702-2.712c1.608-1.615,3.75-2.505,6.033-2.505c2.271,0,4.405,0.881,6.013,2.486  c1.613,1.607,2.504,3.744,2.508,6.019C496.968,101.438,496.085,103.579,494.478,105.192z"
     id="path24" /><path
     d="M136.621,388.55c0.008,4.148,3.372,7.504,7.518,7.504c0.005,0,0.01,0,0.015,0l224.55-0.422  c4.152-0.008,7.512-3.38,7.504-7.533c-0.008-4.147-3.372-7.504-7.518-7.504c-0.005,0-0.01,0-0.015,0l-224.55,0.422  C139.973,381.025,136.613,384.398,136.621,388.55z"
     id="path26" /><path
     d="M368.616,348.517l-32.079,0.061c-4.152,0.008-7.512,3.38-7.504,7.533c0.008,4.147,3.372,7.504,7.518,7.504  c0.005,0,0.01,0,0.015,0l32.079-0.061c4.152-0.008,7.512-3.38,7.504-7.533c-0.008-4.147-3.372-7.504-7.518-7.504  C368.626,348.517,368.621,348.517,368.616,348.517z"
     id="path28" /><path
     d="M304.474,348.638c-0.005,0-0.01,0-0.015,0l-120.294,0.227c-4.152,0.008-7.512,3.38-7.504,7.533  c0.008,4.147,3.372,7.504,7.518,7.504c0.005,0,0.01,0,0.015,0l120.294-0.227c4.152-0.008,7.512-3.38,7.504-7.533  C311.983,351.994,308.619,348.638,304.474,348.638z"
     id="path30" /><path
     d="M368.571,316.438c-0.005,0-0.01,0-0.015,0l-32.079,0.06c-4.152,0.008-7.512,3.38-7.504,7.533  c0.008,4.147,3.372,7.504,7.518,7.504c0.005,0,0.01,0,0.015,0l32.079-0.06c4.152-0.008,7.512-3.38,7.504-7.533  C376.08,319.795,372.716,316.438,368.571,316.438z"
     id="path32" /><path
     d="M184.117,331.822c0.005,0,0.01,0,0.015,0l40.098-0.075c4.152-0.008,7.512-3.38,7.504-7.533  c-0.008-4.148-3.372-7.504-7.518-7.504c-0.005,0-0.01,0-0.015,0l-40.098,0.075c-4.152,0.008-7.512,3.38-7.504,7.533  C176.607,328.465,179.971,331.822,184.117,331.822z"
     id="path34" /><path
     d="M263.692,259.996c-0.008-4.148-3.372-7.504-7.517-7.504c-0.005,0-0.01,0-0.015,0l-112.276,0.211  c-4.152,0.008-7.512,3.38-7.504,7.533c0.008,4.147,3.372,7.504,7.518,7.504c0.005,0,0.01,0,0.015,0l112.276-0.211  C260.34,267.521,263.7,264.149,263.692,259.996z"
     id="path36" /><g
     id="g40" /><g
     id="g42" /><g
     id="g44" /><g
     id="g46" /><g
     id="g48" /><g
     id="g50" /><g
     id="g52" /><g
     id="g54" /><g
     id="g56" /><g
     id="g58" /><g
     id="g60" /><g
     id="g62" /><g
     id="g64" /><g
     id="g66" /><g
     id="g68" /><text
     xml:space="preserve"
     style="font-style:normal;font-variant:normal;font-weight:normal;font-stretch:normal;font-size:96.09634399px;line-height:125%;font-family:Arvo;-inkscape-font-specification:'Arvo, Normal';font-variant-ligatures:normal;font-variant-caps:normal;font-variant-numeric:normal;font-feature-settings:normal;text-align:start;letter-spacing:0px;word-spacing:0px;writing-mode:lr-tb;text-anchor:start;fill:#000000;fill-opacity:1;stroke:none;stroke-width:2.40241957px;stroke-linecap:butt;stroke-linejoin:miter;stroke-opacity:1"
     x="33.945629"
     y="334.40915"
     id="text4554"
     transform="scale(0.96313391,1.0382772)"><tspan
       sodipodi:role="line"
       id="tspan4552"
       x="33.945629"
       y="334.40915"
       style="font-style:normal;font-variant:normal;font-weight:normal;font-stretch:normal;font-size:96.09634399px;font-family:Arvo;-inkscape-font-specification:'Arvo, Normal';font-variant-ligatures:normal;font-variant-caps:normal;font-variant-numeric:normal;font-feature-settings:normal;text-align:start;writing-mode:lr-tb;text-anchor:start;stroke-width:2.40241957px">Rp</tspan></text>
</svg>