<?xml version="1.0" encoding="iso-8859-1"?>
<!-- Generator: Adobe Illustrator 19.0.0, SVG Export Plug-In . SVG Version: 6.00 Build 0)  -->
<svg version="1.1" id="Layer_1" xmlns="http://www.w3.org/2000/svg" xmlns:xlink="http://www.w3.org/1999/xlink" x="0px" y="0px"
	 viewBox="0 0 512 512" style="enable-background:new 0 0 512 512;" xml:space="preserve">
<path style="fill:#FFC36E;" d="M327.762,167.65c-21.703,0.041-40.06-12.76-40.089-27.95c-0.029-15.19,18.28-28.059,39.983-28.1
	c18.047-0.034,34.411,8.947,38.907,21.356c0.782,2.149,1.177,4.369,1.181,6.594c0.017,8.844,7.2,16,16.044,15.984
	c8.844-0.017,16-7.2,15.984-16.044c-0.011-5.939-1.054-11.806-3.098-17.448c-7.642-21.086-28.068-36.244-53.061-40.858l-0.003-1.643
	c-0.017-8.844-7.2-16-16.044-15.984c-8.844,0.017-16.001,7.2-15.984,16.044l0.003,1.546c-32.031,6.152-55.994,30.089-55.94,58.612
	c0.062,33.116,32.442,59.993,72.178,59.919c21.703-0.041,40.06,12.76,40.089,27.95c0.029,15.19-18.28,28.059-39.983,28.1
	c-21.703,0.041-40.06-12.76-40.089-27.95c-0.017-8.844-7.2-16.001-16.044-15.984s-16.001,7.2-15.984,16.044
	c0.054,28.523,24.107,52.371,56.16,58.402l0.003,1.546c0.017,8.844,7.2,16.001,16.044,15.984c8.844-0.017,16-7.2,15.984-16.044
	l-0.003-1.546c32.031-6.151,55.994-30.089,55.94-58.612C399.877,194.452,367.496,167.575,327.762,167.65z"/>
<path style="fill:#707487;" d="M39.201,504.493c-7.958,0.015-15.921-3.006-22.004-9.066c-12.166-12.12-12.203-31.807-0.083-43.973
	L123.91,344.257c12.119-12.166,31.808-12.203,43.973-0.083c12.166,12.12,12.203,31.807,0.083,43.973L61.171,495.344
	C55.112,501.428,47.16,504.478,39.201,504.493z"/>
<path style="fill:#5B5D6E;" d="M30.945,465.283L137.74,358.085c9.722-9.759,24.311-11.705,35.983-5.841
	c-1.463-2.912-3.404-5.644-5.839-8.07c-12.165-12.12-31.854-12.083-43.973,0.083L17.116,451.454
	c-12.121,12.166-12.084,31.853,0.083,43.973c2.407,2.398,5.111,4.312,7.989,5.758C19.342,489.552,21.25,475.014,30.945,465.283z"/>
<g>
	<path style="fill:#FFD782;" d="M327.46,7.507c-97.288,0.183-176.008,79.2-175.825,176.489
		c0.183,97.289,79.2,176.009,176.488,175.826c97.289-0.183,176.009-79.2,175.826-176.488C503.766,86.046,424.749,7.324,327.46,7.507
		z M328.065,328.737c-80.122,0.151-145.195-64.679-145.346-144.801S247.398,38.742,327.519,38.591
		c80.122-0.151,145.195,64.679,145.346,144.801C473.016,263.513,408.186,328.587,328.065,328.737z"/>
	<path style="fill:#FFD782;" d="M171.209,348.088c0.955,1.332,1.794,2.721,2.514,4.156c-11.672-5.864-26.262-3.918-35.983,5.841
		l-11.148,11.19l30.144,30.144l11.231-11.273C178.855,377.217,179.925,360.219,171.209,348.088z"/>
</g>
<path style="fill:#FFC36E;" d="M112.762,355.448l13.828,13.828l11.148-11.19c9.722-9.759,24.311-11.705,35.983-5.841
	c-0.721-1.434-1.56-2.824-2.514-4.156c-0.021-0.03-0.041-0.06-0.063-0.089c-0.445-0.618-0.922-1.22-1.418-1.811
	c-0.089-0.105-0.179-0.209-0.27-0.313c-0.501-0.581-1.021-1.151-1.573-1.702c-1.028-1.024-2.113-1.954-3.24-2.805
	c-2.026-1.53-4.195-2.777-6.457-3.746c-0.375-0.161-0.753-0.314-1.133-0.459c-3.12-1.192-6.391-1.872-9.683-2.023
	c-0.994-0.046-1.99-0.044-2.983,0.006c-2.484,0.123-4.956,0.542-7.36,1.259c-0.961,0.286-1.911,0.621-2.846,1.001
	c-3.74,1.525-7.243,3.808-10.273,6.85L112.762,355.448z"/>
<path d="M327.929,160.143h-0.271c-17.28,0-32.457-9.56-32.478-20.456c-0.021-10.931,15.162-20.547,32.579-20.58
	c14.709,0,28.358,7.053,31.75,16.416c0.481,1.322,0.727,2.682,0.73,4.041c0.024,12.946,10.575,23.477,23.565,23.477
	c12.97-0.024,23.501-10.595,23.477-23.566c-0.013-6.803-1.206-13.529-3.547-19.991c-7.895-21.784-27.505-38.097-53.055-44.449
	c-2.123-10.803-11.677-18.984-23.126-18.984c-6.283,0.012-12.184,2.47-16.619,6.92c-3.341,3.355-5.548,7.538-6.428,12.084
	c-14.907,3.879-28.353,11.495-38.316,21.789c-11.67,12.057-18.08,27.302-18.051,42.93c0.07,37.171,35.742,67.412,79.519,67.412
	h0.268c17.28,0,32.457,9.56,32.478,20.456c0.021,10.931-15.162,20.547-32.578,20.58c-17.281,0.001-32.459-9.559-32.48-20.456
	c-0.024-12.947-10.575-23.478-23.565-23.478c-12.97,0.024-23.501,10.595-23.477,23.565c0.029,15.628,6.498,30.851,18.212,42.863
	c10.003,10.256,23.479,17.823,38.403,21.645c2.149,10.772,11.682,18.917,23.068,18.917c0.005,0,0.04,0,0.045,0
	c6.283-0.012,12.184-2.47,16.619-6.921c3.341-3.354,5.547-7.537,6.427-12.084c14.907-3.879,28.353-11.495,38.316-21.789
	c11.669-12.056,18.08-27.302,18.051-42.93C407.376,190.383,371.704,160.143,327.929,160.143z M342.583,278.809
	c-3.541,0.681-6.097,3.78-6.09,7.387l0.003,1.545c0.004,2.273-0.877,4.411-2.481,6.021s-3.738,2.499-6.01,2.503l-0.017,7.507v-7.508
	c-4.682,0-8.499-3.81-8.508-8.493l-0.003-1.546c-0.007-3.605-2.575-6.696-6.118-7.363c-28.95-5.446-49.996-26.912-50.042-51.038
	c-0.009-4.692,3.8-8.516,8.509-8.525c4.682,0,8.498,3.81,8.507,8.493c0.037,19.543,21.343,35.443,47.495,35.442h0.115
	c26.214-0.05,47.513-16.029,47.475-35.622c-0.036-19.542-21.34-35.442-47.491-35.442h-0.268c-35.515,0-64.452-23.518-64.506-52.427
	c-0.045-24.126,20.919-45.67,49.849-51.226c3.54-0.68,6.097-3.78,6.09-7.386l-0.003-1.546c-0.004-2.273,0.877-4.41,2.481-6.021
	c1.604-1.609,3.739-2.499,6.027-2.503c4.682,0,8.498,3.809,8.507,8.493l0.003,1.644c0.007,3.614,2.589,6.71,6.145,7.366
	c22.679,4.186,40.829,17.993,47.366,36.032c1.749,4.825,2.639,9.841,2.649,14.904c0.004,2.273-0.877,4.411-2.481,6.021
	c-1.604,1.61-3.738,2.499-6.027,2.503c-4.682,0-8.499-3.809-8.508-8.491c-0.005-3.105-0.556-6.183-1.63-9.137
	c-5.61-15.488-24.47-26.306-45.861-26.306h-0.117c-26.214,0.05-47.513,16.029-47.475,35.622
	c0.037,19.542,21.342,35.442,47.492,35.442h0.271c35.513,0,64.45,23.518,64.504,52.425
	C392.477,251.708,371.513,273.252,342.583,278.809z"/>
<path d="M457.534,53.665C422.858,19.058,376.783,0,327.799,0h-0.352C226.174,0.19,143.937,82.737,144.127,184.01
	c0.087,46.277,17.183,89.916,48.3,123.78l-25.755,25.851c-6.139-3.927-13.274-6.039-20.734-6.039
	c-10.339,0-20.051,4.034-27.346,11.358L11.798,446.156c-7.278,7.305-11.275,17.005-11.255,27.316
	c0.02,10.31,4.053,19.997,11.357,27.273C19.186,508.003,28.859,512,39.14,512c0.005,0,0.071,0,0.075,0
	c10.311-0.019,19.998-4.053,27.274-11.358l106.795-107.196c7.277-7.305,11.274-17.005,11.255-27.316
	c-0.015-8.032-2.476-15.68-7.012-22.111l25.496-25.592c34.049,31.58,78.08,48.901,124.763,48.901h0.352
	c49.059-0.092,95.145-19.283,129.769-54.037s53.642-80.912,53.55-129.97C511.364,134.321,492.214,88.276,457.534,53.665z
	 M162.648,382.849L55.852,490.047c-4.446,4.464-10.364,6.928-16.665,6.94l-0.047,7.507v-7.507c-6.282,0-12.193-2.442-16.644-6.877
	c-4.464-4.446-6.928-10.364-6.94-16.665c-0.012-6.301,2.43-12.228,6.878-16.692L129.23,349.556c4.458-4.476,10.392-6.94,16.71-6.94
	c6.284,0,12.195,2.441,16.646,6.877c4.463,4.446,6.928,10.364,6.94,16.665C169.538,372.458,167.095,378.385,162.648,382.849z
	 M447.269,302.694c-31.794,31.914-74.112,49.535-119.162,49.62h-0.324c-92.815,0-168.469-75.514-168.644-168.333
	c-0.173-92.995,75.34-168.793,168.335-168.968h0.324c92.816,0,168.469,75.514,168.644,168.334
	C496.527,228.395,479.064,270.78,447.269,302.694z"/>
<path d="M470.699,132.845c-7.549-21.227-20.034-40.876-36.107-56.823c-16.077-15.952-35.828-28.284-57.118-35.664
	c-3.919-1.357-8.193,0.717-9.552,4.634c-1.357,3.917,0.717,8.193,4.634,9.551c38.827,13.459,70.228,44.612,83.997,83.333
	c1.093,3.075,3.986,4.993,7.072,4.993c0.835,0,1.684-0.14,2.515-0.436C470.048,141.043,472.088,136.75,470.699,132.845z"/>
<g>
</g>
<g>
</g>
<g>
</g>
<g>
</g>
<g>
</g>
<g>
</g>
<g>
</g>
<g>
</g>
<g>
</g>
<g>
</g>
<g>
</g>
<g>
</g>
<g>
</g>
<g>
</g>
<g>
</g>
</svg>
